Ubuntu-Condensed.ufo
<glyph name="exclam" format="2">
  <advance width="261"/>
  <unicode hex="0021"/>
  <outline>
    <contour>
      <point x="107" y="202" type="curve"/>
      <point x="154" y="202" type="line"/>
      <point x="169" y="295"/>
      <point x="177" y="412"/>
      <point x="177" y="505" type="curve" smooth="yes"/>
      <point x="177" y="693" type="line"/>
      <point x="85" y="693" type="line"/>
      <point x="85" y="505" type="line" smooth="yes"/>
      <point x="85" y="412"/>
      <point x="93" y="295"/>
    </contour>
    <contour>
      <point x="130" y="-9" type="curve" smooth="yes"/>
      <point x="165" y="-9"/>
      <point x="189" y="19"/>
      <point x="189" y="50" type="curve" smooth="yes"/>
      <point x="189" y="82"/>
      <point x="165" y="110"/>
      <point x="130" y="110" type="curve" smooth="yes"/>
      <point x="95" y="110"/>
      <point x="72" y="82"/>
      <point x="72" y="50" type="curve" smooth="yes"/>
      <point x="72" y="19"/>
      <point x="95" y="-9"/>
    </contour>
  </outline>
</glyph>
<glyph name="numbersign" format="2">
  <advance width="569"/>
  <unicode hex="0023"/>
  <outline>
    <contour>
      <point x="102" y="0" type="line"/>
      <point x="174" y="0" type="line"/>
      <point x="200" y="185" type="line"/>
      <point x="325" y="185" type="line"/>
      <point x="300" y="0" type="line"/>
      <point x="371" y="0" type="line"/>
      <point x="397" y="185" type="line"/>
      <point x="523" y="185" type="line"/>
      <point x="523" y="249" type="line"/>
      <point x="406" y="249" type="line"/>
      <point x="433" y="444" type="line"/>
      <point x="523" y="444" type="line"/>
      <point x="523" y="509" type="line"/>
      <point x="442" y="509" type="line"/>
      <point x="467" y="693" type="line"/>
      <point x="395" y="693" type="line"/>
      <point x="369" y="509" type="line"/>
      <point x="245" y="509" type="line"/>
      <point x="270" y="693" type="line"/>
      <point x="198" y="693" type="line"/>
      <point x="173" y="509" type="line"/>
      <point x="47" y="509" type="line"/>
      <point x="47" y="444" type="line"/>
      <point x="163" y="444" type="line"/>
      <point x="137" y="249" type="line"/>
      <point x="47" y="249" type="line"/>
      <point x="47" y="185" type="line"/>
      <point x="128" y="185" type="line"/>
    </contour>
    <contour>
      <point x="209" y="249" type="line"/>
      <point x="236" y="444" type="line"/>
      <point x="360" y="444" type="line"/>
      <point x="334" y="249" type="line"/>
    </contour>
  </outline>
</glyph>
<glyph name="dollar" format="2">
	<unicode hex="0024"/>
	<advance width="430"/>
	<outline>
		<contour>
			<point x="375" y="183" type="qcurve"/>
			<point x="375" y="127"/>
			<point x="316" y="36"/>
			<point x="255" y="22" type="qcurve"/>
			<point x="255" y="-109" type="line"/>
			<point x="178" y="-109" type="line"/>
			<point x="178" y="17" type="line"/>
			<point x="140" y="21"/>
			<point x="75" y="44"/>
			<point x="55" y="60" type="qcurve"/>
			<point x="80" y="127" type="line"/>
			<point x="103" y="111"/>
			<point x="163" y="90"/>
			<point x="197" y="90" type="qcurve"/>
			<point x="241" y="90"/>
			<point x="283" y="141"/>
			<point x="283" y="182" type="qcurve"/>
			<point x="283" y="206"/>
			<point x="268" y="244"/>
			<point x="242" y="274"/>
			<point x="209" y="299"/>
			<point x="191" y="311" type="qcurve"/>
			<point x="168" y="326"/>
			<point x="123" y="358"/>
			<point x="87" y="401"/>
			<point x="64" y="458"/>
			<point x="64" y="498" type="qcurve"/>
			<point x="64" y="523"/>
			<point x="79" y="574"/>
			<point x="108" y="617"/>
			<point x="150" y="650"/>
			<point x="178" y="658" type="qcurve"/>
			<point x="178" y="776" type="line"/>
			<point x="255" y="776" type="line"/>
			<point x="255" y="665" type="line"/>
			<point x="282" y="662"/>
			<point x="331" y="647"/>
			<point x="351" y="636" type="qcurve"/>
			<point x="327" y="568" type="line"/>
			<point x="307" y="579"/>
			<point x="263" y="594"/>
			<point x="240" y="594" type="qcurve"/>
			<point x="204" y="594"/>
			<point x="155" y="548"/>
			<point x="155" y="498" type="qcurve"/>
			<point x="155" y="474"/>
			<point x="173" y="438"/>
			<point x="203" y="408"/>
			<point x="242" y="383"/>
			<point x="262" y="369" type="qcurve"/>
			<point x="283" y="354"/>
			<point x="324" y="322"/>
			<point x="356" y="279"/>
			<point x="375" y="222"/>
		</contour>
	</outline>
</glyph>
<glyph name="percent" format="2">
  <advance width="663"/>
  <unicode hex="0025"/>
  <outline>
    <contour>
      <point x="153" y="0" type="line"/>
      <point x="227" y="0" type="line"/>
      <point x="510" y="693" type="line"/>
      <point x="436" y="693" type="line"/>
    </contour>
    <contour>
      <point x="164" y="338" type="curve" smooth="yes"/>
      <point x="240" y="338"/>
      <point x="282" y="400"/>
      <point x="282" y="522" type="curve" smooth="yes"/>
      <point x="282" y="645"/>
      <point x="240" y="706"/>
      <point x="164" y="706" type="curve" smooth="yes"/>
      <point x="88" y="706"/>
      <point x="47" y="646"/>
      <point x="47" y="523" type="curve" smooth="yes"/>
      <point x="47" y="400"/>
      <point x="88" y="338"/>
    </contour>
    <contour>
      <point x="164" y="398" type="curve" smooth="yes"/>
      <point x="132" y="398"/>
      <point x="116" y="432"/>
      <point x="116" y="523" type="curve" smooth="yes"/>
      <point x="116" y="614"/>
      <point x="132" y="647"/>
      <point x="164" y="647" type="curve" smooth="yes"/>
      <point x="197" y="647"/>
      <point x="212" y="613"/>
      <point x="212" y="522" type="curve" smooth="yes"/>
      <point x="212" y="431"/>
      <point x="197" y="398"/>
    </contour>
    <contour>
      <point x="499" y="-14" type="curve" smooth="yes"/>
      <point x="575" y="-14"/>
      <point x="617" y="48"/>
      <point x="617" y="170" type="curve" smooth="yes"/>
      <point x="617" y="293"/>
      <point x="575" y="354"/>
      <point x="499" y="354" type="curve" smooth="yes"/>
      <point x="423" y="354"/>
      <point x="381" y="294"/>
      <point x="381" y="171" type="curve" smooth="yes"/>
      <point x="381" y="48"/>
      <point x="423" y="-14"/>
    </contour>
    <contour>
      <point x="499" y="46" type="curve" smooth="yes"/>
      <point x="466" y="46"/>
      <point x="450" y="80"/>
      <point x="450" y="171" type="curve" smooth="yes"/>
      <point x="450" y="262"/>
      <point x="466" y="295"/>
      <point x="499" y="295" type="curve" smooth="yes"/>
      <point x="532" y="295"/>
      <point x="547" y="261"/>
      <point x="547" y="170" type="curve" smooth="yes"/>
      <point x="547" y="79"/>
      <point x="532" y="46"/>
    </contour>
  </outline>
</glyph>
<glyph name="ampersand" format="2">
  <advance width="517"/>
  <unicode hex="0026"/>
  <outline>
    <contour>
      <point x="229" y="-11" type="curve" smooth="yes"/>
      <point x="286" y="-11"/>
      <point x="343" y="20"/>
      <point x="385" y="76" type="curve"/>
      <point x="403" y="50"/>
      <point x="417" y="26"/>
      <point x="430" y="0" type="curve"/>
      <point x="512" y="0" type="line"/>
      <point x="489" y="51"/>
      <point x="463" y="98"/>
      <point x="434" y="140" type="curve"/>
      <point x="464" y="200"/>
      <point x="481" y="275"/>
      <point x="486" y="354" type="curve"/>
      <point x="414" y="363" type="line"/>
      <point x="410" y="304"/>
      <point x="400" y="251"/>
      <point x="383" y="206" type="curve"/>
      <point x="262" y="367" type="line"/>
      <point x="333" y="420"/>
      <point x="377" y="482"/>
      <point x="377" y="560" type="curve" smooth="yes"/>
      <point x="377" y="647"/>
      <point x="333" y="706"/>
      <point x="240" y="706" type="curve" smooth="yes"/>
      <point x="150" y="706"/>
      <point x="95" y="645"/>
      <point x="95" y="547" type="curve" smooth="yes"/>
      <point x="95" y="484"/>
      <point x="119" y="435"/>
      <point x="159" y="380" type="curve"/>
      <point x="81" y="319"/>
      <point x="44" y="260"/>
      <point x="44" y="171" type="curve" smooth="yes"/>
      <point x="44" y="73"/>
      <point x="110" y="-11"/>
    </contour>
    <contour>
      <point x="232" y="62" type="curve" smooth="yes"/>
      <point x="169" y="62"/>
      <point x="126" y="108"/>
      <point x="126" y="180" type="curve" smooth="yes"/>
      <point x="126" y="241"/>
      <point x="150" y="286"/>
      <point x="198" y="328" type="curve"/>
      <point x="345" y="132" type="line"/>
      <point x="315" y="87"/>
      <point x="276" y="62"/>
    </contour>
    <contour>
      <point x="222" y="419" type="curve"/>
      <point x="190" y="465"/>
      <point x="170" y="506"/>
      <point x="170" y="548" type="curve" smooth="yes"/>
      <point x="170" y="608"/>
      <point x="192" y="640"/>
      <point x="237" y="640" type="curve" smooth="yes"/>
      <point x="276" y="640"/>
      <point x="303" y="612"/>
      <point x="303" y="558" type="curve" smooth="yes"/>
      <point x="303" y="501"/>
      <point x="272" y="459"/>
    </contour>
  </outline>
</glyph>
<glyph name="quotesingle" format="2">
  <advance width="199"/>
  <unicode hex="0027"/>
  <outline>
    <contour>
      <point x="75" y="500" type="curve"/>
      <point x="123" y="500" type="line"/>
      <point x="134" y="565"/>
      <point x="142" y="640"/>
      <point x="142" y="699" type="curve" smooth="yes"/>
      <point x="142" y="760" type="line"/>
      <point x="57" y="760" type="line"/>
      <point x="57" y="699" type="line" smooth="yes"/>
      <point x="57" y="640"/>
      <point x="65" y="565"/>
    </contour>
  </outline>
</glyph>
<glyph name="parenleft" format="2">
  <advance width="273"/>
  <unicode hex="0028"/>
  <outline>
    <contour>
      <point x="205" y="-187" type="curve"/>
      <point x="269" y="-150" type="line"/>
      <point x="194" y="-12"/>
      <point x="153" y="132"/>
      <point x="153" y="299" type="curve" smooth="yes"/>
      <point x="153" y="466"/>
      <point x="194" y="610"/>
      <point x="269" y="748" type="curve"/>
      <point x="205" y="785" type="line"/>
      <point x="117" y="644"/>
      <point x="68" y="477"/>
      <point x="68" y="299" type="curve" smooth="yes"/>
      <point x="68" y="121"/>
      <point x="117" y="-46"/>
    </contour>
  </outline>
</glyph>
<glyph name="parenright" format="2">
  <advance width="273"/>
  <unicode hex="0029"/>
  <outline>
    <contour>
      <point x="68" y="-187" type="line"/>
      <point x="156" y="-46"/>
      <point x="205" y="121"/>
      <point x="205" y="299" type="curve" smooth="yes"/>
      <point x="205" y="477"/>
      <point x="156" y="644"/>
      <point x="68" y="785" type="curve"/>
      <point x="4" y="748" type="line"/>
      <point x="79" y="610"/>
      <point x="120" y="466"/>
      <point x="120" y="299" type="curve" smooth="yes"/>
      <point x="120" y="132"/>
      <point x="79" y="-12"/>
      <point x="4" y="-150" type="curve"/>
    </contour>
  </outline>
</glyph>
<glyph name="asterisk" format="2">
  <advance width="396"/>
  <unicode hex="002A"/>
  <outline>
    <contour>
      <point x="141" y="400" type="line"/>
      <point x="163" y="430"/>
      <point x="178" y="459"/>
      <point x="198" y="519" type="curve"/>
      <point x="218" y="459"/>
      <point x="233" y="431"/>
      <point x="255" y="400" type="curve"/>
      <point x="319" y="447" type="line"/>
      <point x="299" y="479"/>
      <point x="277" y="503"/>
      <point x="226" y="541" type="curve"/>
      <point x="289" y="542"/>
      <point x="319" y="548"/>
      <point x="354" y="561" type="curve"/>
      <point x="330" y="636" type="line"/>
      <point x="295" y="625"/>
      <point x="266" y="612"/>
      <point x="216" y="575" type="curve"/>
      <point x="234" y="635"/>
      <point x="239" y="667"/>
      <point x="238" y="707" type="curve"/>
      <point x="158" y="707" type="line"/>
      <point x="157" y="667"/>
      <point x="162" y="635"/>
      <point x="180" y="574" type="curve"/>
      <point x="129" y="610"/>
      <point x="101" y="624"/>
      <point x="66" y="636" type="curve"/>
      <point x="41" y="560" type="line"/>
      <point x="76" y="547"/>
      <point x="106" y="541"/>
      <point x="170" y="540" type="curve"/>
      <point x="119" y="503"/>
      <point x="98" y="479"/>
      <point x="77" y="447" type="curve"/>
    </contour>
  </outline>
</glyph>
<glyph name="plus" format="2">
  <advance width="430"/>
  <unicode hex="002B"/>
  <outline>
    <contour>
      <point x="43" y="263" type="line"/>
      <point x="178" y="263" type="line"/>
      <point x="178" y="118" type="line"/>
      <point x="252" y="118" type="line"/>
      <point x="252" y="263" type="line"/>
      <point x="387" y="263" type="line"/>
      <point x="387" y="336" type="line"/>
      <point x="252" y="336" type="line"/>
      <point x="252" y="480" type="line"/>
      <point x="178" y="480" type="line"/>
      <point x="178" y="336" type="line"/>
      <point x="43" y="336" type="line"/>
    </contour>
  </outline>
</glyph>
<glyph name="comma" format="2">
  <advance width="222"/>
  <unicode hex="002C"/>
  <outline>
    <contour>
      <point x="102" y="-143" type="line"/>
      <point x="138" y="-79"/>
      <point x="162" y="-6"/>
      <point x="162" y="67" type="curve" smooth="yes"/>
      <point x="162" y="80"/>
      <point x="162" y="91"/>
      <point x="160" y="110" type="curve"/>
      <point x="72" y="110" type="line"/>
      <point x="73" y="96"/>
      <point x="74" y="70"/>
      <point x="74" y="57" type="curve" smooth="yes"/>
      <point x="74" y="-2"/>
      <point x="64" y="-65"/>
      <point x="39" y="-126" type="curve"/>
    </contour>
  </outline>
</glyph>
<glyph name="hyphen" format="2">
  <advance width="248"/>
  <unicode hex="002D"/>
  <outline>
    <contour>
      <point x="28" y="253" type="line"/>
      <point x="220" y="253" type="line"/>
      <point x="220" y="331" type="line"/>
      <point x="28" y="331" type="line"/>
    </contour>
  </outline>
</glyph>
<glyph name="period" format="2">
  <advance width="222"/>
  <unicode hex="002E"/>
  <outline>
    <contour>
      <point x="111" y="-9" type="curve" smooth="yes"/>
      <point x="146" y="-9"/>
      <point x="170" y="18"/>
      <point x="170" y="49" type="curve" smooth="yes"/>
      <point x="170" y="81"/>
      <point x="146" y="108"/>
      <point x="111" y="108" type="curve" smooth="yes"/>
      <point x="74" y="108"/>
      <point x="51" y="81"/>
      <point x="51" y="49" type="curve" smooth="yes"/>
      <point x="51" y="18"/>
      <point x="74" y="-9"/>
    </contour>
  </outline>
</glyph>
<glyph name="slash" format="2">
  <advance width="277"/>
  <unicode hex="002F"/>
  <outline>
    <contour>
      <point x="-22" y="-185" type="line"/>
      <point x="57" y="-185" type="line"/>
      <point x="300" y="783" type="line"/>
      <point x="220" y="783" type="line"/>
    </contour>
  </outline>
</glyph>
<glyph name="zero" format="2">
  <advance width="429"/>
  <unicode hex="0030"/>
  <outline>
    <contour>
      <point x="214" y="-12" type="curve" smooth="yes"/>
      <point x="333" y="-12"/>
      <point x="385" y="98"/>
      <point x="385" y="348" type="curve" smooth="yes"/>
      <point x="385" y="598"/>
      <point x="333" y="707"/>
      <point x="214" y="707" type="curve" smooth="yes"/>
      <point x="95" y="707"/>
      <point x="45" y="599"/>
      <point x="45" y="348" type="curve" smooth="yes"/>
      <point x="45" y="96"/>
      <point x="95" y="-12"/>
    </contour>
    <contour>
      <point x="214" y="64" type="curve" smooth="yes"/>
      <point x="158" y="64"/>
      <point x="135" y="137"/>
      <point x="135" y="348" type="curve" smooth="yes"/>
      <point x="135" y="558"/>
      <point x="158" y="631"/>
      <point x="214" y="631" type="curve" smooth="yes"/>
      <point x="272" y="631"/>
      <point x="295" y="558"/>
      <point x="295" y="348" type="curve" smooth="yes"/>
      <point x="295" y="137"/>
      <point x="272" y="64"/>
    </contour>
  </outline>
</glyph>
<glyph name="one" format="2">
  <advance width="429"/>
  <unicode hex="0031"/>
  <outline>
    <contour>
      <point x="197" y="0" type="line"/>
      <point x="284" y="0" type="line"/>
      <point x="284" y="693" type="line"/>
      <point x="220" y="693" type="line"/>
      <point x="189" y="642"/>
      <point x="133" y="589"/>
      <point x="73" y="552" type="curve"/>
      <point x="107" y="490" type="line"/>
      <point x="141" y="510"/>
      <point x="170" y="531"/>
      <point x="197" y="559" type="curve"/>
    </contour>
  </outline>
</glyph>
<glyph name="two" format="2">
  <advance width="429"/>
  <unicode hex="0032"/>
  <outline>
    <contour>
      <point x="59" y="0" type="curve"/>
      <point x="379" y="0" type="line"/>
      <point x="379" y="75" type="line"/>
      <point x="155" y="75" type="line"/>
      <point x="162" y="170"/>
      <point x="200" y="231"/>
      <point x="257" y="310" type="curve" smooth="yes"/>
      <point x="315" y="390"/>
      <point x="361" y="455"/>
      <point x="361" y="544" type="curve" smooth="yes"/>
      <point x="361" y="645"/>
      <point x="301" y="707"/>
      <point x="203" y="707" type="curve" smooth="yes"/>
      <point x="140" y="707"/>
      <point x="84" y="687"/>
      <point x="44" y="649" type="curve"/>
      <point x="84" y="589" type="line"/>
      <point x="114" y="616"/>
      <point x="147" y="631"/>
      <point x="187" y="631" type="curve" smooth="yes"/>
      <point x="239" y="631"/>
      <point x="271" y="600"/>
      <point x="271" y="534" type="curve" smooth="yes"/>
      <point x="271" y="462"/>
      <point x="228" y="405"/>
      <point x="173" y="329" type="curve" smooth="yes"/>
      <point x="115" y="249"/>
      <point x="59" y="156"/>
      <point x="59" y="19" type="curve" smooth="yes"/>
      <point x="59" y="13"/>
      <point x="59" y="6"/>
    </contour>
  </outline>
</glyph>
<glyph name="three" format="2">
	<unicode hex="0033"/>
	<advance width="430"/>
	<outline>
		<contour>
			<point x="257" y="373" type="qcurve"/>
			<point x="307" y="355"/>
			<point x="362" y="264"/>
			<point x="362" y="192" type="qcurve"/>
			<point x="362" y="96"/>
			<point x="269" y="-15"/>
			<point x="175" y="-15" type="qcurve"/>
			<point x="138" y="-15"/>
			<point x="68" y="7"/>
			<point x="42" y="25" type="qcurve"/>
			<point x="65" y="95" type="line"/>
			<point x="88" y="81"/>
			<point x="139" y="61"/>
			<point x="167" y="61" type="qcurve"/>
			<point x="218" y="61"/>
			<point x="275" y="124"/>
			<point x="275" y="193" type="qcurve"/>
			<point x="275" y="262"/>
			<point x="212" y="332"/>
			<point x="143" y="332" type="qcurve"/>
			<point x="117" y="332" type="line"/>
			<point x="117" y="405" type="line"/>
			<point x="139" y="405" type="line"/>
			<point x="199" y="405"/>
			<point x="257" y="469"/>
			<point x="257" y="526" type="qcurve"/>
			<point x="257" y="580"/>
			<point x="211" y="633"/>
			<point x="173" y="633" type="qcurve"/>
			<point x="147" y="633"/>
			<point x="100" y="613"/>
			<point x="83" y="598" type="qcurve"/>
			<point x="49" y="661" type="line"/>
			<point x="75" y="685"/>
			<point x="146" y="709"/>
			<point x="181" y="709" type="qcurve"/>
			<point x="259" y="709"/>
			<point x="343" y="611"/>
			<point x="343" y="530" type="qcurve"/>
			<point x="343" y="473"/>
			<point x="298" y="394"/>
		</contour>
	</outline>
	<guideline x="363"/>
</glyph>
<glyph name="four" format="2">
  <advance width="429"/>
  <unicode hex="0034"/>
  <outline>
    <contour>
      <point x="255" y="0" type="line"/>
      <point x="337" y="0" type="line"/>
      <point x="337" y="162" type="line"/>
      <point x="406" y="162" type="line"/>
      <point x="406" y="232" type="line"/>
      <point x="337" y="232" type="line"/>
      <point x="337" y="693" type="line"/>
      <point x="248" y="693" type="line"/>
      <point x="177" y="578"/>
      <point x="88" y="393"/>
      <point x="38" y="224" type="curve"/>
      <point x="38" y="162" type="line"/>
      <point x="255" y="162" type="line"/>
    </contour>
    <contour>
      <point x="112" y="232" type="line"/>
      <point x="146" y="347"/>
      <point x="197" y="469"/>
      <point x="255" y="577" type="curve"/>
      <point x="255" y="232" type="line"/>
    </contour>
  </outline>
</glyph>
<glyph name="five" format="2">
  <advance width="429"/>
  <unicode hex="0035"/>
  <outline>
    <contour>
      <point x="176" y="-15" type="curve" smooth="yes"/>
      <point x="294" y="-15"/>
      <point x="372" y="78"/>
      <point x="372" y="207" type="curve" smooth="yes"/>
      <point x="372" y="322"/>
      <point x="310" y="396"/>
      <point x="170" y="421" type="curve"/>
      <point x="176" y="483"/>
      <point x="179" y="540"/>
      <point x="181" y="619" type="curve"/>
      <point x="355" y="619" type="line"/>
      <point x="355" y="693" type="line"/>
      <point x="106" y="693" type="line"/>
      <point x="107" y="605"/>
      <point x="98" y="462"/>
      <point x="87" y="356" type="curve"/>
      <point x="226" y="349"/>
      <point x="281" y="296"/>
      <point x="281" y="206" type="curve" smooth="yes"/>
      <point x="281" y="112"/>
      <point x="238" y="61"/>
      <point x="167" y="61" type="curve" smooth="yes"/>
      <point x="134" y="61"/>
      <point x="99" y="71"/>
      <point x="70" y="86" type="curve"/>
      <point x="47" y="14" type="line"/>
      <point x="85" y="-5"/>
      <point x="127" y="-15"/>
    </contour>
  </outline>
</glyph>
<glyph name="six" format="2">
  <advance width="429"/>
  <unicode hex="0036"/>
  <outline>
    <contour>
      <point x="224" y="-12" type="curve" smooth="yes"/>
      <point x="326" y="-12"/>
      <point x="386" y="77"/>
      <point x="386" y="219" type="curve" smooth="yes"/>
      <point x="386" y="348"/>
      <point x="331" y="427"/>
      <point x="234" y="427" type="curve" smooth="yes"/>
      <point x="203" y="427"/>
      <point x="175" y="419"/>
      <point x="151" y="407" type="curve"/>
      <point x="178" y="565"/>
      <point x="250" y="622"/>
      <point x="354" y="628" type="curve"/>
      <point x="345" y="699" type="line"/>
      <point x="145" y="692"/>
      <point x="54" y="513"/>
      <point x="54" y="289" type="curve" smooth="yes"/>
      <point x="54" y="75"/>
      <point x="108" y="-12"/>
    </contour>
    <contour>
      <point x="222" y="64" type="curve" smooth="yes"/>
      <point x="157" y="64"/>
      <point x="141" y="145"/>
      <point x="141" y="276" type="curve" smooth="yes"/>
      <point x="141" y="289"/>
      <point x="142" y="311"/>
      <point x="145" y="336" type="curve"/>
      <point x="166" y="350"/>
      <point x="191" y="356"/>
      <point x="213" y="356" type="curve" smooth="yes"/>
      <point x="274" y="356"/>
      <point x="298" y="310"/>
      <point x="298" y="215" type="curve" smooth="yes"/>
      <point x="298" y="116"/>
      <point x="276" y="64"/>
    </contour>
  </outline>
</glyph>
<glyph name="seven" format="2">
  <advance width="429"/>
  <unicode hex="0037"/>
  <outline>
    <contour>
      <point x="112" y="0" type="curve"/>
      <point x="201" y="0" type="line"/>
      <point x="214" y="203"/>
      <point x="284" y="466"/>
      <point x="378" y="633" type="curve"/>
      <point x="378" y="693" type="line"/>
      <point x="45" y="693" type="line"/>
      <point x="45" y="617" type="line"/>
      <point x="285" y="617" type="line"/>
      <point x="201" y="458"/>
      <point x="121" y="180"/>
    </contour>
  </outline>
</glyph>
<glyph name="eight" format="2">
  <advance width="429"/>
  <unicode hex="0038"/>
  <outline>
    <contour>
      <point x="214" y="-12" type="curve" smooth="yes"/>
      <point x="315" y="-12"/>
      <point x="383" y="59"/>
      <point x="383" y="172" type="curve" smooth="yes"/>
      <point x="383" y="248"/>
      <point x="345" y="300"/>
      <point x="280" y="356" type="curve"/>
      <point x="332" y="407"/>
      <point x="370" y="469"/>
      <point x="370" y="542" type="curve" smooth="yes"/>
      <point x="370" y="648"/>
      <point x="302" y="706"/>
      <point x="213" y="706" type="curve" smooth="yes"/>
      <point x="132" y="706"/>
      <point x="59" y="645"/>
      <point x="59" y="539" type="curve" smooth="yes"/>
      <point x="59" y="466"/>
      <point x="90" y="413"/>
      <point x="149" y="360" type="curve"/>
      <point x="86" y="304"/>
      <point x="46" y="247"/>
      <point x="46" y="167" type="curve" smooth="yes"/>
      <point x="46" y="67"/>
      <point x="109" y="-12"/>
    </contour>
    <contour>
      <point x="217" y="57" type="curve" smooth="yes"/>
      <point x="163" y="57"/>
      <point x="134" y="104"/>
      <point x="134" y="173" type="curve" smooth="yes"/>
      <point x="134" y="237"/>
      <point x="159" y="275"/>
      <point x="199" y="317" type="curve"/>
      <point x="257" y="270"/>
      <point x="296" y="228"/>
      <point x="296" y="167" type="curve" smooth="yes"/>
      <point x="296" y="93"/>
      <point x="261" y="57"/>
    </contour>
    <contour>
      <point x="231" y="395" type="curve"/>
      <point x="170" y="446"/>
      <point x="141" y="486"/>
      <point x="141" y="546" type="curve" smooth="yes"/>
      <point x="141" y="614"/>
      <point x="178" y="637"/>
      <point x="214" y="637" type="curve" smooth="yes"/>
      <point x="257" y="637"/>
      <point x="287" y="608"/>
      <point x="287" y="537" type="curve" smooth="yes"/>
      <point x="287" y="472"/>
      <point x="267" y="435"/>
    </contour>
  </outline>
</glyph>
<glyph name="nine" format="2">
  <advance width="429"/>
  <unicode hex="0039"/>
  <outline>
    <contour>
      <point x="79" y="-2" type="line"/>
      <point x="288" y="5"/>
      <point x="374" y="175"/>
      <point x="374" y="406" type="curve" smooth="yes"/>
      <point x="374" y="621"/>
      <point x="318" y="706"/>
      <point x="204" y="706" type="curve" smooth="yes"/>
      <point x="102" y="706"/>
      <point x="42" y="617"/>
      <point x="42" y="475" type="curve" smooth="yes"/>
      <point x="42" y="346"/>
      <point x="97" y="267"/>
      <point x="195" y="267" type="curve" smooth="yes"/>
      <point x="225" y="267"/>
      <point x="252" y="274"/>
      <point x="278" y="287" type="curve"/>
      <point x="256" y="131"/>
      <point x="183" y="74"/>
      <point x="70" y="68" type="curve"/>
    </contour>
    <contour>
      <point x="216" y="337" type="curve" smooth="yes"/>
      <point x="155" y="337"/>
      <point x="129" y="384"/>
      <point x="129" y="479" type="curve" smooth="yes"/>
      <point x="129" y="578"/>
      <point x="152" y="631"/>
      <point x="206" y="631" type="curve" smooth="yes"/>
      <point x="270" y="631"/>
      <point x="286" y="549"/>
      <point x="286" y="418" type="curve" smooth="yes"/>
      <point x="286" y="406"/>
      <point x="285" y="382"/>
      <point x="283" y="357" type="curve"/>
      <point x="263" y="343"/>
      <point x="238" y="337"/>
    </contour>
  </outline>
</glyph>
<glyph name="less" format="2">
  <advance width="429"/>
  <unicode hex="003C"/>
  <outline>
    <contour>
      <point x="347" y="80" type="line"/>
      <point x="383" y="146" type="line"/>
      <point x="133" y="295" type="line"/>
      <point x="383" y="444" type="line"/>
      <point x="347" y="510" type="line"/>
      <point x="46" y="326" type="line"/>
      <point x="46" y="264" type="line"/>
    </contour>
  </outline>
</glyph>
<glyph name="equal" format="2">
  <advance width="429"/>
  <unicode hex="003D"/>
  <outline>
    <contour>
      <point x="43" y="362" type="line"/>
      <point x="387" y="362" type="line"/>
      <point x="387" y="434" type="line"/>
      <point x="43" y="434" type="line"/>
    </contour>
    <contour>
      <point x="43" y="164" type="line"/>
      <point x="387" y="164" type="line"/>
      <point x="387" y="236" type="line"/>
      <point x="43" y="236" type="line"/>
    </contour>
  </outline>
</glyph>
<glyph name="greater" format="2">
  <advance width="429"/>
  <unicode hex="003E"/>
  <outline>
    <contour>
      <point x="82" y="80" type="line"/>
      <point x="384" y="264" type="line"/>
      <point x="384" y="326" type="line"/>
      <point x="82" y="510" type="line"/>
      <point x="47" y="444" type="line"/>
      <point x="297" y="295" type="line"/>
      <point x="47" y="146" type="line"/>
    </contour>
  </outline>
</glyph>
<glyph name="question" format="2">
  <advance width="343"/>
  <unicode hex="003F"/>
  <outline>
    <contour>
      <point x="103" y="202" type="curve"/>
      <point x="182" y="202" type="line"/>
      <point x="180" y="215"/>
      <point x="180" y="230"/>
      <point x="180" y="239" type="curve" smooth="yes"/>
      <point x="180" y="379"/>
      <point x="320" y="409"/>
      <point x="320" y="554" type="curve" smooth="yes"/>
      <point x="320" y="637"/>
      <point x="264" y="706"/>
      <point x="161" y="706" type="curve" smooth="yes"/>
      <point x="105" y="706"/>
      <point x="61" y="690"/>
      <point x="22" y="662" type="curve"/>
      <point x="53" y="597" type="line"/>
      <point x="84" y="619"/>
      <point x="114" y="629"/>
      <point x="147" y="629" type="curve" smooth="yes"/>
      <point x="200" y="629"/>
      <point x="228" y="599"/>
      <point x="228" y="546" type="curve" smooth="yes"/>
      <point x="228" y="430"/>
      <point x="100" y="405"/>
      <point x="100" y="252" type="curve" smooth="yes"/>
      <point x="100" y="236"/>
      <point x="101" y="218"/>
    </contour>
    <contour>
      <point x="139" y="-9" type="curve" smooth="yes"/>
      <point x="174" y="-9"/>
      <point x="198" y="19"/>
      <point x="198" y="50" type="curve" smooth="yes"/>
      <point x="198" y="82"/>
      <point x="174" y="110"/>
      <point x="139" y="110" type="curve" smooth="yes"/>
      <point x="104" y="110"/>
      <point x="81" y="82"/>
      <point x="81" y="50" type="curve" smooth="yes"/>
      <point x="81" y="19"/>
      <point x="104" y="-9"/>
    </contour>
  </outline>
</glyph>
<glyph name="at" format="2">
  <advance width="830"/>
  <unicode hex="0040"/>
  <outline>
    <contour>
      <point x="415" y="-154" type="curve" smooth="yes"/>
      <point x="474" y="-154"/>
      <point x="531" y="-146"/>
      <point x="561" y="-132" type="curve"/>
      <point x="551" y="-71" type="line"/>
      <point x="517" y="-82"/>
      <point x="466" y="-91"/>
      <point x="416" y="-91" type="curve" smooth="yes"/>
      <point x="223" y="-91"/>
      <point x="135" y="55"/>
      <point x="135" y="276" type="curve" smooth="yes"/>
      <point x="135" y="500"/>
      <point x="249" y="645"/>
      <point x="421" y="645" type="curve" smooth="yes"/>
      <point x="624" y="645"/>
      <point x="695" y="510"/>
      <point x="695" y="325" type="curve" smooth="yes"/>
      <point x="695" y="141"/>
      <point x="661" y="110"/>
      <point x="620" y="110" type="curve" smooth="yes"/>
      <point x="579" y="110"/>
      <point x="562" y="135"/>
      <point x="562" y="190" type="curve" smooth="yes"/>
      <point x="562" y="483" type="line"/>
      <point x="533" y="496"/>
      <point x="490" y="508"/>
      <point x="440" y="508" type="curve" smooth="yes"/>
      <point x="329" y="508"/>
      <point x="253" y="425"/>
      <point x="253" y="277" type="curve" smooth="yes"/>
      <point x="253" y="140"/>
      <point x="300" y="48"/>
      <point x="413" y="48" type="curve" smooth="yes"/>
      <point x="451" y="48"/>
      <point x="483" y="60"/>
      <point x="509" y="87" type="curve"/>
      <point x="533" y="57"/>
      <point x="569" y="47"/>
      <point x="614" y="47" type="curve" smooth="yes"/>
      <point x="715" y="47"/>
      <point x="768" y="129"/>
      <point x="768" y="322" type="curve" smooth="yes"/>
      <point x="768" y="556"/>
      <point x="658" y="709"/>
      <point x="420" y="709" type="curve" smooth="yes"/>
      <point x="218" y="709"/>
      <point x="62" y="550"/>
      <point x="62" y="276" type="curve" smooth="yes"/>
      <point x="62" y="-2"/>
      <point x="190" y="-154"/>
    </contour>
    <contour>
      <point x="424" y="116" type="curve" smooth="yes"/>
      <point x="348" y="116"/>
      <point x="336" y="192"/>
      <point x="336" y="277" type="curve" smooth="yes"/>
      <point x="336" y="386"/>
      <point x="371" y="440"/>
      <point x="436" y="440" type="curve" smooth="yes"/>
      <point x="451" y="440"/>
      <point x="467" y="438"/>
      <point x="481" y="433" type="curve"/>
      <point x="481" y="200" type="line" smooth="yes"/>
      <point x="481" y="178"/>
      <point x="482" y="158"/>
      <point x="486" y="141" type="curve"/>
      <point x="473" y="126"/>
      <point x="445" y="116"/>
    </contour>
  </outline>
</glyph>
<glyph name="A" format="2">
  <advance width="503"/>
  <unicode hex="0041"/>
  <outline>
    <contour>
      <point x="204" y="693" type="line"/>
      <point x="140" y="494"/>
      <point x="80" y="292"/>
      <point x="20" y="0" type="curve"/>
      <point x="107" y="0" type="line"/>
      <point x="117" y="60"/>
      <point x="128" y="119"/>
      <point x="141" y="177" type="curve"/>
      <point x="359" y="177" type="line"/>
      <point x="371" y="119"/>
      <point x="382" y="60"/>
      <point x="393" y="0" type="curve"/>
      <point x="483" y="0" type="line"/>
      <point x="423" y="292"/>
      <point x="363" y="494"/>
      <point x="299" y="693" type="curve"/>
    </contour>
    <contour>
      <point x="250" y="591" type="curve"/>
      <point x="283" y="481"/>
      <point x="314" y="369"/>
      <point x="341" y="252" type="curve"/>
      <point x="158" y="252" type="line"/>
      <point x="186" y="369"/>
      <point x="217" y="481"/>
    </contour>
  </outline>
</glyph>
<glyph name="C" format="2">
  <advance width="470"/>
  <unicode hex="0043"/>
  <anchor x="235" y="693" name="top"/>
  <anchor x="235" y="0" name="bottom"/>
  <outline>
    <contour>
      <point x="310" y="-11" type="curve" smooth="yes"/>
      <point x="366" y="-11"/>
      <point x="416" y="0"/>
      <point x="453" y="23" type="curve"/>
      <point x="430" y="95" type="line"/>
      <point x="395" y="77"/>
      <point x="360" y="67"/>
      <point x="319" y="67" type="curve" smooth="yes"/>
      <point x="203" y="67"/>
      <point x="150" y="157"/>
      <point x="150" y="344" type="curve" smooth="yes"/>
      <point x="150" y="541"/>
      <point x="196" y="626"/>
      <point x="306" y="626" type="curve" smooth="yes"/>
      <point x="349" y="626"/>
      <point x="388" y="615"/>
      <point x="418" y="598" type="curve"/>
      <point x="444" y="672" type="line"/>
      <point x="407" y="693"/>
      <point x="358" y="704"/>
      <point x="306" y="704" type="curve" smooth="yes"/>
      <point x="140" y="704"/>
      <point x="56" y="581"/>
      <point x="56" y="344" type="curve" smooth="yes"/>
      <point x="56" y="115"/>
      <point x="146" y="-11"/>
    </contour>
  </outline>
</glyph>
<glyph name="D" format="2">
  <advance width="573"/>
  <unicode hex="0044"/>
  <anchor x="287" y="693" name="top"/>
  <anchor x="287" y="347" name="center"/>
  <anchor x="287" y="0" name="bottom"/>
  <outline>
    <contour>
      <point x="240" y="-7" type="curve" smooth="yes"/>
      <point x="420" y="-7"/>
      <point x="518" y="116"/>
      <point x="518" y="347" type="curve" smooth="yes"/>
      <point x="518" y="582"/>
      <point x="425" y="700"/>
      <point x="240" y="700" type="curve" smooth="yes"/>
      <point x="185" y="700"/>
      <point x="134" y="695"/>
      <point x="83" y="683" type="curve"/>
      <point x="83" y="8" type="line"/>
      <point x="136" y="-3"/>
      <point x="186" y="-7"/>
    </contour>
    <contour>
      <point x="245" y="71" type="curve" smooth="yes"/>
      <point x="216" y="71"/>
      <point x="194" y="72"/>
      <point x="172" y="76" type="curve"/>
      <point x="172" y="617" type="line"/>
      <point x="195" y="621"/>
      <point x="218" y="622"/>
      <point x="245" y="622" type="curve" smooth="yes"/>
      <point x="368" y="622"/>
      <point x="424" y="538"/>
      <point x="424" y="347" type="curve" smooth="yes"/>
      <point x="424" y="159"/>
      <point x="367" y="71"/>
    </contour>
  </outline>
</glyph>
<glyph name="E" format="2">
  <advance width="457"/>
  <unicode hex="0045"/>
  <anchor x="19" y="693" name="topleft"/>
  <anchor x="229" y="693" name="top"/>
  <anchor x="397" y="10" name="ogonek"/>
  <anchor x="229" y="0" name="bottom"/>
  <outline>
    <contour>
      <point x="83" y="0" type="line"/>
      <point x="410" y="0" type="line"/>
      <point x="410" y="76" type="line"/>
      <point x="172" y="76" type="line"/>
      <point x="172" y="327" type="line"/>
      <point x="373" y="327" type="line"/>
      <point x="373" y="400" type="line"/>
      <point x="172" y="400" type="line"/>
      <point x="172" y="617" type="line"/>
      <point x="394" y="617" type="line"/>
      <point x="394" y="693" type="line"/>
      <point x="83" y="693" type="line"/>
    </contour>
  </outline>
</glyph>
<glyph name="F" format="2">
  <advance width="421"/>
  <unicode hex="0046"/>
  <anchor x="214" y="693" name="top"/>
  <anchor x="214" y="0" name="bottom"/>
  <outline>
    <contour>
      <point x="83" y="0" type="line"/>
      <point x="172" y="0" type="line"/>
      <point x="172" y="323" type="line"/>
      <point x="368" y="323" type="line"/>
      <point x="368" y="396" type="line"/>
      <point x="172" y="396" type="line"/>
      <point x="172" y="617" type="line"/>
      <point x="388" y="617" type="line"/>
      <point x="388" y="693" type="line"/>
      <point x="83" y="693" type="line"/>
    </contour>
  </outline>
</glyph>
<glyph name="H" format="2">
  <advance width="573"/>
  <unicode hex="0048"/>
  <anchor x="18" y="693" name="topleft"/>
  <anchor x="287" y="693" name="top"/>
  <anchor x="287" y="347" name="center"/>
  <anchor x="287" y="0" name="bottom"/>
  <outline>
    <contour>
      <point x="83" y="0" type="line"/>
      <point x="172" y="0" type="line"/>
      <point x="172" y="323" type="line"/>
      <point x="401" y="323" type="line"/>
      <point x="401" y="0" type="line"/>
      <point x="491" y="0" type="line"/>
      <point x="491" y="693" type="line"/>
      <point x="401" y="693" type="line"/>
      <point x="401" y="399" type="line"/>
      <point x="172" y="399" type="line"/>
      <point x="172" y="693" type="line"/>
      <point x="83" y="693" type="line"/>
    </contour>
  </outline>
</glyph>
<glyph name="I" format="2">
  <advance width="255"/>
  <unicode hex="0049"/>
  <anchor x="17" y="693" name="topleft"/>
  <anchor x="128" y="693" name="top"/>
  <anchor x="230" y="10" name="ogonek"/>
  <anchor x="128" y="0" name="bottom"/>
  <outline>
    <contour>
      <point x="83" y="0" type="line"/>
      <point x="172" y="0" type="line"/>
      <point x="172" y="693" type="line"/>
      <point x="83" y="693" type="line"/>
    </contour>
  </outline>
</glyph>
<glyph name="J" format="2">
	<unicode hex="004A"/>
	<advance width="395"/>
	<outline>
		<contour>
			<point x="316" y="184" type="line"/>
			<point x="316" y="138"/>
			<point x="297" y="65"/>
			<point x="256" y="13"/>
			<point x="189" y="-15"/>
			<point x="141" y="-15" type="qcurve"/>
			<point x="103" y="-15"/>
			<point x="33" y="8"/>
			<point x="5" y="29" type="qcurve"/>
			<point x="35" y="100" type="line"/>
			<point x="52" y="87"/>
			<point x="109" y="64"/>
			<point x="136" y="64" type="qcurve"/>
			<point x="157" y="64"/>
			<point x="190" y="74"/>
			<point x="214" y="101"/>
			<point x="226" y="148"/>
			<point x="226" y="184" type="qcurve"/>
			<point x="226" y="693" type="line"/>
			<point x="316" y="693" type="line"/>
		</contour>
	</outline>
</glyph>
<glyph name="K" format="2">
  <advance width="500"/>
  <unicode hex="004B"/>
  <anchor x="259" y="693" name="top"/>
  <anchor x="259" y="0" name="bottom"/>
  <outline>
    <contour>
      <point x="83" y="0" type="line"/>
      <point x="172" y="0" type="line"/>
      <point x="172" y="321" type="line"/>
      <point x="258" y="245"/>
      <point x="339" y="118"/>
      <point x="389" y="0" type="curve"/>
      <point x="486" y="0" type="line"/>
      <point x="431" y="129"/>
      <point x="341" y="270"/>
      <point x="252" y="360" type="curve"/>
      <point x="328" y="464"/>
      <point x="400" y="579"/>
      <point x="463" y="693" type="curve"/>
      <point x="372" y="693" type="line"/>
      <point x="318" y="596"/>
      <point x="247" y="482"/>
      <point x="172" y="382" type="curve"/>
      <point x="172" y="693" type="line"/>
      <point x="83" y="693" type="line"/>
    </contour>
  </outline>
</glyph>
<glyph name="L" format="2">
  <advance width="421"/>
  <unicode hex="004C"/>
  <anchor x="211" y="693" name="top"/>
  <anchor x="211" y="0" name="bottom"/>
  <anchor x="211" y="347" name="center"/>
  <anchor x="398" y="693" name="topright"/>
  <outline>
    <contour>
      <point x="83" y="0" type="line"/>
      <point x="392" y="0" type="line"/>
      <point x="392" y="76" type="line"/>
      <point x="172" y="76" type="line"/>
      <point x="172" y="693" type="line"/>
      <point x="83" y="693" type="line"/>
    </contour>
  </outline>
</glyph>
<glyph name="M" format="2">
  <advance width="722"/>
  <unicode hex="004D"/>
  <anchor x="362" y="693" name="top"/>
  <anchor x="362" y="0" name="bottom"/>
  <outline>
    <contour>
      <point x="69" y="0" type="curve"/>
      <point x="155" y="0" type="line"/>
      <point x="158" y="169"/>
      <point x="163" y="374"/>
      <point x="174" y="555" type="curve"/>
      <point x="231" y="401"/>
      <point x="281" y="247"/>
      <point x="323" y="96" type="curve"/>
      <point x="400" y="96" type="line"/>
      <point x="441" y="248"/>
      <point x="491" y="401"/>
      <point x="548" y="555" type="curve"/>
      <point x="560" y="374"/>
      <point x="565" y="169"/>
      <point x="568" y="0" type="curve"/>
      <point x="653" y="0" type="line"/>
      <point x="648" y="233"/>
      <point x="634" y="493"/>
      <point x="618" y="693" type="curve"/>
      <point x="528" y="693" type="line"/>
      <point x="474" y="563"/>
      <point x="411" y="385"/>
      <point x="361" y="213" type="curve"/>
      <point x="312" y="385"/>
      <point x="248" y="563"/>
      <point x="195" y="693" type="curve"/>
      <point x="105" y="693" type="line"/>
      <point x="88" y="493"/>
      <point x="75" y="233"/>
    </contour>
  </outline>
</glyph>
<glyph name="N" format="2">
  <advance width="584"/>
  <unicode hex="004E"/>
  <anchor x="291" y="693" name="top"/>
  <anchor x="291" y="0" name="bottom"/>
  <outline>
    <contour>
      <point x="83" y="0" type="line"/>
      <point x="168" y="0" type="line"/>
      <point x="168" y="531" type="line"/>
      <point x="264" y="361"/>
      <point x="358" y="169"/>
      <point x="426" y="0" type="curve"/>
      <point x="502" y="0" type="line"/>
      <point x="502" y="693" type="line"/>
      <point x="417" y="693" type="line"/>
      <point x="417" y="197" type="line"/>
      <point x="345" y="362"/>
      <point x="249" y="545"/>
      <point x="160" y="693" type="curve"/>
      <point x="83" y="693" type="line"/>
    </contour>
  </outline>
</glyph>
<glyph name="O" format="2">
  <advance width="597"/>
  <unicode hex="004F"/>
  <anchor x="15" y="693" name="topleft"/>
  <anchor x="299" y="347" name="center"/>
  <anchor x="299" y="0" name="bottom"/>
  <anchor x="299" y="693" name="top"/>
  <anchor x="581" y="693" name="topright"/>
  <anchor x="541" y="10" name="ogonek"/>
  <outline>
    <contour>
      <point x="299" y="-11" type="curve" smooth="yes"/>
      <point x="453" y="-11"/>
      <point x="542" y="118"/>
      <point x="542" y="345" type="curve" smooth="yes"/>
      <point x="542" y="574"/>
      <point x="454" y="705"/>
      <point x="299" y="705" type="curve" smooth="yes"/>
      <point x="144" y="705"/>
      <point x="56" y="574"/>
      <point x="56" y="346" type="curve" smooth="yes"/>
      <point x="56" y="119"/>
      <point x="144" y="-11"/>
    </contour>
    <contour>
      <point x="299" y="67" type="curve" smooth="yes"/>
      <point x="200" y="67"/>
      <point x="150" y="162"/>
      <point x="150" y="346" type="curve" smooth="yes"/>
      <point x="150" y="531"/>
      <point x="199" y="626"/>
      <point x="299" y="626" type="curve" smooth="yes"/>
      <point x="398" y="626"/>
      <point x="448" y="531"/>
      <point x="448" y="345" type="curve" smooth="yes"/>
      <point x="448" y="161"/>
      <point x="398" y="67"/>
    </contour>
  </outline>
</glyph>
<glyph name="P" format="2">
  <advance width="486"/>
  <unicode hex="0050"/>
  <anchor x="242" y="693" name="top"/>
  <anchor x="242" y="0" name="bottom"/>
  <outline>
    <contour>
      <point x="83" y="0" type="line"/>
      <point x="172" y="0" type="line"/>
      <point x="172" y="258" type="line"/>
      <point x="218" y="258" type="line" smooth="yes"/>
      <point x="363" y="258"/>
      <point x="451" y="342"/>
      <point x="451" y="479" type="curve" smooth="yes"/>
      <point x="451" y="620"/>
      <point x="367" y="701"/>
      <point x="219" y="701" type="curve" smooth="yes"/>
      <point x="174" y="701"/>
      <point x="130" y="696"/>
      <point x="83" y="686" type="curve"/>
    </contour>
    <contour>
      <point x="172" y="335" type="line"/>
      <point x="172" y="618" type="line"/>
      <point x="186" y="621"/>
      <point x="205" y="623"/>
      <point x="219" y="623" type="curve" smooth="yes"/>
      <point x="312" y="623"/>
      <point x="359" y="575"/>
      <point x="359" y="479" type="curve" smooth="yes"/>
      <point x="359" y="381"/>
      <point x="313" y="335"/>
      <point x="218" y="335" type="curve" smooth="yes"/>
    </contour>
  </outline>
</glyph>
<glyph name="Q" format="2">
  <advance width="597"/>
  <unicode hex="0051"/>
  <anchor x="304" y="693" name="top"/>
  <anchor x="304" y="0" name="bottom"/>
  <outline>
    <contour>
      <point x="498" y="-175" type="curve"/>
      <point x="519" y="-105" type="line"/>
      <point x="418" y="-87"/>
      <point x="371" y="-60"/>
      <point x="359" y="-3" type="curve"/>
      <point x="477" y="26"/>
      <point x="542" y="150"/>
      <point x="542" y="345" type="curve" smooth="yes"/>
      <point x="542" y="574"/>
      <point x="454" y="705"/>
      <point x="299" y="705" type="curve" smooth="yes"/>
      <point x="144" y="705"/>
      <point x="56" y="574"/>
      <point x="56" y="346" type="curve" smooth="yes"/>
      <point x="56" y="131"/>
      <point x="135" y="2"/>
      <point x="275" y="-9" type="curve"/>
      <point x="297" y="-113"/>
      <point x="358" y="-153"/>
    </contour>
    <contour>
      <point x="299" y="67" type="curve" smooth="yes"/>
      <point x="200" y="67"/>
      <point x="150" y="162"/>
      <point x="150" y="346" type="curve" smooth="yes"/>
      <point x="150" y="531"/>
      <point x="199" y="626"/>
      <point x="299" y="626" type="curve" smooth="yes"/>
      <point x="398" y="626"/>
      <point x="448" y="531"/>
      <point x="448" y="345" type="curve" smooth="yes"/>
      <point x="448" y="161"/>
      <point x="398" y="67"/>
    </contour>
  </outline>
</glyph>
<glyph name="R" format="2">
  <advance width="511"/>
  <unicode hex="0052"/>
  <anchor x="256" y="693" name="top"/>
  <anchor x="256" y="0" name="bottom"/>
  <outline>
    <contour>
      <point x="83" y="0" type="line"/>
      <point x="172" y="0" type="line"/>
      <point x="172" y="270" type="line"/>
      <point x="217" y="270" type="line" smooth="yes"/>
      <point x="233" y="270"/>
      <point x="252" y="270"/>
      <point x="265" y="272" type="curve"/>
      <point x="313" y="194"/>
      <point x="357" y="98"/>
      <point x="392" y="0" type="curve"/>
      <point x="485" y="0" type="line"/>
      <point x="442" y="114"/>
      <point x="396" y="213"/>
      <point x="347" y="297" type="curve"/>
      <point x="412" y="334"/>
      <point x="448" y="399"/>
      <point x="448" y="484" type="curve" smooth="yes"/>
      <point x="448" y="625"/>
      <point x="367" y="701"/>
      <point x="221" y="701" type="curve" smooth="yes"/>
      <point x="170" y="701"/>
      <point x="125" y="694"/>
      <point x="83" y="685" type="curve"/>
    </contour>
    <contour>
      <point x="172" y="344" type="line"/>
      <point x="172" y="618" type="line"/>
      <point x="186" y="621"/>
      <point x="207" y="623"/>
      <point x="223" y="623" type="curve" smooth="yes"/>
      <point x="311" y="623"/>
      <point x="355" y="577"/>
      <point x="355" y="484" type="curve" smooth="yes"/>
      <point x="355" y="391"/>
      <point x="310" y="344"/>
      <point x="220" y="344" type="curve" smooth="yes"/>
    </contour>
  </outline>
</glyph>
<glyph name="S" format="2">
  <advance width="400"/>
  <unicode hex="0053"/>
  <anchor x="204" y="693" name="top"/>
  <anchor x="200" y="0" name="bottom"/>
  <outline>
    <contour>
      <point x="169" y="-12" type="curve" smooth="yes"/>
      <point x="294" y="-12"/>
      <point x="369" y="73"/>
      <point x="369" y="190" type="curve" smooth="yes"/>
      <point x="369" y="278"/>
      <point x="319" y="336"/>
      <point x="241" y="388" type="curve" smooth="yes"/>
      <point x="165" y="439"/>
      <point x="127" y="467"/>
      <point x="127" y="529" type="curve" smooth="yes"/>
      <point x="127" y="594"/>
      <point x="168" y="628"/>
      <point x="231" y="628" type="curve" smooth="yes"/>
      <point x="265" y="628"/>
      <point x="302" y="618"/>
      <point x="333" y="601" type="curve"/>
      <point x="359" y="673" type="line"/>
      <point x="320" y="693"/>
      <point x="274" y="705"/>
      <point x="226" y="705" type="curve" smooth="yes"/>
      <point x="109" y="705"/>
      <point x="36" y="627"/>
      <point x="36" y="520" type="curve" smooth="yes"/>
      <point x="36" y="432"/>
      <point x="88" y="381"/>
      <point x="162" y="332" type="curve" smooth="yes"/>
      <point x="234" y="285"/>
      <point x="278" y="248"/>
      <point x="278" y="175" type="curve" smooth="yes"/>
      <point x="278" y="106"/>
      <point x="236" y="65"/>
      <point x="166" y="65" type="curve" smooth="yes"/>
      <point x="125" y="65"/>
      <point x="82" y="80"/>
      <point x="48" y="103" type="curve"/>
      <point x="21" y="27" type="line"/>
      <point x="61" y="3"/>
      <point x="117" y="-12"/>
    </contour>
  </outline>
</glyph>
<glyph name="T" format="2">
  <advance width="432"/>
  <unicode hex="0054"/>
  <anchor x="216" y="693" name="top"/>
  <anchor x="216" y="347" name="center"/>
  <anchor x="216" y="0" name="bottom"/>
  <outline>
    <contour>
      <point x="171" y="0" type="line"/>
      <point x="260" y="0" type="line"/>
      <point x="260" y="617" type="line"/>
      <point x="414" y="617" type="line"/>
      <point x="414" y="693" type="line"/>
      <point x="18" y="693" type="line"/>
      <point x="18" y="617" type="line"/>
      <point x="171" y="617" type="line"/>
    </contour>
  </outline>
</glyph>
<glyph name="U" format="2">
  <advance width="545"/>
  <unicode hex="0055"/>
  <anchor x="273" y="693" name="top"/>
  <anchor x="492" y="10" name="ogonek"/>
  <anchor x="527" y="693" name="topright"/>
  <anchor x="273" y="0" name="bottom"/>
  <outline>
    <contour>
      <point x="273" y="-11" type="curve"/>
      <point x="406" y="-11"/>
      <point x="471" y="64"/>
      <point x="471" y="211" type="curve" smooth="yes"/>
      <point x="471" y="693" type="line"/>
      <point x="381" y="693" type="line"/>
      <point x="381" y="216" type="line" smooth="yes"/>
      <point x="381" y="114"/>
      <point x="348" y="68"/>
      <point x="273" y="68" type="curve"/>
      <point x="198" y="68"/>
      <point x="164" y="114"/>
      <point x="164" y="216" type="curve" smooth="yes"/>
      <point x="164" y="693" type="line"/>
      <point x="75" y="693" type="line"/>
      <point x="75" y="211" type="line" smooth="yes"/>
      <point x="75" y="64"/>
      <point x="140" y="-11"/>
    </contour>
  </outline>
</glyph>
<glyph name="V" format="2">
  <advance width="485"/>
  <unicode hex="0056"/>
  <anchor x="243" y="693" name="top"/>
  <anchor x="243" y="0" name="bottom"/>
  <outline>
    <contour>
      <point x="197" y="0" type="curve"/>
      <point x="290" y="0" type="line"/>
      <point x="369" y="244"/>
      <point x="430" y="476"/>
      <point x="467" y="693" type="curve"/>
      <point x="378" y="693" type="line"/>
      <point x="353" y="521"/>
      <point x="304" y="300"/>
      <point x="244" y="98" type="curve"/>
      <point x="182" y="308"/>
      <point x="135" y="527"/>
      <point x="111" y="693" type="curve"/>
      <point x="18" y="693" type="line"/>
      <point x="55" y="476"/>
      <point x="116" y="245"/>
    </contour>
  </outline>
</glyph>
<glyph name="W" format="2">
  <advance width="724"/>
  <unicode hex="0057"/>
  <anchor x="363" y="693" name="top"/>
  <anchor x="363" y="0" name="bottom"/>
  <outline>
    <contour>
      <point x="148" y="0" type="curve"/>
      <point x="241" y="0" type="line"/>
      <point x="285" y="141"/>
      <point x="327" y="309"/>
      <point x="362" y="479" type="curve"/>
      <point x="397" y="309"/>
      <point x="439" y="141"/>
      <point x="483" y="0" type="curve"/>
      <point x="575" y="0" type="line"/>
      <point x="631" y="206"/>
      <point x="676" y="495"/>
      <point x="693" y="693" type="curve"/>
      <point x="604" y="693" type="line"/>
      <point x="594" y="529"/>
      <point x="569" y="334"/>
      <point x="524" y="123" type="curve"/>
      <point x="475" y="293"/>
      <point x="437" y="461"/>
      <point x="407" y="611" type="curve"/>
      <point x="318" y="611" type="line"/>
      <point x="288" y="462"/>
      <point x="249" y="294"/>
      <point x="201" y="125" type="curve"/>
      <point x="156" y="335"/>
      <point x="131" y="530"/>
      <point x="121" y="693" type="curve"/>
      <point x="30" y="693" type="line"/>
      <point x="47" y="495"/>
      <point x="93" y="206"/>
    </contour>
  </outline>
</glyph>
<glyph name="X" format="2">
  <advance width="450"/>
  <unicode hex="0058"/>
  <anchor x="226" y="693" name="top"/>
  <anchor x="226" y="0" name="bottom"/>
  <outline>
    <contour>
      <point x="13" y="0" type="curve"/>
      <point x="103" y="0" type="line"/>
      <point x="135" y="94"/>
      <point x="170" y="178"/>
      <point x="224" y="292" type="curve"/>
      <point x="276" y="184"/>
      <point x="309" y="106"/>
      <point x="345" y="0" type="curve"/>
      <point x="437" y="0" type="line"/>
      <point x="397" y="113"/>
      <point x="355" y="214"/>
      <point x="282" y="365" type="curve"/>
      <point x="428" y="693" type="line"/>
      <point x="336" y="693" type="line"/>
      <point x="227" y="424" type="line"/>
      <point x="118" y="693" type="line"/>
      <point x="23" y="693" type="line"/>
      <point x="169" y="361" type="line"/>
      <point x="92" y="202"/>
      <point x="50" y="103"/>
    </contour>
  </outline>
</glyph>
<glyph name="Y" format="2">
  <advance width="447"/>
  <unicode hex="0059"/>
  <anchor x="17" y="693" name="topleft"/>
  <anchor x="224" y="693" name="top"/>
  <anchor x="224" y="0" name="bottom"/>
  <outline>
    <contour>
      <point x="179" y="0" type="line"/>
      <point x="268" y="0" type="line"/>
      <point x="268" y="268" type="line"/>
      <point x="330" y="395"/>
      <point x="398" y="562"/>
      <point x="442" y="693" type="curve"/>
      <point x="349" y="693" type="line"/>
      <point x="318" y="588"/>
      <point x="277" y="472"/>
      <point x="224" y="352" type="curve"/>
      <point x="171" y="472"/>
      <point x="130" y="588"/>
      <point x="99" y="693" type="curve"/>
      <point x="4" y="693" type="line"/>
      <point x="49" y="561"/>
      <point x="116" y="395"/>
      <point x="179" y="266" type="curve"/>
    </contour>
  </outline>
</glyph>
<glyph name="Z" format="2">
  <advance width="429"/>
  <unicode hex="005A"/>
  <anchor x="215" y="693" name="top"/>
  <anchor x="215" y="347" name="center"/>
  <anchor x="215" y="0" name="bottom"/>
  <outline>
    <contour>
      <point x="35" y="0" type="line"/>
      <point x="396" y="0" type="line"/>
      <point x="396" y="76" type="line"/>
      <point x="133" y="76" type="line"/>
      <point x="201" y="257"/>
      <point x="291" y="443"/>
      <point x="389" y="617" type="curve"/>
      <point x="389" y="693" type="line"/>
      <point x="48" y="693" type="line"/>
      <point x="48" y="617" type="line"/>
      <point x="296" y="617" type="line"/>
      <point x="196" y="435"/>
      <point x="109" y="247"/>
      <point x="35" y="58" type="curve"/>
    </contour>
  </outline>
</glyph>
<glyph name="bracketleft" format="2">
  <advance width="275"/>
  <unicode hex="005B"/>
  <outline>
    <contour>
      <point x="88" y="-185" type="line"/>
      <point x="269" y="-185" type="line"/>
      <point x="269" y="-119" type="line"/>
      <point x="168" y="-119" type="line"/>
      <point x="168" y="716" type="line"/>
      <point x="269" y="716" type="line"/>
      <point x="269" y="783" type="line"/>
      <point x="88" y="783" type="line"/>
    </contour>
  </outline>
</glyph>
<glyph name="backslash" format="2">
  <advance width="272"/>
  <unicode hex="005C"/>
  <outline>
    <contour>
      <point x="221" y="-185" type="line"/>
      <point x="300" y="-185" type="line"/>
      <point x="57" y="783" type="line"/>
      <point x="-22" y="783" type="line"/>
    </contour>
  </outline>
</glyph>
<glyph name="bracketright" format="2">
  <advance width="281"/>
  <unicode hex="005D"/>
  <outline>
    <contour>
      <point x="6" y="-185" type="line"/>
      <point x="187" y="-185" type="line"/>
      <point x="187" y="783" type="line"/>
      <point x="6" y="783" type="line"/>
      <point x="6" y="715" type="line"/>
      <point x="105" y="715" type="line"/>
      <point x="105" y="-117" type="line"/>
      <point x="6" y="-117" type="line"/>
    </contour>
  </outline>
</glyph>
<glyph name="asciicircum" format="2">
  <advance width="429"/>
  <unicode hex="005E"/>
  <outline>
    <contour>
      <point x="109" y="312" type="line"/>
      <point x="215" y="588" type="line"/>
      <point x="321" y="312" type="line"/>
      <point x="394" y="338" type="line"/>
      <point x="252" y="688" type="line"/>
      <point x="178" y="688" type="line"/>
      <point x="35" y="338" type="line"/>
    </contour>
  </outline>
</glyph>
<glyph name="grave" format="2">
  <advance width="290"/>
  <unicode hex="0060"/>
  <outline>
    <contour>
      <point x="178" y="587" type="line"/>
      <point x="222" y="626" type="line"/>
      <point x="103" y="780" type="line"/>
      <point x="43" y="728" type="line"/>
    </contour>
  </outline>
</glyph>
<glyph name="a" format="2">
  <advance width="431"/>
  <unicode hex="0061"/>
  <anchor x="213" y="522" name="top"/>
  <anchor x="389" y="10" name="ogonek"/>
  <anchor x="213" y="0" name="bottom"/>
  <outline>
    <contour>
      <point x="211" y="-8" type="curve" smooth="yes"/>
      <point x="255" y="-8"/>
      <point x="310" y="-1"/>
      <point x="360" y="14" type="curve"/>
      <point x="360" y="360" type="line" smooth="yes"/>
      <point x="360" y="483"/>
      <point x="293" y="538"/>
      <point x="192" y="538" type="curve" smooth="yes"/>
      <point x="155" y="538"/>
      <point x="112" y="530"/>
      <point x="78" y="518" type="curve"/>
      <point x="91" y="447" type="line"/>
      <point x="122" y="458"/>
      <point x="152" y="463"/>
      <point x="179" y="463" type="curve" smooth="yes"/>
      <point x="242" y="463"/>
      <point x="276" y="433"/>
      <point x="276" y="360" type="curve" smooth="yes"/>
      <point x="276" y="306" type="line"/>
      <point x="252" y="311"/>
      <point x="227" y="314"/>
      <point x="203" y="314" type="curve" smooth="yes"/>
      <point x="102" y="314"/>
      <point x="40" y="257"/>
      <point x="40" y="154" type="curve" smooth="yes"/>
      <point x="40" y="51"/>
      <point x="101" y="-8"/>
    </contour>
    <contour>
      <point x="216" y="59" type="curve" smooth="yes"/>
      <point x="157" y="59"/>
      <point x="124" y="92"/>
      <point x="124" y="156" type="curve" smooth="yes"/>
      <point x="124" y="219"/>
      <point x="156" y="251"/>
      <point x="216" y="251" type="curve" smooth="yes"/>
      <point x="236" y="251"/>
      <point x="257" y="248"/>
      <point x="276" y="242" type="curve"/>
      <point x="276" y="67" type="line"/>
      <point x="257" y="62"/>
      <point x="236" y="59"/>
    </contour>
  </outline>
</glyph>
<glyph name="b" format="2">
  <advance width="466"/>
  <unicode hex="0062"/>
  <anchor x="230" y="522" name="top"/>
  <anchor x="230" y="260" name="center"/>
  <anchor x="230" y="0" name="bottom"/>
  <outline>
    <contour>
      <point x="220" y="-10" type="curve" smooth="yes"/>
      <point x="358" y="-10"/>
      <point x="418" y="92"/>
      <point x="418" y="261" type="curve" smooth="yes"/>
      <point x="418" y="453"/>
      <point x="348" y="535"/>
      <point x="239" y="535" type="curve" smooth="yes"/>
      <point x="209" y="535"/>
      <point x="180" y="527"/>
      <point x="162" y="515" type="curve"/>
      <point x="162" y="776" type="line"/>
      <point x="76" y="761" type="line"/>
      <point x="76" y="14" type="line"/>
      <point x="123" y="-2"/>
      <point x="167" y="-10"/>
    </contour>
    <contour>
      <point x="218" y="64" type="curve" smooth="yes"/>
      <point x="196" y="64"/>
      <point x="176" y="69"/>
      <point x="162" y="75" type="curve"/>
      <point x="162" y="443" type="line"/>
      <point x="176" y="454"/>
      <point x="200" y="461"/>
      <point x="226" y="461" type="curve" smooth="yes"/>
      <point x="277" y="461"/>
      <point x="328" y="429"/>
      <point x="328" y="261" type="curve" smooth="yes"/>
      <point x="328" y="106"/>
      <point x="289" y="64"/>
    </contour>
  </outline>
</glyph>
<glyph name="c" format="2">
  <advance width="360"/>
  <unicode hex="0063"/>
  <anchor x="180" y="522" name="top"/>
  <anchor x="180" y="0" name="bottom"/>
  <outline>
    <contour>
      <point x="238" y="-11" type="curve" smooth="yes"/>
      <point x="279" y="-11"/>
      <point x="312" y="-5"/>
      <point x="340" y="10" type="curve"/>
      <point x="328" y="80" type="line"/>
      <point x="305" y="69"/>
      <point x="283" y="65"/>
      <point x="257" y="65" type="curve" smooth="yes"/>
      <point x="186" y="65"/>
      <point x="138" y="126"/>
      <point x="138" y="261" type="curve" smooth="yes"/>
      <point x="138" y="402"/>
      <point x="178" y="461"/>
      <point x="250" y="461" type="curve" smooth="yes"/>
      <point x="275" y="461"/>
      <point x="300" y="455"/>
      <point x="321" y="445" type="curve"/>
      <point x="338" y="517" type="line"/>
      <point x="309" y="531"/>
      <point x="276" y="538"/>
      <point x="239" y="538" type="curve" smooth="yes"/>
      <point x="118" y="538"/>
      <point x="48" y="437"/>
      <point x="48" y="261" type="curve" smooth="yes"/>
      <point x="48" y="87"/>
      <point x="117" y="-11"/>
    </contour>
  </outline>
</glyph>
<glyph name="d" format="2">
  <advance width="466"/>
  <unicode hex="0064"/>
  <anchor x="234" y="776" name="top"/>
  <anchor x="234" y="0" name="bottom"/>
  <anchor x="234" y="260" name="center"/>
  <anchor x="434" y="776" name="topright"/>
  <outline>
    <contour>
      <point x="247" y="-10" type="curve" smooth="yes"/>
      <point x="299" y="-10"/>
      <point x="342" y="-2"/>
      <point x="391" y="14" type="curve"/>
      <point x="391" y="776" type="line"/>
      <point x="305" y="761" type="line"/>
      <point x="305" y="515" type="line"/>
      <point x="286" y="527"/>
      <point x="257" y="535"/>
      <point x="227" y="535" type="curve" smooth="yes"/>
      <point x="118" y="535"/>
      <point x="48" y="453"/>
      <point x="48" y="261" type="curve" smooth="yes"/>
      <point x="48" y="92"/>
      <point x="109" y="-10"/>
    </contour>
    <contour>
      <point x="248" y="64" type="curve" smooth="yes"/>
      <point x="177" y="64"/>
      <point x="138" y="106"/>
      <point x="138" y="261" type="curve" smooth="yes"/>
      <point x="138" y="429"/>
      <point x="189" y="461"/>
      <point x="240" y="461" type="curve" smooth="yes"/>
      <point x="266" y="461"/>
      <point x="290" y="454"/>
      <point x="305" y="443" type="curve"/>
      <point x="305" y="75" type="line"/>
      <point x="290" y="69"/>
      <point x="271" y="64"/>
    </contour>
  </outline>
</glyph>
<glyph name="e" format="2">
  <advance width="437"/>
  <unicode hex="0065"/>
  <anchor x="220" y="522" name="top"/>
  <anchor x="391" y="10" name="ogonek"/>
  <anchor x="220" y="0" name="bottom"/>
  <outline>
    <contour>
      <point x="251" y="-12" type="curve" smooth="yes"/>
      <point x="294" y="-12"/>
      <point x="332" y="-4"/>
      <point x="370" y="14" type="curve"/>
      <point x="359" y="82" type="line"/>
      <point x="334" y="70"/>
      <point x="299" y="64"/>
      <point x="265" y="64" type="curve" smooth="yes"/>
      <point x="179" y="64"/>
      <point x="137" y="128"/>
      <point x="137" y="236" type="curve"/>
      <point x="388" y="236" type="line"/>
      <point x="389" y="253"/>
      <point x="390" y="272"/>
      <point x="390" y="287" type="curve" smooth="yes"/>
      <point x="390" y="446"/>
      <point x="330" y="538"/>
      <point x="227" y="538" type="curve" smooth="yes"/>
      <point x="116" y="538"/>
      <point x="48" y="436"/>
      <point x="48" y="260" type="curve" smooth="yes"/>
      <point x="48" y="87"/>
      <point x="123" y="-12"/>
    </contour>
    <contour>
      <point x="137" y="299" type="line"/>
      <point x="137" y="406"/>
      <point x="167" y="466"/>
      <point x="224" y="466" type="curve" smooth="yes"/>
      <point x="279" y="466"/>
      <point x="308" y="415"/>
      <point x="306" y="299" type="curve"/>
    </contour>
  </outline>
</glyph>
<glyph name="f" format="2">
  <advance width="301"/>
  <unicode hex="0066"/>
  <anchor x="152" y="776" name="top"/>
  <anchor x="152" y="0" name="bottom"/>
  <outline>
    <contour>
      <point x="76" y="0" type="line"/>
      <point x="162" y="0" type="line"/>
      <point x="162" y="452" type="line"/>
      <point x="295" y="452" type="line"/>
      <point x="295" y="525" type="line"/>
      <point x="162" y="525" type="line"/>
      <point x="162" y="599" type="line" smooth="yes"/>
      <point x="162" y="670"/>
      <point x="187" y="702"/>
      <point x="242" y="702" type="curve" smooth="yes"/>
      <point x="260" y="702"/>
      <point x="284" y="697"/>
      <point x="298" y="690" type="curve"/>
      <point x="315" y="761" type="line"/>
      <point x="295" y="769"/>
      <point x="261" y="776"/>
      <point x="229" y="776" type="curve" smooth="yes"/>
      <point x="128" y="776"/>
      <point x="76" y="716"/>
      <point x="76" y="593" type="curve" smooth="yes"/>
    </contour>
  </outline>
</glyph>
<glyph name="g" format="2">
  <advance width="466"/>
  <unicode hex="0067"/>
  <anchor x="233" y="522" name="top"/>
  <anchor x="233" y="-185" name="bottom"/>
  <outline>
    <contour>
      <point x="208" y="-188" type="curve" smooth="yes"/>
      <point x="331" y="-188"/>
      <point x="391" y="-114"/>
      <point x="391" y="21" type="curve" smooth="yes"/>
      <point x="391" y="511" type="line"/>
      <point x="342" y="527"/>
      <point x="299" y="535"/>
      <point x="247" y="535" type="curve" smooth="yes"/>
      <point x="109" y="535"/>
      <point x="48" y="440"/>
      <point x="48" y="280" type="curve" smooth="yes"/>
      <point x="48" y="99"/>
      <point x="118" y="23"/>
      <point x="226" y="23" type="curve" smooth="yes"/>
      <point x="257" y="23"/>
      <point x="285" y="31"/>
      <point x="305" y="43" type="curve"/>
      <point x="305" y="10" type="line" smooth="yes"/>
      <point x="305" y="-78"/>
      <point x="267" y="-114"/>
      <point x="196" y="-114" type="curve" smooth="yes"/>
      <point x="161" y="-114"/>
      <point x="127" y="-106"/>
      <point x="96" y="-90" type="curve"/>
      <point x="79" y="-162" type="line"/>
      <point x="115" y="-179"/>
      <point x="157" y="-188"/>
    </contour>
    <contour>
      <point x="240" y="97" type="curve" smooth="yes"/>
      <point x="189" y="97"/>
      <point x="138" y="127"/>
      <point x="138" y="280" type="curve" smooth="yes"/>
      <point x="138" y="421"/>
      <point x="180" y="461"/>
      <point x="246" y="461" type="curve" smooth="yes"/>
      <point x="270" y="461"/>
      <point x="290" y="457"/>
      <point x="305" y="450" type="curve"/>
      <point x="305" y="115" type="line"/>
      <point x="291" y="104"/>
      <point x="268" y="97"/>
    </contour>
  </outline>
</glyph>
<glyph name="h" format="2">
  <advance width="482"/>
  <unicode hex="0068"/>
  <outline>
    <contour>
      <point x="164" y="0" type="line"/>
      <point x="164" y="450" type="line"/>
      <point x="189" y="457"/>
      <point x="211" y="460"/>
      <point x="229" y="460" type="curve" smooth="yes"/>
      <point x="302" y="460"/>
      <point x="324" y="413"/>
      <point x="324" y="310" type="curve" smooth="yes"/>
      <point x="324" y="0" type="line"/>
      <point x="410" y="0" type="line"/>
      <point x="410" y="317" type="line" smooth="yes"/>
      <point x="410" y="486"/>
      <point x="339" y="536"/>
      <point x="251" y="536" type="curve" smooth="yes"/>
      <point x="220" y="536"/>
      <point x="189" y="530"/>
      <point x="164" y="522" type="curve"/>
      <point x="164" y="776" type="line"/>
      <point x="78" y="761" type="line"/>
      <point x="78" y="0" type="line"/>
    </contour>
  </outline>
</glyph>
<glyph name="i" format="2">
  <advance width="237"/>
  <unicode hex="0069"/>
  <anchor x="119" y="0" name="bottom"/>
  <outline>
    <contour>
      <point x="76" y="0" type="line"/>
      <point x="162" y="0" type="line"/>
      <point x="162" y="525" type="line"/>
      <point x="76" y="525" type="line"/>
    </contour>
    <contour>
      <point x="119" y="617" type="curve" smooth="yes"/>
      <point x="150" y="617"/>
      <point x="175" y="640"/>
      <point x="175" y="674" type="curve" smooth="yes"/>
      <point x="175" y="708"/>
      <point x="150" y="732"/>
      <point x="119" y="732" type="curve" smooth="yes"/>
      <point x="87" y="732"/>
      <point x="63" y="708"/>
      <point x="63" y="674" type="curve" smooth="yes"/>
      <point x="63" y="640"/>
      <point x="87" y="617"/>
    </contour>
  </outline>
</glyph>
<glyph name="j" format="2">
  <advance width="237"/>
  <unicode hex="006A"/>
  <outline>
    <contour>
      <point x="25" y="-188" type="curve" smooth="yes"/>
      <point x="124" y="-188"/>
      <point x="162" y="-116"/>
      <point x="162" y="-30" type="curve" smooth="yes"/>
      <point x="162" y="525" type="line"/>
      <point x="76" y="525" type="line"/>
      <point x="76" y="-25" type="line" smooth="yes"/>
      <point x="76" y="-77"/>
      <point x="63" y="-112"/>
      <point x="15" y="-112" type="curve" smooth="yes"/>
      <point x="4" y="-112"/>
      <point x="-10" y="-110"/>
      <point x="-23" y="-107" type="curve"/>
      <point x="-35" y="-178" type="line"/>
      <point x="-15" y="-184"/>
      <point x="4" y="-188"/>
    </contour>
    <contour>
      <point x="119" y="617" type="curve" smooth="yes"/>
      <point x="151" y="617"/>
      <point x="175" y="641"/>
      <point x="175" y="674" type="curve" smooth="yes"/>
      <point x="175" y="707"/>
      <point x="151" y="732"/>
      <point x="119" y="732" type="curve" smooth="yes"/>
      <point x="86" y="732"/>
      <point x="63" y="707"/>
      <point x="63" y="674" type="curve" smooth="yes"/>
      <point x="63" y="641"/>
      <point x="86" y="617"/>
    </contour>
  </outline>
</glyph>
<glyph name="k" format="2">
  <advance width="407"/>
  <unicode hex="006B"/>
  <anchor x="213" y="776" name="top"/>
  <anchor x="213" y="0" name="bottom"/>
  <outline>
    <contour>
      <point x="76" y="0" type="line"/>
      <point x="162" y="0" type="line"/>
      <point x="162" y="249" type="line"/>
      <point x="223" y="187"/>
      <point x="276" y="90"/>
      <point x="312" y="0" type="curve"/>
      <point x="404" y="0" type="line"/>
      <point x="366" y="99"/>
      <point x="300" y="212"/>
      <point x="233" y="280" type="curve"/>
      <point x="286" y="349"/>
      <point x="342" y="437"/>
      <point x="391" y="525" type="curve"/>
      <point x="299" y="525" type="line"/>
      <point x="262" y="455"/>
      <point x="211" y="368"/>
      <point x="162" y="301" type="curve"/>
      <point x="162" y="776" type="line"/>
      <point x="76" y="761" type="line"/>
    </contour>
  </outline>
</glyph>
<glyph name="l" format="2">
  <advance width="244"/>
  <unicode hex="006C"/>
  <anchor x="119" y="776" name="top"/>
  <anchor x="119" y="0" name="bottom"/>
  <anchor x="119" y="388" name="center"/>
  <anchor x="221" y="776" name="topright"/>
  <outline>
    <contour>
      <point x="215" y="-8" type="curve"/>
      <point x="225" y="63" type="line"/>
      <point x="178" y="69"/>
      <point x="160" y="91"/>
      <point x="160" y="139" type="curve" smooth="yes"/>
      <point x="160" y="776" type="line"/>
      <point x="74" y="761" type="line"/>
      <point x="74" y="139" type="line" smooth="yes"/>
      <point x="74" y="47"/>
      <point x="121" y="-2"/>
    </contour>
  </outline>
</glyph>
<glyph name="m" format="2">
  <advance width="693"/>
  <unicode hex="006D"/>
  <anchor x="354" y="522" name="top"/>
  <anchor x="354" y="0" name="bottom"/>
  <outline>
    <contour>
      <point x="76" y="0" type="line"/>
      <point x="162" y="0" type="line"/>
      <point x="162" y="449" type="line"/>
      <point x="180" y="456"/>
      <point x="202" y="460"/>
      <point x="219" y="460" type="curve" smooth="yes"/>
      <point x="284" y="460"/>
      <point x="306" y="428"/>
      <point x="306" y="326" type="curve" smooth="yes"/>
      <point x="306" y="0" type="line"/>
      <point x="392" y="0" type="line"/>
      <point x="392" y="332" type="line" smooth="yes"/>
      <point x="392" y="372"/>
      <point x="388" y="404"/>
      <point x="378" y="433" type="curve"/>
      <point x="399" y="450"/>
      <point x="423" y="460"/>
      <point x="451" y="460" type="curve" smooth="yes"/>
      <point x="513" y="460"/>
      <point x="536" y="426"/>
      <point x="536" y="326" type="curve" smooth="yes"/>
      <point x="536" y="0" type="line"/>
      <point x="622" y="0" type="line"/>
      <point x="622" y="332" type="line" smooth="yes"/>
      <point x="622" y="470"/>
      <point x="572" y="535"/>
      <point x="460" y="535" type="curve" smooth="yes"/>
      <point x="418" y="535"/>
      <point x="377" y="520"/>
      <point x="341" y="493" type="curve"/>
      <point x="314" y="521"/>
      <point x="275" y="535"/>
      <point x="223" y="535" type="curve" smooth="yes"/>
      <point x="171" y="535"/>
      <point x="123" y="524"/>
      <point x="76" y="510" type="curve"/>
    </contour>
  </outline>
</glyph>
<glyph name="n" format="2">
  <advance width="482"/>
  <unicode hex="006E"/>
  <anchor x="241" y="0" name="bottom"/>
  <anchor x="241" y="520" name="top"/>
  <outline>
    <contour>
      <point x="78" y="0" type="line"/>
      <point x="164" y="0" type="line"/>
      <point x="164" y="450" type="line"/>
      <point x="189" y="457"/>
      <point x="211" y="460"/>
      <point x="229" y="460" type="curve" smooth="yes"/>
      <point x="302" y="460"/>
      <point x="324" y="413"/>
      <point x="324" y="310" type="curve" smooth="yes"/>
      <point x="324" y="0" type="line"/>
      <point x="410" y="0" type="line"/>
      <point x="410" y="317" type="line" smooth="yes"/>
      <point x="410" y="486"/>
      <point x="341" y="536"/>
      <point x="237" y="536" type="curve" smooth="yes"/>
      <point x="189" y="536"/>
      <point x="127" y="525"/>
      <point x="78" y="510" type="curve"/>
    </contour>
  </outline>
</glyph>
<glyph name="o" format="2">
  <advance width="463"/>
  <unicode hex="006F"/>
  <anchor x="232" y="0" name="bottom"/>
  <anchor x="232" y="522" name="top"/>
  <anchor x="417" y="10" name="ogonek"/>
  <anchor x="443" y="522" name="topright"/>
  <anchor x="232" y="260" name="center"/>
  <outline>
    <contour>
      <point x="232" y="-12" type="curve" smooth="yes"/>
      <point x="348" y="-12"/>
      <point x="415" y="88"/>
      <point x="415" y="263" type="curve" smooth="yes"/>
      <point x="415" y="437"/>
      <point x="348" y="538"/>
      <point x="232" y="538" type="curve" smooth="yes"/>
      <point x="115" y="538"/>
      <point x="48" y="437"/>
      <point x="48" y="263" type="curve" smooth="yes"/>
      <point x="48" y="88"/>
      <point x="115" y="-12"/>
    </contour>
    <contour>
      <point x="232" y="64" type="curve" smooth="yes"/>
      <point x="171" y="64"/>
      <point x="138" y="129"/>
      <point x="138" y="263" type="curve" smooth="yes"/>
      <point x="138" y="396"/>
      <point x="171" y="462"/>
      <point x="232" y="462" type="curve" smooth="yes"/>
      <point x="293" y="462"/>
      <point x="326" y="396"/>
      <point x="326" y="263" type="curve" smooth="yes"/>
      <point x="326" y="129"/>
      <point x="293" y="64"/>
    </contour>
  </outline>
</glyph>
<glyph name="p" format="2">
  <advance width="466"/>
  <unicode hex="0070"/>
  <anchor x="238" y="522" name="top"/>
  <anchor x="238" y="0" name="bottom"/>
  <outline>
    <contour>
      <point x="76" y="-185" type="line"/>
      <point x="162" y="-185" type="line"/>
      <point x="162" y="10" type="line"/>
      <point x="180" y="-1"/>
      <point x="209" y="-10"/>
      <point x="239" y="-10" type="curve" smooth="yes"/>
      <point x="348" y="-10"/>
      <point x="418" y="72"/>
      <point x="418" y="265" type="curve" smooth="yes"/>
      <point x="418" y="434"/>
      <point x="357" y="535"/>
      <point x="220" y="535" type="curve" smooth="yes"/>
      <point x="167" y="535"/>
      <point x="123" y="527"/>
      <point x="76" y="511" type="curve"/>
    </contour>
    <contour>
      <point x="226" y="64" type="curve" smooth="yes"/>
      <point x="200" y="64"/>
      <point x="176" y="72"/>
      <point x="162" y="83" type="curve"/>
      <point x="162" y="451" type="line"/>
      <point x="176" y="457"/>
      <point x="196" y="461"/>
      <point x="218" y="461" type="curve" smooth="yes"/>
      <point x="289" y="461"/>
      <point x="328" y="420"/>
      <point x="328" y="265" type="curve" smooth="yes"/>
      <point x="328" y="96"/>
      <point x="277" y="64"/>
    </contour>
  </outline>
</glyph>
<glyph name="q" format="2">
  <advance width="466"/>
  <unicode hex="0071"/>
  <anchor x="223" y="522" name="top"/>
  <anchor x="223" y="0" name="bottom"/>
  <outline>
    <contour>
      <point x="305" y="-185" type="line"/>
      <point x="391" y="-185" type="line"/>
      <point x="391" y="511" type="line"/>
      <point x="342" y="527"/>
      <point x="299" y="535"/>
      <point x="247" y="535" type="curve" smooth="yes"/>
      <point x="109" y="535"/>
      <point x="48" y="434"/>
      <point x="48" y="265" type="curve" smooth="yes"/>
      <point x="48" y="72"/>
      <point x="118" y="-10"/>
      <point x="227" y="-10" type="curve" smooth="yes"/>
      <point x="257" y="-10"/>
      <point x="286" y="-1"/>
      <point x="305" y="10" type="curve"/>
    </contour>
    <contour>
      <point x="240" y="64" type="curve" smooth="yes"/>
      <point x="189" y="64"/>
      <point x="138" y="96"/>
      <point x="138" y="265" type="curve" smooth="yes"/>
      <point x="138" y="420"/>
      <point x="177" y="461"/>
      <point x="248" y="461" type="curve" smooth="yes"/>
      <point x="271" y="461"/>
      <point x="290" y="457"/>
      <point x="305" y="451" type="curve"/>
      <point x="305" y="83" type="line"/>
      <point x="290" y="72"/>
      <point x="266" y="64"/>
    </contour>
  </outline>
</glyph>
<glyph name="r" format="2">
  <advance width="326"/>
  <unicode hex="0072"/>
  <anchor x="165" y="522" name="top"/>
  <anchor x="165" y="0" name="bottom"/>
  <outline>
    <contour>
      <point x="76" y="0" type="line"/>
      <point x="162" y="0" type="line"/>
      <point x="162" y="446" type="line"/>
      <point x="183" y="456"/>
      <point x="207" y="460"/>
      <point x="237" y="460" type="curve" smooth="yes"/>
      <point x="261" y="460"/>
      <point x="284" y="457"/>
      <point x="303" y="450" type="curve"/>
      <point x="319" y="522" type="line"/>
      <point x="298" y="530"/>
      <point x="265" y="535"/>
      <point x="229" y="535" type="curve" smooth="yes"/>
      <point x="175" y="535"/>
      <point x="116" y="522"/>
      <point x="76" y="501" type="curve"/>
    </contour>
  </outline>
</glyph>
<glyph name="s" format="2">
  <advance width="347"/>
  <unicode hex="0073"/>
  <anchor x="173" y="522" name="top"/>
  <anchor x="173" y="0" name="bottom"/>
  <outline>
    <contour>
      <point x="154" y="-12" type="curve" smooth="yes"/>
      <point x="250" y="-12"/>
      <point x="314" y="52"/>
      <point x="314" y="142" type="curve" smooth="yes"/>
      <point x="314" y="208"/>
      <point x="282" y="252"/>
      <point x="215" y="293" type="curve" smooth="yes"/>
      <point x="154" y="330"/>
      <point x="130" y="355"/>
      <point x="130" y="398" type="curve" smooth="yes"/>
      <point x="130" y="441"/>
      <point x="156" y="466"/>
      <point x="201" y="466" type="curve" smooth="yes"/>
      <point x="227" y="466"/>
      <point x="255" y="460"/>
      <point x="283" y="449" type="curve"/>
      <point x="297" y="518" type="line"/>
      <point x="275" y="528"/>
      <point x="236" y="538"/>
      <point x="196" y="538" type="curve" smooth="yes"/>
      <point x="104" y="538"/>
      <point x="46" y="476"/>
      <point x="46" y="390" type="curve" smooth="yes"/>
      <point x="46" y="325"/>
      <point x="75" y="281"/>
      <point x="143" y="241" type="curve" smooth="yes"/>
      <point x="210" y="201"/>
      <point x="227" y="177"/>
      <point x="227" y="134" type="curve" smooth="yes"/>
      <point x="227" y="91"/>
      <point x="197" y="60"/>
      <point x="148" y="60" type="curve" smooth="yes"/>
      <point x="119" y="60"/>
      <point x="81" y="69"/>
      <point x="51" y="84" type="curve"/>
      <point x="35" y="14" type="line"/>
      <point x="63" y="0"/>
      <point x="108" y="-12"/>
    </contour>
  </outline>
</glyph>
<glyph name="t" format="2">
  <advance width="320"/>
  <unicode hex="0074"/>
  <anchor x="165" y="522" name="top"/>
  <anchor x="165" y="0" name="bottom"/>
  <anchor x="165" y="260" name="center"/>
  <anchor x="301" y="776" name="topright"/>
  <outline>
    <contour>
      <point x="216" y="-9" type="curve" smooth="yes"/>
      <point x="247" y="-9"/>
      <point x="282" y="-1"/>
      <point x="305" y="13" type="curve"/>
      <point x="292" y="80" type="line"/>
      <point x="271" y="71"/>
      <point x="252" y="67"/>
      <point x="230" y="67" type="curve" smooth="yes"/>
      <point x="182" y="67"/>
      <point x="158" y="97"/>
      <point x="158" y="165" type="curve" smooth="yes"/>
      <point x="158" y="452" type="line"/>
      <point x="291" y="452" type="line"/>
      <point x="291" y="525" type="line"/>
      <point x="158" y="525" type="line"/>
      <point x="158" y="681" type="line"/>
      <point x="71" y="666" type="line"/>
      <point x="71" y="169" type="line" smooth="yes"/>
      <point x="71" y="44"/>
      <point x="124" y="-9"/>
    </contour>
  </outline>
</glyph>
<glyph name="u" format="2">
  <advance width="478"/>
  <unicode hex="0075"/>
  <anchor x="238" y="522" name="top"/>
  <anchor x="433" y="10" name="ogonek"/>
  <anchor x="461" y="522" name="topright"/>
  <anchor x="238" y="0" name="bottom"/>
  <outline>
    <contour>
      <point x="249" y="-10" type="curve" smooth="yes"/>
      <point x="303" y="-10"/>
      <point x="353" y="0"/>
      <point x="403" y="15" type="curve"/>
      <point x="403" y="525" type="line"/>
      <point x="317" y="525" type="line"/>
      <point x="317" y="76" type="line"/>
      <point x="296" y="68"/>
      <point x="272" y="64"/>
      <point x="252" y="64" type="curve" smooth="yes"/>
      <point x="182" y="64"/>
      <point x="156" y="104"/>
      <point x="156" y="211" type="curve" smooth="yes"/>
      <point x="156" y="525" type="line"/>
      <point x="70" y="525" type="line"/>
      <point x="70" y="205" type="line" smooth="yes"/>
      <point x="70" y="58"/>
      <point x="125" y="-10"/>
    </contour>
  </outline>
</glyph>
<glyph name="v" format="2">
	<unicode hex="0076"/>
	<advance width="397"/>
	<outline>
		<contour>
			<point x="200" y="101" type="qcurve"/>
			<point x="212" y="141"/>
			<point x="239" y="249"/>
			<point x="265" y="364"/>
			<point x="288" y="478"/>
			<point x="296" y="525" type="qcurve"/>
			<point x="382" y="525" type="line"/>
			<point x="369" y="459"/>
			<point x="334" y="313"/>
			<point x="297" y="172"/>
			<point x="259" y="46"/>
			<point x="243" y="0" type="qcurve"/>
			<point x="154" y="0" type="line"/>
			<point x="138" y="46"/>
			<point x="100" y="172"/>
			<point x="63" y="313"/>
			<point x="28" y="459"/>
			<point x="15" y="525" type="qcurve"/>
			<point x="106" y="525" type="line"/>
			<point x="114" y="478"/>
			<point x="137" y="364"/>
			<point x="162" y="249"/>
			<point x="188" y="141"/>
		</contour>
	</outline>
	<guideline x="769"/>
</glyph>
<glyph name="w" format="2">
  <advance width="579"/>
  <unicode hex="0077"/>
  <anchor x="289" y="522" name="top"/>
  <anchor x="289" y="0" name="bottom"/>
  <outline>
    <contour>
      <point x="124" y="0" type="curve"/>
      <point x="211" y="0" type="line"/>
      <point x="241" y="100"/>
      <point x="272" y="221"/>
      <point x="291" y="350" type="curve"/>
      <point x="312" y="221"/>
      <point x="339" y="100"/>
      <point x="369" y="0" type="curve"/>
      <point x="455" y="0" type="line"/>
      <point x="498" y="145"/>
      <point x="539" y="343"/>
      <point x="561" y="525" type="curve"/>
      <point x="477" y="525" type="line"/>
      <point x="467" y="415"/>
      <point x="442" y="266"/>
      <point x="402" y="99" type="curve"/>
      <point x="360" y="263"/>
      <point x="342" y="412"/>
      <point x="332" y="525" type="curve"/>
      <point x="253" y="525" type="line"/>
      <point x="244" y="412"/>
      <point x="221" y="263"/>
      <point x="176" y="99" type="curve"/>
      <point x="136" y="267"/>
      <point x="115" y="415"/>
      <point x="105" y="525" type="curve"/>
      <point x="17" y="525" type="line"/>
      <point x="40" y="343"/>
      <point x="80" y="145"/>
    </contour>
  </outline>
</glyph>
<glyph name="x" format="2">
  <advance width="386"/>
  <unicode hex="0078"/>
  <anchor x="192" y="522" name="top"/>
  <anchor x="192" y="0" name="bottom"/>
  <outline>
    <contour>
      <point x="13" y="0" type="curve"/>
      <point x="98" y="0" type="line"/>
      <point x="117" y="63"/>
      <point x="151" y="135"/>
      <point x="191" y="210" type="curve"/>
      <point x="232" y="132"/>
      <point x="261" y="65"/>
      <point x="283" y="0" type="curve"/>
      <point x="373" y="0" type="line"/>
      <point x="343" y="80"/>
      <point x="305" y="162"/>
      <point x="246" y="274" type="curve"/>
      <point x="365" y="525" type="line"/>
      <point x="279" y="525" type="line"/>
      <point x="196" y="337" type="line"/>
      <point x="112" y="525" type="line"/>
      <point x="21" y="525" type="line"/>
      <point x="140" y="274" type="line"/>
      <point x="82" y="163"/>
      <point x="43" y="80"/>
    </contour>
  </outline>
</glyph>
<glyph name="y" format="2">
  <advance width="397"/>
  <unicode hex="0079"/>
  <anchor x="197" y="522" name="top"/>
  <anchor x="197" y="0" name="bottom"/>
  <outline>
    <contour>
      <point x="67" y="-188" type="curve" smooth="yes"/>
      <point x="147" y="-188"/>
      <point x="196" y="-137"/>
      <point x="248" y="4" type="curve" smooth="yes"/>
      <point x="302" y="150"/>
      <point x="348" y="332"/>
      <point x="384" y="525" type="curve"/>
      <point x="297" y="525" type="line"/>
      <point x="278" y="392"/>
      <point x="242" y="225"/>
      <point x="203" y="98" type="curve"/>
      <point x="164" y="217"/>
      <point x="124" y="393"/>
      <point x="107" y="525" type="curve"/>
      <point x="18" y="525" type="line"/>
      <point x="51" y="345"/>
      <point x="93" y="176"/>
      <point x="160" y="-4" type="curve"/>
      <point x="127" y="-87"/>
      <point x="95" y="-114"/>
      <point x="63" y="-114" type="curve" smooth="yes"/>
      <point x="48" y="-114"/>
      <point x="31" y="-111"/>
      <point x="18" y="-105" type="curve"/>
      <point x="4" y="-174" type="line"/>
      <point x="16" y="-182"/>
      <point x="39" y="-188"/>
    </contour>
  </outline>
</glyph>
<glyph name="z" format="2">
  <advance width="346"/>
  <unicode hex="007A"/>
  <anchor x="176" y="522" name="top"/>
  <anchor x="173" y="260" name="center"/>
  <anchor x="173" y="0" name="bottom"/>
  <outline>
    <contour>
      <point x="33" y="0" type="line"/>
      <point x="317" y="0" type="line"/>
      <point x="317" y="72" type="line"/>
      <point x="124" y="72" type="line"/>
      <point x="179" y="209"/>
      <point x="248" y="347"/>
      <point x="311" y="457" type="curve"/>
      <point x="311" y="525" type="line"/>
      <point x="45" y="525" type="line"/>
      <point x="45" y="452" type="line"/>
      <point x="219" y="452" type="line"/>
      <point x="150" y="327"/>
      <point x="81" y="186"/>
      <point x="33" y="61" type="curve"/>
    </contour>
  </outline>
</glyph>
<glyph name="braceleft" format="2">
  <advance width="264"/>
  <unicode hex="007B"/>
  <outline>
    <contour>
      <point x="252" y="-185" type="curve" smooth="yes"/>
      <point x="258" y="-185" type="line"/>
      <point x="258" y="-116" type="line"/>
      <point x="252" y="-116" type="line" smooth="yes"/>
      <point x="207" y="-116"/>
      <point x="181" y="-92"/>
      <point x="181" y="-31" type="curve" smooth="yes"/>
      <point x="181" y="156" type="line" smooth="yes"/>
      <point x="181" y="229"/>
      <point x="159" y="274"/>
      <point x="114" y="298" type="curve"/>
      <point x="159" y="322"/>
      <point x="181" y="368"/>
      <point x="181" y="443" type="curve" smooth="yes"/>
      <point x="181" y="630" type="line" smooth="yes"/>
      <point x="181" y="691"/>
      <point x="206" y="714"/>
      <point x="252" y="714" type="curve" smooth="yes"/>
      <point x="258" y="714" type="line"/>
      <point x="258" y="783" type="line"/>
      <point x="252" y="783" type="line" smooth="yes"/>
      <point x="153" y="783"/>
      <point x="102" y="739"/>
      <point x="102" y="631" type="curve" smooth="yes"/>
      <point x="102" y="454" type="line" smooth="yes"/>
      <point x="102" y="377"/>
      <point x="80" y="338"/>
      <point x="36" y="334" type="curve"/>
      <point x="36" y="265" type="line"/>
      <point x="79" y="260"/>
      <point x="102" y="221"/>
      <point x="102" y="143" type="curve" smooth="yes"/>
      <point x="102" y="-32" type="line" smooth="yes"/>
      <point x="102" y="-141"/>
      <point x="153" y="-185"/>
    </contour>
  </outline>
</glyph>
<glyph name="bar" format="2">
  <advance width="269"/>
  <unicode hex="007C"/>
  <outline>
    <contour>
      <point x="94" y="-185" type="line"/>
      <point x="175" y="-185" type="line"/>
      <point x="175" y="783" type="line"/>
      <point x="94" y="783" type="line"/>
    </contour>
  </outline>
</glyph>
<glyph name="braceright" format="2">
  <advance width="264"/>
  <unicode hex="007D"/>
  <outline>
    <contour>
      <point x="6" y="-185" type="line"/>
      <point x="12" y="-185" type="line" smooth="yes"/>
      <point x="111" y="-185"/>
      <point x="162" y="-141"/>
      <point x="162" y="-32" type="curve" smooth="yes"/>
      <point x="162" y="144" type="line" smooth="yes"/>
      <point x="162" y="221"/>
      <point x="185" y="261"/>
      <point x="229" y="265" type="curve"/>
      <point x="229" y="334" type="line"/>
      <point x="185" y="338"/>
      <point x="162" y="377"/>
      <point x="162" y="455" type="curve" smooth="yes"/>
      <point x="162" y="631" type="line" smooth="yes"/>
      <point x="162" y="739"/>
      <point x="111" y="783"/>
      <point x="12" y="783" type="curve" smooth="yes"/>
      <point x="6" y="783" type="line"/>
      <point x="6" y="714" type="line"/>
      <point x="12" y="714" type="line" smooth="yes"/>
      <point x="58" y="714"/>
      <point x="83" y="691"/>
      <point x="83" y="630" type="curve" smooth="yes"/>
      <point x="83" y="443" type="line" smooth="yes"/>
      <point x="83" y="369"/>
      <point x="105" y="324"/>
      <point x="150" y="300" type="curve"/>
      <point x="105" y="276"/>
      <point x="83" y="231"/>
      <point x="83" y="156" type="curve" smooth="yes"/>
      <point x="83" y="-31" type="line" smooth="yes"/>
      <point x="83" y="-92"/>
      <point x="58" y="-116"/>
      <point x="12" y="-116" type="curve" smooth="yes"/>
      <point x="6" y="-116" type="line"/>
    </contour>
  </outline>
</glyph>
<glyph name="asciitilde" format="2">
  <advance width="429"/>
  <unicode hex="007E"/>
  <outline>
    <contour>
      <point x="292" y="222" type="curve" smooth="yes"/>
      <point x="353" y="222"/>
      <point x="389" y="270"/>
      <point x="405" y="359" type="curve"/>
      <point x="345" y="377" type="line"/>
      <point x="334" y="310"/>
      <point x="308" y="301"/>
      <point x="289" y="301" type="curve" smooth="yes"/>
      <point x="246" y="301"/>
      <point x="204" y="379"/>
      <point x="138" y="379" type="curve" smooth="yes"/>
      <point x="77" y="379"/>
      <point x="41" y="331"/>
      <point x="25" y="241" type="curve"/>
      <point x="85" y="224" type="line"/>
      <point x="96" y="290"/>
      <point x="121" y="299"/>
      <point x="141" y="299" type="curve" smooth="yes"/>
      <point x="184" y="299"/>
      <point x="226" y="222"/>
    </contour>
  </outline>
</glyph>
<glyph name="exclamdown" format="2">
  <advance width="261"/>
  <unicode hex="00A1"/>
  <outline>
    <contour>
      <point x="89" y="-174" type="line"/>
      <point x="181" y="-174" type="line"/>
      <point x="181" y="13" type="line" smooth="yes"/>
      <point x="181" y="107"/>
      <point x="172" y="224"/>
      <point x="158" y="316" type="curve"/>
      <point x="111" y="316" type="line"/>
      <point x="97" y="224"/>
      <point x="89" y="107"/>
      <point x="89" y="13" type="curve" smooth="yes"/>
    </contour>
    <contour>
      <point x="135" y="408" type="curve" smooth="yes"/>
      <point x="171" y="408"/>
      <point x="193" y="436"/>
      <point x="193" y="469" type="curve" smooth="yes"/>
      <point x="193" y="500"/>
      <point x="171" y="528"/>
      <point x="135" y="528" type="curve" smooth="yes"/>
      <point x="100" y="528"/>
      <point x="76" y="500"/>
      <point x="76" y="469" type="curve" smooth="yes"/>
      <point x="76" y="436"/>
      <point x="100" y="408"/>
    </contour>
  </outline>
</glyph>
<glyph name="cent" format="2">
  <advance width="423"/>
  <unicode hex="00A2"/>
  <outline>
    <contour>
      <point x="204" y="-100" type="line"/>
      <point x="283" y="-100" type="line"/>
      <point x="283" y="32" type="line"/>
      <point x="310" y="33"/>
      <point x="338" y="39"/>
      <point x="361" y="52" type="curve"/>
      <point x="349" y="122" type="line"/>
      <point x="326" y="112"/>
      <point x="304" y="107"/>
      <point x="276" y="107" type="curve" smooth="yes"/>
      <point x="204" y="107"/>
      <point x="157" y="166"/>
      <point x="157" y="294" type="curve" smooth="yes"/>
      <point x="157" y="427"/>
      <point x="197" y="484"/>
      <point x="270" y="484" type="curve" smooth="yes"/>
      <point x="296" y="484"/>
      <point x="320" y="478"/>
      <point x="342" y="467" type="curve"/>
      <point x="359" y="539" type="line"/>
      <point x="336" y="550"/>
      <point x="310" y="557"/>
      <point x="283" y="559" type="curve"/>
      <point x="283" y="685" type="line"/>
      <point x="204" y="685" type="line"/>
      <point x="204" y="551" type="line"/>
      <point x="116" y="527"/>
      <point x="67" y="437"/>
      <point x="67" y="294" type="curve" smooth="yes"/>
      <point x="67" y="152"/>
      <point x="115" y="62"/>
      <point x="204" y="39" type="curve"/>
    </contour>
  </outline>
</glyph>
<glyph name="sterling" format="2">
  <advance width="423"/>
  <unicode hex="00A3"/>
  <outline>
    <contour>
      <point x="69" y="0" type="curve"/>
      <point x="386" y="0" type="line"/>
      <point x="386" y="74" type="line"/>
      <point x="167" y="74" type="line"/>
      <point x="179" y="143"/>
      <point x="184" y="235"/>
      <point x="184" y="293" type="curve" smooth="yes"/>
      <point x="184" y="301" type="line"/>
      <point x="324" y="301" type="line"/>
      <point x="324" y="373" type="line"/>
      <point x="184" y="373" type="line"/>
      <point x="184" y="505" type="line" smooth="yes"/>
      <point x="184" y="594"/>
      <point x="222" y="631"/>
      <point x="273" y="631" type="curve" smooth="yes"/>
      <point x="305" y="631"/>
      <point x="332" y="623"/>
      <point x="353" y="611" type="curve"/>
      <point x="374" y="680" type="line"/>
      <point x="346" y="695"/>
      <point x="310" y="705"/>
      <point x="269" y="705" type="curve" smooth="yes"/>
      <point x="174" y="705"/>
      <point x="96" y="648"/>
      <point x="96" y="505" type="curve" smooth="yes"/>
      <point x="96" y="373" type="line"/>
      <point x="25" y="373" type="line"/>
      <point x="25" y="301" type="line"/>
      <point x="96" y="301" type="line"/>
      <point x="96" y="291" type="line" smooth="yes"/>
      <point x="96" y="186"/>
      <point x="83" y="78"/>
    </contour>
  </outline>
</glyph>
<glyph name="currency" format="2">
  <advance width="423"/>
  <unicode hex="00A4"/>
  <outline>
    <contour>
      <point x="83" y="112" type="line"/>
      <point x="136" y="180" type="line"/>
      <point x="158" y="165"/>
      <point x="184" y="157"/>
      <point x="212" y="157" type="curve" smooth="yes"/>
      <point x="240" y="157"/>
      <point x="266" y="165"/>
      <point x="288" y="180" type="curve"/>
      <point x="341" y="112" type="line"/>
      <point x="396" y="159" type="line"/>
      <point x="339" y="232" type="line"/>
      <point x="356" y="262"/>
      <point x="366" y="300"/>
      <point x="366" y="347" type="curve" smooth="yes"/>
      <point x="366" y="394"/>
      <point x="355" y="434"/>
      <point x="337" y="464" type="curve"/>
      <point x="396" y="537" type="line"/>
      <point x="341" y="585" type="line"/>
      <point x="286" y="516" type="line"/>
      <point x="265" y="530"/>
      <point x="240" y="538"/>
      <point x="212" y="538" type="curve" smooth="yes"/>
      <point x="184" y="538"/>
      <point x="158" y="530"/>
      <point x="138" y="515" type="curve"/>
      <point x="83" y="585" type="line"/>
      <point x="28" y="537" type="line"/>
      <point x="87" y="463" type="line"/>
      <point x="68" y="433"/>
      <point x="59" y="394"/>
      <point x="59" y="347" type="curve" smooth="yes"/>
      <point x="59" y="301"/>
      <point x="68" y="262"/>
      <point x="86" y="232" type="curve"/>
      <point x="28" y="159" type="line"/>
    </contour>
    <contour>
      <point x="212" y="224" type="curve" smooth="yes"/>
      <point x="164" y="224"/>
      <point x="132" y="265"/>
      <point x="132" y="347" type="curve" smooth="yes"/>
      <point x="132" y="431"/>
      <point x="164" y="471"/>
      <point x="212" y="471" type="curve" smooth="yes"/>
      <point x="260" y="471"/>
      <point x="293" y="431"/>
      <point x="293" y="347" type="curve" smooth="yes"/>
      <point x="293" y="265"/>
      <point x="260" y="224"/>
    </contour>
  </outline>
</glyph>
<glyph name="yen" format="2">
  <advance width="423"/>
  <unicode hex="00A5"/>
  <outline>
    <contour>
      <point x="167" y="0" type="line"/>
      <point x="254" y="0" type="line"/>
      <point x="254" y="127" type="line"/>
      <point x="373" y="127" type="line"/>
      <point x="373" y="190" type="line"/>
      <point x="254" y="190" type="line"/>
      <point x="254" y="287" type="line"/>
      <point x="373" y="287" type="line"/>
      <point x="373" y="349" type="line"/>
      <point x="281" y="349" type="line"/>
      <point x="329" y="457"/>
      <point x="377" y="572"/>
      <point x="416" y="693" type="curve"/>
      <point x="328" y="693" type="line"/>
      <point x="297" y="591"/>
      <point x="255" y="476"/>
      <point x="210" y="372" type="curve"/>
      <point x="166" y="476"/>
      <point x="124" y="591"/>
      <point x="94" y="693" type="curve"/>
      <point x="5" y="693" type="line"/>
      <point x="43" y="572"/>
      <point x="91" y="457"/>
      <point x="139" y="349" type="curve"/>
      <point x="48" y="349" type="line"/>
      <point x="48" y="287" type="line"/>
      <point x="167" y="287" type="line"/>
      <point x="167" y="190" type="line"/>
      <point x="48" y="190" type="line"/>
      <point x="48" y="127" type="line"/>
      <point x="167" y="127" type="line"/>
    </contour>
  </outline>
</glyph>
<glyph name="brokenbar" format="2">
  <advance width="269"/>
  <unicode hex="00A6"/>
  <outline>
    <contour>
      <point x="94" y="400" type="line"/>
      <point x="175" y="400" type="line"/>
      <point x="175" y="783" type="line"/>
      <point x="94" y="783" type="line"/>
    </contour>
    <contour>
      <point x="94" y="-185" type="line"/>
      <point x="175" y="-185" type="line"/>
      <point x="175" y="198" type="line"/>
      <point x="94" y="198" type="line"/>
    </contour>
  </outline>
</glyph>
<glyph name="section" format="2">
  <advance width="399"/>
  <unicode hex="00A7"/>
  <outline>
    <contour>
      <point x="176" y="-108" type="curve" smooth="yes"/>
      <point x="277" y="-108"/>
      <point x="346" y="-50"/>
      <point x="346" y="35" type="curve" smooth="yes"/>
      <point x="346" y="81"/>
      <point x="323" y="118"/>
      <point x="278" y="153" type="curve"/>
      <point x="330" y="183"/>
      <point x="364" y="232"/>
      <point x="364" y="302" type="curve" smooth="yes"/>
      <point x="364" y="370"/>
      <point x="332" y="413"/>
      <point x="257" y="454" type="curve" smooth="yes"/>
      <point x="186" y="492"/>
      <point x="150" y="514"/>
      <point x="150" y="563" type="curve" smooth="yes"/>
      <point x="150" y="608"/>
      <point x="180" y="631"/>
      <point x="232" y="631" type="curve" smooth="yes"/>
      <point x="267" y="631"/>
      <point x="303" y="623"/>
      <point x="337" y="608" type="curve"/>
      <point x="359" y="678" type="line"/>
      <point x="323" y="695"/>
      <point x="276" y="707"/>
      <point x="229" y="707" type="curve" smooth="yes"/>
      <point x="133" y="707"/>
      <point x="65" y="653"/>
      <point x="65" y="564" type="curve" smooth="yes"/>
      <point x="65" y="524"/>
      <point x="82" y="489"/>
      <point x="122" y="453" type="curve"/>
      <point x="69" y="421"/>
      <point x="39" y="372"/>
      <point x="39" y="306" type="curve" smooth="yes"/>
      <point x="39" y="237"/>
      <point x="70" y="190"/>
      <point x="151" y="145" type="curve" smooth="yes"/>
      <point x="224" y="105"/>
      <point x="261" y="83"/>
      <point x="261" y="36" type="curve" smooth="yes"/>
      <point x="261" y="-8"/>
      <point x="230" y="-34"/>
      <point x="176" y="-34" type="curve" smooth="yes"/>
      <point x="140" y="-34"/>
      <point x="99" y="-25"/>
      <point x="57" y="-6" type="curve"/>
      <point x="37" y="-76" type="line"/>
      <point x="76" y="-96"/>
      <point x="128" y="-108"/>
    </contour>
    <contour>
      <point x="222" y="191" type="curve"/>
      <point x="216" y="195"/>
      <point x="212" y="197"/>
      <point x="208" y="199" type="curve" smooth="yes"/>
      <point x="134" y="241"/>
      <point x="118" y="270"/>
      <point x="118" y="318" type="curve" smooth="yes"/>
      <point x="118" y="361"/>
      <point x="145" y="397"/>
      <point x="176" y="414" type="curve"/>
      <point x="184" y="409"/>
      <point x="190" y="406"/>
      <point x="198" y="402" type="curve" smooth="yes"/>
      <point x="270" y="360"/>
      <point x="284" y="335"/>
      <point x="284" y="292" type="curve" smooth="yes"/>
      <point x="284" y="246"/>
      <point x="258" y="210"/>
    </contour>
  </outline>
</glyph>
<glyph name="dieresis" format="2">
  <advance width="361"/>
  <unicode hex="00A8"/>
  <outline>
    <contour>
      <point x="260" y="622" type="curve" smooth="yes"/>
      <point x="287" y="622"/>
      <point x="312" y="643"/>
      <point x="312" y="673" type="curve" smooth="yes"/>
      <point x="312" y="705"/>
      <point x="287" y="726"/>
      <point x="260" y="726" type="curve" smooth="yes"/>
      <point x="232" y="726"/>
      <point x="208" y="705"/>
      <point x="208" y="673" type="curve" smooth="yes"/>
      <point x="208" y="643"/>
      <point x="232" y="622"/>
    </contour>
    <contour>
      <point x="101" y="622" type="curve" smooth="yes"/>
      <point x="128" y="622"/>
      <point x="153" y="643"/>
      <point x="153" y="673" type="curve" smooth="yes"/>
      <point x="153" y="705"/>
      <point x="128" y="726"/>
      <point x="101" y="726" type="curve" smooth="yes"/>
      <point x="72" y="726"/>
      <point x="49" y="705"/>
      <point x="49" y="673" type="curve" smooth="yes"/>
      <point x="49" y="643"/>
      <point x="72" y="622"/>
    </contour>
  </outline>
</glyph>
<glyph name="copyright" format="2">
  <advance width="706"/>
  <unicode hex="00A9"/>
  <outline>
    <contour>
      <point x="353" y="-15" type="curve" smooth="yes"/>
      <point x="536" y="-15"/>
      <point x="649" y="133"/>
      <point x="649" y="347" type="curve" smooth="yes"/>
      <point x="649" y="560"/>
      <point x="536" y="708"/>
      <point x="353" y="708" type="curve" smooth="yes"/>
      <point x="170" y="708"/>
      <point x="57" y="560"/>
      <point x="57" y="347" type="curve" smooth="yes"/>
      <point x="57" y="133"/>
      <point x="170" y="-15"/>
    </contour>
    <contour>
      <point x="367" y="149" type="curve" smooth="yes"/>
      <point x="400" y="149"/>
      <point x="433" y="156"/>
      <point x="457" y="172" type="curve"/>
      <point x="441" y="228" type="line"/>
      <point x="419" y="215"/>
      <point x="399" y="210"/>
      <point x="376" y="210" type="curve" smooth="yes"/>
      <point x="315" y="210"/>
      <point x="285" y="258"/>
      <point x="285" y="348" type="curve" smooth="yes"/>
      <point x="285" y="440"/>
      <point x="313" y="487"/>
      <point x="374" y="487" type="curve" smooth="yes"/>
      <point x="397" y="487"/>
      <point x="420" y="480"/>
      <point x="436" y="471" type="curve"/>
      <point x="452" y="526" type="line"/>
      <point x="430" y="539"/>
      <point x="397" y="547"/>
      <point x="365" y="547" type="curve" smooth="yes"/>
      <point x="271" y="547"/>
      <point x="216" y="472"/>
      <point x="216" y="346" type="curve" smooth="yes"/>
      <point x="216" y="225"/>
      <point x="271" y="150"/>
    </contour>
    <contour>
      <point x="353" y="44" type="curve" smooth="yes"/>
      <point x="212" y="44"/>
      <point x="120" y="163"/>
      <point x="120" y="347" type="curve" smooth="yes"/>
      <point x="120" y="529"/>
      <point x="211" y="649"/>
      <point x="353" y="649" type="curve" smooth="yes"/>
      <point x="492" y="649"/>
      <point x="586" y="530"/>
      <point x="586" y="347" type="curve" smooth="yes"/>
      <point x="586" y="163"/>
      <point x="494" y="44"/>
    </contour>
  </outline>
</glyph>
<glyph name="ordfeminine" format="2">
  <advance width="317"/>
  <unicode hex="00AA"/>
  <outline>
    <contour>
      <point x="202" y="391" type="line"/>
      <point x="192" y="388"/>
      <point x="178" y="386"/>
      <point x="164" y="386" type="curve" smooth="yes"/>
      <point x="124" y="386"/>
      <point x="101" y="403"/>
      <point x="101" y="444" type="curve" smooth="yes"/>
      <point x="101" y="487"/>
      <point x="132" y="499"/>
      <point x="160" y="499" type="curve" smooth="yes"/>
      <point x="175" y="499"/>
      <point x="189" y="497"/>
      <point x="202" y="495" type="curve"/>
    </contour>
    <contour>
      <point x="153" y="706" type="curve" smooth="yes"/>
      <point x="121" y="706"/>
      <point x="87" y="697"/>
      <point x="66" y="688" type="curve"/>
      <point x="75" y="630" type="line"/>
      <point x="93" y="639"/>
      <point x="119" y="646"/>
      <point x="143" y="646" type="curve" smooth="yes"/>
      <point x="187" y="646"/>
      <point x="202" y="621"/>
      <point x="202" y="584" type="curve" smooth="yes"/>
      <point x="202" y="550" type="line"/>
      <point x="187" y="554"/>
      <point x="171" y="556"/>
      <point x="155" y="556" type="curve" smooth="yes"/>
      <point x="92" y="556"/>
      <point x="36" y="524"/>
      <point x="36" y="444" type="curve" smooth="yes"/>
      <point x="36" y="365"/>
      <point x="86" y="329"/>
      <point x="162" y="329" type="curve" smooth="yes"/>
      <point x="202" y="329"/>
      <point x="239" y="337"/>
      <point x="266" y="345" type="curve"/>
      <point x="266" y="583" type="line" smooth="yes"/>
      <point x="266" y="652"/>
      <point x="238" y="706"/>
    </contour>
  </outline>
</glyph>
<glyph name="logicalnot" format="2">
  <advance width="429"/>
  <unicode hex="00AC"/>
  <outline>
    <contour>
      <point x="303" y="133" type="line"/>
      <point x="377" y="133" type="line"/>
      <point x="377" y="395" type="line"/>
      <point x="34" y="395" type="line"/>
      <point x="34" y="324" type="line"/>
      <point x="303" y="324" type="line"/>
    </contour>
  </outline>
</glyph>
<glyph name="registered" format="2">
  <advance width="709"/>
  <unicode hex="00AE"/>
  <outline>
    <contour>
      <point x="353" y="-15" type="curve" smooth="yes"/>
      <point x="536" y="-15"/>
      <point x="649" y="133"/>
      <point x="649" y="347" type="curve" smooth="yes"/>
      <point x="649" y="560"/>
      <point x="536" y="708"/>
      <point x="353" y="708" type="curve" smooth="yes"/>
      <point x="170" y="708"/>
      <point x="57" y="560"/>
      <point x="57" y="347" type="curve" smooth="yes"/>
      <point x="57" y="133"/>
      <point x="170" y="-15"/>
    </contour>
    <contour>
      <point x="353" y="44" type="curve" smooth="yes"/>
      <point x="212" y="44"/>
      <point x="120" y="163"/>
      <point x="120" y="347" type="curve" smooth="yes"/>
      <point x="120" y="529"/>
      <point x="211" y="649"/>
      <point x="353" y="649" type="curve" smooth="yes"/>
      <point x="492" y="649"/>
      <point x="586" y="530"/>
      <point x="586" y="347" type="curve" smooth="yes"/>
      <point x="586" y="163"/>
      <point x="494" y="44"/>
    </contour>
    <contour>
      <point x="248" y="158" type="line"/>
      <point x="309" y="158" type="line"/>
      <point x="309" y="304" type="line"/>
      <point x="330" y="304" type="line" smooth="yes"/>
      <point x="337" y="304"/>
      <point x="344" y="304"/>
      <point x="350" y="304" type="curve"/>
      <point x="376" y="263"/>
      <point x="398" y="214"/>
      <point x="420" y="158" type="curve"/>
      <point x="486" y="158" type="line"/>
      <point x="457" y="226"/>
      <point x="435" y="273"/>
      <point x="407" y="321" type="curve"/>
      <point x="445" y="340"/>
      <point x="469" y="374"/>
      <point x="469" y="422" type="curve" smooth="yes"/>
      <point x="469" y="501"/>
      <point x="428" y="543"/>
      <point x="339" y="543" type="curve" smooth="yes"/>
      <point x="313" y="543"/>
      <point x="280" y="538"/>
      <point x="248" y="529" type="curve"/>
    </contour>
    <contour>
      <point x="309" y="355" type="line"/>
      <point x="309" y="486" type="line"/>
      <point x="321" y="487"/>
      <point x="332" y="489"/>
      <point x="343" y="489" type="curve" smooth="yes"/>
      <point x="385" y="489"/>
      <point x="406" y="468"/>
      <point x="406" y="422" type="curve"/>
      <point x="406" y="374"/>
      <point x="383" y="355"/>
      <point x="339" y="355" type="curve" smooth="yes"/>
    </contour>
  </outline>
</glyph>
<glyph name="macron" format="2">
  <advance width="314"/>
  <unicode hex="00AF"/>
  <outline>
    <contour>
      <point x="48" y="644" type="line"/>
      <point x="266" y="644" type="line"/>
      <point x="266" y="711" type="line"/>
      <point x="48" y="711" type="line"/>
    </contour>
  </outline>
</glyph>
<glyph name="degree" format="2">
  <advance width="282"/>
  <unicode hex="00B0"/>
  <outline>
    <contour>
      <point x="141" y="517" type="curve" smooth="yes"/>
      <point x="203" y="517"/>
      <point x="261" y="562"/>
      <point x="261" y="637" type="curve" smooth="yes"/>
      <point x="261" y="711"/>
      <point x="203" y="756"/>
      <point x="141" y="756" type="curve" smooth="yes"/>
      <point x="78" y="756"/>
      <point x="20" y="711"/>
      <point x="20" y="637" type="curve" smooth="yes"/>
      <point x="20" y="563"/>
      <point x="78" y="517"/>
    </contour>
    <contour>
      <point x="141" y="575" type="curve" smooth="yes"/>
      <point x="108" y="575"/>
      <point x="82" y="598"/>
      <point x="82" y="637" type="curve" smooth="yes"/>
      <point x="82" y="675"/>
      <point x="108" y="699"/>
      <point x="141" y="699" type="curve" smooth="yes"/>
      <point x="173" y="699"/>
      <point x="199" y="675"/>
      <point x="199" y="637" type="curve" smooth="yes"/>
      <point x="199" y="598"/>
      <point x="173" y="575"/>
    </contour>
  </outline>
</glyph>
<glyph name="plusminus" format="2">
  <advance width="429"/>
  <unicode hex="00B1"/>
  <outline>
    <contour>
      <point x="177" y="146" type="line"/>
      <point x="252" y="146" type="line"/>
      <point x="252" y="290" type="line"/>
      <point x="387" y="290" type="line"/>
      <point x="387" y="361" type="line"/>
      <point x="252" y="361" type="line"/>
      <point x="252" y="506" type="line"/>
      <point x="177" y="506" type="line"/>
      <point x="177" y="361" type="line"/>
      <point x="43" y="361" type="line"/>
      <point x="43" y="290" type="line"/>
      <point x="177" y="290" type="line"/>
    </contour>
    <contour>
      <point x="43" y="5" type="line"/>
      <point x="387" y="5" type="line"/>
      <point x="387" y="76" type="line"/>
      <point x="43" y="76" type="line"/>
    </contour>
  </outline>
</glyph>
<glyph name="twosuperior" format="2">
  <advance width="285"/>
  <unicode hex="00B2"/>
  <outline>
    <contour>
      <point x="40" y="303" type="curve"/>
      <point x="250" y="303" type="line"/>
      <point x="250" y="362" type="line"/>
      <point x="116" y="362" type="line"/>
      <point x="124" y="406"/>
      <point x="147" y="433"/>
      <point x="180" y="472" type="curve" smooth="yes"/>
      <point x="212" y="509"/>
      <point x="243" y="542"/>
      <point x="243" y="598" type="curve" smooth="yes"/>
      <point x="243" y="658"/>
      <point x="204" y="699"/>
      <point x="135" y="699" type="curve" smooth="yes"/>
      <point x="97" y="699"/>
      <point x="60" y="686"/>
      <point x="30" y="660" type="curve"/>
      <point x="59" y="612" type="line"/>
      <point x="81" y="630"/>
      <point x="102" y="639"/>
      <point x="126" y="639" type="curve" smooth="yes"/>
      <point x="157" y="639"/>
      <point x="174" y="620"/>
      <point x="174" y="592" type="curve" smooth="yes"/>
      <point x="174" y="555"/>
      <point x="153" y="529"/>
      <point x="114" y="484" type="curve" smooth="yes"/>
      <point x="75" y="439"/>
      <point x="39" y="385"/>
      <point x="39" y="316" type="curve" smooth="yes"/>
      <point x="39" y="312"/>
      <point x="39" y="307"/>
    </contour>
  </outline>
</glyph>
<glyph name="threesuperior" format="2">
  <advance width="285"/>
  <unicode hex="00B3"/>
  <outline>
    <contour>
      <point x="121" y="297" type="curve" smooth="yes"/>
      <point x="202" y="297"/>
      <point x="248" y="344"/>
      <point x="248" y="414" type="curve" smooth="yes"/>
      <point x="248" y="459"/>
      <point x="228" y="494"/>
      <point x="183" y="513" type="curve"/>
      <point x="219" y="530"/>
      <point x="236" y="565"/>
      <point x="236" y="599" type="curve" smooth="yes"/>
      <point x="236" y="653"/>
      <point x="203" y="699"/>
      <point x="127" y="699" type="curve" smooth="yes"/>
      <point x="97" y="699"/>
      <point x="63" y="690"/>
      <point x="29" y="668" type="curve"/>
      <point x="53" y="617" type="line"/>
      <point x="77" y="633"/>
      <point x="98" y="640"/>
      <point x="121" y="640" type="curve" smooth="yes"/>
      <point x="154" y="640"/>
      <point x="170" y="620"/>
      <point x="170" y="590" type="curve" smooth="yes"/>
      <point x="170" y="560"/>
      <point x="155" y="535"/>
      <point x="111" y="535" type="curve" smooth="yes"/>
      <point x="81" y="535" type="line"/>
      <point x="81" y="481" type="line"/>
      <point x="111" y="481" type="line" smooth="yes"/>
      <point x="155" y="481"/>
      <point x="182" y="460"/>
      <point x="182" y="415" type="curve" smooth="yes"/>
      <point x="182" y="371"/>
      <point x="154" y="356"/>
      <point x="119" y="356" type="curve" smooth="yes"/>
      <point x="96" y="356"/>
      <point x="74" y="360"/>
      <point x="40" y="377" type="curve"/>
      <point x="24" y="322" type="line"/>
      <point x="54" y="306"/>
      <point x="92" y="297"/>
    </contour>
  </outline>
</glyph>
<glyph name="acute" format="2">
  <advance width="314"/>
  <unicode hex="00B4"/>
  <outline>
    <contour>
      <point x="130" y="587" type="line"/>
      <point x="265" y="728" type="line"/>
      <point x="205" y="780" type="line"/>
      <point x="86" y="626" type="line"/>
    </contour>
  </outline>
</glyph>
<glyph name="mu" format="2">
  <advance width="486"/>
  <unicode hex="00B5"/>
  <outline>
    <contour>
      <point x="76" y="-185" type="line"/>
      <point x="161" y="-185" type="line"/>
      <point x="161" y="-104" type="line" smooth="yes"/>
      <point x="161" y="-57"/>
      <point x="158" y="-9"/>
      <point x="154" y="30" type="curve"/>
      <point x="176" y="-2"/>
      <point x="220" y="-10"/>
      <point x="264" y="-10" type="curve" smooth="yes"/>
      <point x="311" y="-10"/>
      <point x="362" y="0"/>
      <point x="410" y="15" type="curve"/>
      <point x="410" y="525" type="line"/>
      <point x="323" y="525" type="line"/>
      <point x="323" y="76" type="line"/>
      <point x="303" y="68"/>
      <point x="278" y="64"/>
      <point x="258" y="64" type="curve" smooth="yes"/>
      <point x="192" y="64"/>
      <point x="162" y="102"/>
      <point x="162" y="205" type="curve" smooth="yes"/>
      <point x="162" y="525" type="line"/>
      <point x="76" y="525" type="line"/>
    </contour>
  </outline>
</glyph>
<glyph name="paragraph" format="2">
  <advance width="518"/>
  <unicode hex="00B6"/>
  <outline>
    <contour>
      <point x="212" y="-185" type="line"/>
      <point x="291" y="-185" type="line"/>
      <point x="291" y="627" type="line"/>
      <point x="313" y="629"/>
      <point x="340" y="627"/>
      <point x="358" y="625" type="curve"/>
      <point x="358" y="-185" type="line"/>
      <point x="436" y="-185" type="line"/>
      <point x="436" y="680" type="line"/>
      <point x="399" y="692"/>
      <point x="344" y="699"/>
      <point x="294" y="699" type="curve" smooth="yes"/>
      <point x="145" y="699"/>
      <point x="36" y="629"/>
      <point x="36" y="479" type="curve" smooth="yes"/>
      <point x="36" y="351"/>
      <point x="95" y="278"/>
      <point x="212" y="263" type="curve"/>
    </contour>
  </outline>
</glyph>
<glyph name="cedilla" format="2">
	<unicode hex="00B8"/>
	<advance width="314"/>
	<outline>
		<contour>
			<point x="202" y="20" type="line"/>
			<point x="196" y="9"/>
			<point x="179" y="-26"/>
			<point x="173" y="-40" type="qcurve"/>
			<point x="202" y="-51"/>
			<point x="226" y="-86"/>
			<point x="226" y="-109" type="qcurve"/>
			<point x="226" y="-147"/>
			<point x="166" y="-189"/>
			<point x="122" y="-189" type="qcurve"/>
			<point x="107" y="-189"/>
			<point x="71" y="-184"/>
			<point x="54" y="-178" type="qcurve"/>
			<point x="64" y="-123" type="line"/>
			<point x="74" y="-125"/>
			<point x="96" y="-130"/>
			<point x="108" y="-130" type="qcurve"/>
			<point x="126" y="-130"/>
			<point x="152" y="-119"/>
			<point x="152" y="-103" type="qcurve"/>
			<point x="152" y="-92"/>
			<point x="130" y="-76"/>
			<point x="100" y="-70" type="qcurve"/>
			<point x="108" y="-47"/>
			<point x="133" y="7"/>
			<point x="141" y="20" type="qcurve"/>
		</contour>
	</outline>
</glyph>
<glyph name="onesuperior" format="2">
  <advance width="285"/>
  <unicode hex="00B9"/>
  <outline>
    <contour>
      <point x="130" y="303" type="line"/>
      <point x="196" y="303" type="line"/>
      <point x="196" y="692" type="line"/>
      <point x="146" y="692" type="line"/>
      <point x="113" y="655"/>
      <point x="78" y="630"/>
      <point x="36" y="606" type="curve"/>
      <point x="61" y="555" type="line"/>
      <point x="89" y="569"/>
      <point x="112" y="586"/>
      <point x="130" y="604" type="curve"/>
    </contour>
  </outline>
</glyph>
<glyph name="ordmasculine" format="2">
  <advance width="355"/>
  <unicode hex="00BA"/>
  <outline>
    <contour>
      <point x="178" y="324" type="curve" smooth="yes"/>
      <point x="263" y="324"/>
      <point x="317" y="389"/>
      <point x="317" y="514" type="curve" smooth="yes"/>
      <point x="317" y="642"/>
      <point x="263" y="707"/>
      <point x="178" y="707" type="curve" smooth="yes"/>
      <point x="93" y="707"/>
      <point x="39" y="642"/>
      <point x="39" y="514" type="curve" smooth="yes"/>
      <point x="39" y="389"/>
      <point x="93" y="324"/>
    </contour>
    <contour>
      <point x="178" y="384" type="curve" smooth="yes"/>
      <point x="131" y="384"/>
      <point x="105" y="429"/>
      <point x="105" y="514" type="curve" smooth="yes"/>
      <point x="105" y="602"/>
      <point x="131" y="647"/>
      <point x="178" y="647" type="curve" smooth="yes"/>
      <point x="225" y="647"/>
      <point x="250" y="602"/>
      <point x="250" y="514" type="curve" smooth="yes"/>
      <point x="250" y="429"/>
      <point x="225" y="384"/>
    </contour>
  </outline>
</glyph>
<glyph name="questiondown" format="2">
  <advance width="343"/>
  <unicode hex="00BF"/>
  <outline>
    <contour>
      <point x="182" y="-188" type="curve" smooth="yes"/>
      <point x="238" y="-188"/>
      <point x="283" y="-171"/>
      <point x="322" y="-144" type="curve"/>
      <point x="290" y="-78" type="line"/>
      <point x="258" y="-101"/>
      <point x="230" y="-111"/>
      <point x="196" y="-111" type="curve" smooth="yes"/>
      <point x="144" y="-111"/>
      <point x="115" y="-81"/>
      <point x="115" y="-27" type="curve" smooth="yes"/>
      <point x="115" y="89"/>
      <point x="244" y="113"/>
      <point x="244" y="266" type="curve" smooth="yes"/>
      <point x="244" y="283"/>
      <point x="242" y="301"/>
      <point x="240" y="316" type="curve"/>
      <point x="161" y="316" type="line"/>
      <point x="163" y="304"/>
      <point x="163" y="288"/>
      <point x="163" y="279" type="curve" smooth="yes"/>
      <point x="163" y="139"/>
      <point x="24" y="110"/>
      <point x="24" y="-35" type="curve" smooth="yes"/>
      <point x="24" y="-119"/>
      <point x="79" y="-188"/>
    </contour>
    <contour>
      <point x="204" y="408" type="curve" smooth="yes"/>
      <point x="239" y="408"/>
      <point x="262" y="436"/>
      <point x="262" y="469" type="curve" smooth="yes"/>
      <point x="262" y="500"/>
      <point x="239" y="528"/>
      <point x="204" y="528" type="curve" smooth="yes"/>
      <point x="169" y="528"/>
      <point x="145" y="500"/>
      <point x="145" y="469" type="curve" smooth="yes"/>
      <point x="145" y="436"/>
      <point x="169" y="408"/>
    </contour>
  </outline>
</glyph>
<glyph name="AE" format="2">
  <advance width="741"/>
  <unicode hex="00C6"/>
  <anchor x="381" y="693" name="top"/>
  <anchor x="381" y="0" name="bottom"/>
  <outline>
    <contour>
      <point x="16" y="0" type="curve"/>
      <point x="108" y="0" type="line"/>
      <point x="127" y="56"/>
      <point x="150" y="115"/>
      <point x="174" y="175" type="curve"/>
      <point x="376" y="175" type="line"/>
      <point x="376" y="0" type="line"/>
      <point x="695" y="0" type="line"/>
      <point x="695" y="76" type="line"/>
      <point x="465" y="76" type="line"/>
      <point x="465" y="327" type="line"/>
      <point x="658" y="327" type="line"/>
      <point x="658" y="400" type="line"/>
      <point x="465" y="400" type="line"/>
      <point x="465" y="617" type="line"/>
      <point x="678" y="617" type="line"/>
      <point x="678" y="693" type="line"/>
      <point x="346" y="693" type="line"/>
      <point x="238" y="516"/>
      <point x="112" y="253"/>
    </contour>
    <contour>
      <point x="205" y="250" type="line"/>
      <point x="260" y="380"/>
      <point x="322" y="505"/>
      <point x="376" y="597" type="curve"/>
      <point x="376" y="250" type="line"/>
    </contour>
  </outline>
</glyph>
<glyph name="Ccedilla" format="2">
  <advance width="472"/>
  <unicode hex="00C7"/>
  <outline>
    <contour>
      <point x="256" y="-198" type="curve" smooth="yes"/>
      <point x="318" y="-198"/>
      <point x="360" y="-165"/>
      <point x="360" y="-115" type="curve" smooth="yes"/>
      <point x="360" y="-80"/>
      <point x="345" y="-56"/>
      <point x="306" y="-40" type="curve"/>
      <point x="309" y="-30"/>
      <point x="314" y="-21"/>
      <point x="318" y="-11" type="curve"/>
      <point x="321" y="-11"/>
      <point x="322" y="-11"/>
      <point x="324" y="-11" type="curve" smooth="yes"/>
      <point x="374" y="-9"/>
      <point x="418" y="2"/>
      <point x="453" y="23" type="curve"/>
      <point x="430" y="95" type="line"/>
      <point x="395" y="77"/>
      <point x="360" y="67"/>
      <point x="319" y="67" type="curve" smooth="yes"/>
      <point x="203" y="67"/>
      <point x="150" y="157"/>
      <point x="150" y="344" type="curve" smooth="yes"/>
      <point x="150" y="541"/>
      <point x="196" y="626"/>
      <point x="306" y="626" type="curve" smooth="yes"/>
      <point x="349" y="626"/>
      <point x="388" y="615"/>
      <point x="418" y="598" type="curve"/>
      <point x="444" y="672" type="line"/>
      <point x="407" y="693"/>
      <point x="358" y="704"/>
      <point x="306" y="704" type="curve" smooth="yes"/>
      <point x="140" y="704"/>
      <point x="56" y="581"/>
      <point x="56" y="344" type="curve" smooth="yes"/>
      <point x="56" y="140"/>
      <point x="126" y="17"/>
      <point x="258" y="-7" type="curve"/>
      <point x="250" y="-24"/>
      <point x="241" y="-45"/>
      <point x="235" y="-62" type="curve"/>
      <point x="277" y="-72"/>
      <point x="293" y="-86"/>
      <point x="293" y="-108" type="curve" smooth="yes"/>
      <point x="293" y="-129"/>
      <point x="276" y="-141"/>
      <point x="249" y="-141" type="curve" smooth="yes"/>
      <point x="233" y="-141"/>
      <point x="214" y="-138"/>
      <point x="198" y="-132" type="curve"/>
      <point x="188" y="-187" type="line"/>
      <point x="211" y="-194"/>
      <point x="234" y="-198"/>
    </contour>
  </outline>
</glyph>
<glyph name="Eth" format="2">
  <advance width="576"/>
  <unicode hex="00D0"/>
  <outline>
    <contour>
      <point x="15" y="314" type="line"/>
      <point x="83" y="314" type="line"/>
      <point x="83" y="11" type="line"/>
      <point x="134" y="-1"/>
      <point x="182" y="-7"/>
      <point x="227" y="-7" type="curve" smooth="yes"/>
      <point x="404" y="-7"/>
      <point x="521" y="93"/>
      <point x="521" y="347" type="curve" smooth="yes"/>
      <point x="521" y="601"/>
      <point x="404" y="701"/>
      <point x="226" y="701" type="curve" smooth="yes"/>
      <point x="182" y="701"/>
      <point x="134" y="694"/>
      <point x="83" y="683" type="curve"/>
      <point x="83" y="380" type="line"/>
      <point x="15" y="380" type="line"/>
    </contour>
    <contour>
      <point x="425" y="347" type="curve" smooth="yes"/>
      <point x="425" y="154"/>
      <point x="367" y="73"/>
      <point x="229" y="73" type="curve" smooth="yes"/>
      <point x="212" y="73"/>
      <point x="193" y="74"/>
      <point x="173" y="77" type="curve"/>
      <point x="173" y="314" type="line"/>
      <point x="281" y="314" type="line"/>
      <point x="281" y="380" type="line"/>
      <point x="173" y="380" type="line"/>
      <point x="173" y="617" type="line"/>
      <point x="193" y="620"/>
      <point x="212" y="621"/>
      <point x="230" y="621" type="curve" smooth="yes"/>
      <point x="367" y="621"/>
      <point x="425" y="539"/>
    </contour>
  </outline>
</glyph>
<glyph name="multiply" format="2">
  <advance width="429"/>
  <unicode hex="00D7"/>
  <outline>
    <contour>
      <point x="109" y="145" type="line"/>
      <point x="214" y="249" type="line"/>
      <point x="324" y="140" type="line"/>
      <point x="376" y="193" type="line"/>
      <point x="267" y="302" type="line"/>
      <point x="372" y="408" type="line"/>
      <point x="319" y="460" type="line"/>
      <point x="214" y="355" type="line"/>
      <point x="105" y="464" type="line"/>
      <point x="52" y="412" type="line"/>
      <point x="162" y="302" type="line"/>
      <point x="56" y="197" type="line"/>
    </contour>
  </outline>
</glyph>
<glyph name="Oslash" format="2">
  <advance width="597"/>
  <unicode hex="00D8"/>
  <anchor x="302" y="693" name="top"/>
  <anchor x="302" y="0" name="bottom"/>
  <outline>
    <contour>
      <point x="118" y="-33" type="line"/>
      <point x="159" y="39" type="line"/>
      <point x="196" y="6"/>
      <point x="243" y="-11"/>
      <point x="299" y="-11" type="curve" smooth="yes"/>
      <point x="453" y="-11"/>
      <point x="542" y="118"/>
      <point x="542" y="345" type="curve" smooth="yes"/>
      <point x="542" y="456"/>
      <point x="522" y="545"/>
      <point x="482" y="606" type="curve"/>
      <point x="533" y="694" type="line"/>
      <point x="480" y="726" type="line"/>
      <point x="439" y="654" type="line"/>
      <point x="402" y="687"/>
      <point x="355" y="705"/>
      <point x="299" y="705" type="curve" smooth="yes"/>
      <point x="144" y="705"/>
      <point x="56" y="574"/>
      <point x="56" y="346" type="curve" smooth="yes"/>
      <point x="56" y="235"/>
      <point x="77" y="147"/>
      <point x="116" y="86" type="curve"/>
      <point x="66" y="-2" type="line"/>
    </contour>
    <contour>
      <point x="174" y="187" type="line"/>
      <point x="158" y="227"/>
      <point x="150" y="281"/>
      <point x="150" y="346" type="curve" smooth="yes"/>
      <point x="150" y="531"/>
      <point x="199" y="626"/>
      <point x="299" y="626" type="curve" smooth="yes"/>
      <point x="339" y="626"/>
      <point x="372" y="610"/>
      <point x="396" y="579" type="curve"/>
    </contour>
    <contour>
      <point x="299" y="67" type="curve" smooth="yes"/>
      <point x="259" y="67"/>
      <point x="226" y="83"/>
      <point x="202" y="114" type="curve"/>
      <point x="424" y="505" type="line"/>
      <point x="440" y="464"/>
      <point x="448" y="411"/>
      <point x="448" y="345" type="curve" smooth="yes"/>
      <point x="448" y="161"/>
      <point x="398" y="67"/>
    </contour>
  </outline>
</glyph>
<glyph name="Uacute" format="2">
  <advance width="549"/>
  <unicode hex="00DA"/>
  <outline>
    <contour>
      <point x="277" y="-15" type="curve" smooth="yes"/>
      <point x="405" y="-15"/>
      <point x="471" y="56"/>
      <point x="471" y="214" type="curve" smooth="yes"/>
      <point x="471" y="693" type="line"/>
      <point x="381" y="693" type="line"/>
      <point x="381" y="222" type="line" smooth="yes"/>
      <point x="381" y="117"/>
      <point x="354" y="64"/>
      <point x="275" y="64" type="curve" smooth="yes"/>
      <point x="192" y="64"/>
      <point x="168" y="120"/>
      <point x="168" y="222" type="curve" smooth="yes"/>
      <point x="168" y="693" type="line"/>
      <point x="78" y="693" type="line"/>
      <point x="78" y="214" type="line" smooth="yes"/>
      <point x="78" y="59"/>
      <point x="146" y="-15"/>
    </contour>
    <contour>
      <point x="344" y="926" type="line"/>
      <point x="226" y="767" type="line"/>
      <point x="265" y="734" type="line"/>
      <point x="401" y="878" type="line"/>
    </contour>
  </outline>
</glyph>
<glyph name="Thorn" format="2">
  <advance width="486"/>
  <unicode hex="00DE"/>
  <anchor x="243" y="693" name="top"/>
  <anchor x="243" y="0" name="bottom"/>
  <outline>
    <contour>
      <point x="83" y="0" type="line"/>
      <point x="172" y="0" type="line"/>
      <point x="172" y="140" type="line"/>
      <point x="218" y="140" type="line" smooth="yes"/>
      <point x="363" y="140"/>
      <point x="451" y="224"/>
      <point x="451" y="360" type="curve" smooth="yes"/>
      <point x="451" y="501"/>
      <point x="367" y="582"/>
      <point x="219" y="582" type="curve" smooth="yes"/>
      <point x="204" y="582"/>
      <point x="188" y="582"/>
      <point x="172" y="580" type="curve"/>
      <point x="172" y="693" type="line"/>
      <point x="83" y="693" type="line"/>
    </contour>
    <contour>
      <point x="172" y="216" type="line"/>
      <point x="172" y="500" type="line"/>
      <point x="186" y="503"/>
      <point x="206" y="504"/>
      <point x="219" y="504" type="curve" smooth="yes"/>
      <point x="312" y="504"/>
      <point x="359" y="457"/>
      <point x="359" y="360" type="curve" smooth="yes"/>
      <point x="359" y="262"/>
      <point x="313" y="216"/>
      <point x="218" y="216" type="curve" smooth="yes"/>
    </contour>
  </outline>
</glyph>
<glyph name="germandbls" format="2">
  <advance width="485"/>
  <unicode hex="00DF"/>
  <anchor x="248" y="776" name="top"/>
  <anchor x="248" y="0" name="bottom"/>
  <outline>
    <contour>
      <point x="313" y="-11" type="curve" smooth="yes"/>
      <point x="411" y="-11"/>
      <point x="468" y="57"/>
      <point x="468" y="146" type="curve" smooth="yes"/>
      <point x="468" y="222"/>
      <point x="428" y="256"/>
      <point x="383" y="299" type="curve" smooth="yes"/>
      <point x="345" y="337"/>
      <point x="323" y="361"/>
      <point x="323" y="407" type="curve" smooth="yes"/>
      <point x="323" y="439"/>
      <point x="340" y="467"/>
      <point x="359" y="496" type="curve" smooth="yes"/>
      <point x="383" y="532"/>
      <point x="410" y="565"/>
      <point x="410" y="632" type="curve" smooth="yes"/>
      <point x="410" y="715"/>
      <point x="354" y="776"/>
      <point x="253" y="776" type="curve" smooth="yes"/>
      <point x="143" y="776"/>
      <point x="80" y="708"/>
      <point x="80" y="584" type="curve" smooth="yes"/>
      <point x="80" y="0" type="line"/>
      <point x="166" y="0" type="line"/>
      <point x="166" y="588" type="line" smooth="yes"/>
      <point x="166" y="659"/>
      <point x="194" y="702"/>
      <point x="251" y="702" type="curve" smooth="yes"/>
      <point x="297" y="702"/>
      <point x="328" y="671"/>
      <point x="328" y="621" type="curve" smooth="yes"/>
      <point x="328" y="571"/>
      <point x="308" y="543"/>
      <point x="281" y="503" type="curve" smooth="yes"/>
      <point x="258" y="466"/>
      <point x="241" y="437"/>
      <point x="241" y="396" type="curve" smooth="yes"/>
      <point x="241" y="340"/>
      <point x="266" y="307"/>
      <point x="305" y="270" type="curve" smooth="yes"/>
      <point x="352" y="228"/>
      <point x="381" y="206"/>
      <point x="381" y="151" type="curve" smooth="yes"/>
      <point x="381" y="95"/>
      <point x="355" y="60"/>
      <point x="302" y="60" type="curve" smooth="yes"/>
      <point x="281" y="60"/>
      <point x="261" y="64"/>
      <point x="242" y="72" type="curve"/>
      <point x="227" y="4" type="line"/>
      <point x="256" y="-6"/>
      <point x="281" y="-11"/>
    </contour>
  </outline>
</glyph>
<glyph name="ae" format="2">
  <advance width="658"/>
  <unicode hex="00E6"/>
  <anchor x="327" y="522" name="top"/>
  <anchor x="327" y="0" name="bottom"/>
  <outline>
    <contour>
      <point x="211" y="-8" type="curve" smooth="yes"/>
      <point x="265" y="-8"/>
      <point x="310" y="9"/>
      <point x="348" y="34" type="curve"/>
      <point x="389" y="2"/>
      <point x="426" y="-12"/>
      <point x="471" y="-12" type="curve" smooth="yes"/>
      <point x="513" y="-12"/>
      <point x="553" y="-4"/>
      <point x="590" y="14" type="curve"/>
      <point x="579" y="83" type="line"/>
      <point x="554" y="70"/>
      <point x="519" y="64"/>
      <point x="486" y="64" type="curve" smooth="yes"/>
      <point x="400" y="64"/>
      <point x="358" y="128"/>
      <point x="357" y="236" type="curve"/>
      <point x="608" y="236" type="line"/>
      <point x="609" y="253"/>
      <point x="610" y="272"/>
      <point x="610" y="288" type="curve" smooth="yes"/>
      <point x="610" y="447"/>
      <point x="550" y="538"/>
      <point x="447" y="538" type="curve" smooth="yes"/>
      <point x="392" y="538"/>
      <point x="346" y="509"/>
      <point x="321" y="457" type="curve"/>
      <point x="304" y="513"/>
      <point x="261" y="538"/>
      <point x="194" y="538" type="curve" smooth="yes"/>
      <point x="156" y="538"/>
      <point x="112" y="530"/>
      <point x="78" y="518" type="curve"/>
      <point x="91" y="447" type="line"/>
      <point x="122" y="458"/>
      <point x="152" y="463"/>
      <point x="179" y="463" type="curve" smooth="yes"/>
      <point x="242" y="463"/>
      <point x="272" y="433"/>
      <point x="272" y="360" type="curve" smooth="yes"/>
      <point x="272" y="306" type="line"/>
      <point x="249" y="311"/>
      <point x="227" y="314"/>
      <point x="203" y="314" type="curve" smooth="yes"/>
      <point x="102" y="314"/>
      <point x="40" y="257"/>
      <point x="40" y="154" type="curve" smooth="yes"/>
      <point x="40" y="51"/>
      <point x="101" y="-8"/>
    </contour>
    <contour>
      <point x="219" y="59" type="curve" smooth="yes"/>
      <point x="158" y="59"/>
      <point x="124" y="92"/>
      <point x="124" y="156" type="curve" smooth="yes"/>
      <point x="124" y="219"/>
      <point x="155" y="251"/>
      <point x="217" y="251" type="curve" smooth="yes"/>
      <point x="238" y="251"/>
      <point x="254" y="249"/>
      <point x="273" y="244" type="curve"/>
      <point x="274" y="180"/>
      <point x="286" y="127"/>
      <point x="308" y="87" type="curve"/>
      <point x="287" y="73"/>
      <point x="257" y="59"/>
    </contour>
    <contour>
      <point x="357" y="299" type="line"/>
      <point x="358" y="407"/>
      <point x="388" y="467"/>
      <point x="444" y="467" type="curve" smooth="yes"/>
      <point x="498" y="467"/>
      <point x="528" y="415"/>
      <point x="527" y="299" type="curve"/>
    </contour>
  </outline>
</glyph>
<glyph name="ccedilla" format="2">
  <advance width="360"/>
  <unicode hex="00E7"/>
  <outline>
    <contour>
      <point x="194" y="-198" type="curve" smooth="yes"/>
      <point x="255" y="-198"/>
      <point x="298" y="-165"/>
      <point x="298" y="-115" type="curve" smooth="yes"/>
      <point x="298" y="-80"/>
      <point x="282" y="-57"/>
      <point x="243" y="-41" type="curve"/>
      <point x="247" y="-31"/>
      <point x="252" y="-21"/>
      <point x="256" y="-11" type="curve"/>
      <point x="286" y="-10"/>
      <point x="316" y="-4"/>
      <point x="340" y="10" type="curve"/>
      <point x="328" y="80" type="line"/>
      <point x="305" y="69"/>
      <point x="283" y="65"/>
      <point x="257" y="65" type="curve" smooth="yes"/>
      <point x="185" y="65"/>
      <point x="138" y="126"/>
      <point x="138" y="261" type="curve" smooth="yes"/>
      <point x="138" y="402"/>
      <point x="178" y="461"/>
      <point x="250" y="461" type="curve" smooth="yes"/>
      <point x="275" y="461"/>
      <point x="300" y="455"/>
      <point x="321" y="445" type="curve"/>
      <point x="338" y="517" type="line"/>
      <point x="309" y="531"/>
      <point x="276" y="538"/>
      <point x="239" y="538" type="curve" smooth="yes"/>
      <point x="118" y="538"/>
      <point x="48" y="437"/>
      <point x="48" y="261" type="curve" smooth="yes"/>
      <point x="48" y="108"/>
      <point x="101" y="13"/>
      <point x="196" y="-7" type="curve"/>
      <point x="187" y="-24"/>
      <point x="179" y="-44"/>
      <point x="173" y="-62" type="curve"/>
      <point x="214" y="-72"/>
      <point x="230" y="-86"/>
      <point x="230" y="-108" type="curve" smooth="yes"/>
      <point x="230" y="-130"/>
      <point x="214" y="-142"/>
      <point x="186" y="-142" type="curve" smooth="yes"/>
      <point x="170" y="-142"/>
      <point x="151" y="-139"/>
      <point x="136" y="-134" type="curve"/>
      <point x="126" y="-188" type="line"/>
      <point x="148" y="-195"/>
      <point x="171" y="-198"/>
    </contour>
  </outline>
</glyph>
<glyph name="eth" format="2">
  <advance width="464"/>
  <unicode hex="00F0"/>
  <anchor x="233" y="776" name="top"/>
  <anchor x="229" y="0" name="bottom"/>
  <outline>
    <contour>
      <point x="231" y="-9" type="curve" smooth="yes"/>
      <point x="317" y="-9"/>
      <point x="412" y="56"/>
      <point x="412" y="290" type="curve" smooth="yes"/>
      <point x="412" y="423"/>
      <point x="383" y="538"/>
      <point x="332" y="634" type="curve"/>
      <point x="415" y="674" type="line"/>
      <point x="392" y="727" type="line"/>
      <point x="304" y="685" type="line"/>
      <point x="282" y="718"/>
      <point x="257" y="748"/>
      <point x="230" y="775" type="curve"/>
      <point x="164" y="736" type="line"/>
      <point x="192" y="709"/>
      <point x="215" y="682"/>
      <point x="235" y="651" type="curve"/>
      <point x="149" y="611" type="line"/>
      <point x="173" y="558" type="line"/>
      <point x="262" y="599" type="line"/>
      <point x="283" y="564"/>
      <point x="297" y="523"/>
      <point x="308" y="464" type="curve"/>
      <point x="284" y="481"/>
      <point x="256" y="486"/>
      <point x="234" y="486" type="curve" smooth="yes"/>
      <point x="118" y="486"/>
      <point x="48" y="394"/>
      <point x="48" y="229" type="curve" smooth="yes"/>
      <point x="48" y="72"/>
      <point x="114" y="-9"/>
    </contour>
    <contour>
      <point x="232" y="66" type="curve" smooth="yes"/>
      <point x="180" y="66"/>
      <point x="140" y="106"/>
      <point x="140" y="229" type="curve" smooth="yes"/>
      <point x="140" y="365"/>
      <point x="183" y="416"/>
      <point x="243" y="416" type="curve" smooth="yes"/>
      <point x="274" y="416"/>
      <point x="298" y="405"/>
      <point x="315" y="392" type="curve"/>
      <point x="319" y="362"/>
      <point x="321" y="335"/>
      <point x="321" y="289" type="curve" smooth="yes"/>
      <point x="321" y="106"/>
      <point x="266" y="66"/>
    </contour>
  </outline>
</glyph>
<glyph name="divide" format="2">
  <advance width="429"/>
  <unicode hex="00F7"/>
  <outline>
    <contour>
      <point x="43" y="265" type="line"/>
      <point x="387" y="265" type="line"/>
      <point x="387" y="336" type="line"/>
      <point x="43" y="336" type="line"/>
    </contour>
    <contour>
      <point x="215" y="94" type="curve" smooth="yes"/>
      <point x="244" y="94"/>
      <point x="268" y="116"/>
      <point x="268" y="147" type="curve" smooth="yes"/>
      <point x="268" y="179"/>
      <point x="244" y="201"/>
      <point x="215" y="201" type="curve" smooth="yes"/>
      <point x="184" y="201"/>
      <point x="161" y="179"/>
      <point x="161" y="147" type="curve" smooth="yes"/>
      <point x="161" y="116"/>
      <point x="184" y="94"/>
    </contour>
    <contour>
      <point x="215" y="400" type="curve" smooth="yes"/>
      <point x="244" y="400"/>
      <point x="268" y="422"/>
      <point x="268" y="453" type="curve" smooth="yes"/>
      <point x="268" y="485"/>
      <point x="244" y="507"/>
      <point x="215" y="507" type="curve" smooth="yes"/>
      <point x="184" y="507"/>
      <point x="161" y="485"/>
      <point x="161" y="453" type="curve" smooth="yes"/>
      <point x="161" y="422"/>
      <point x="184" y="400"/>
    </contour>
  </outline>
</glyph>
<glyph name="oslash" format="2">
  <advance width="463"/>
  <unicode hex="00F8"/>
  <anchor x="232" y="520" name="top"/>
  <outline>
    <contour>
      <point x="98" y="-32" type="line"/>
      <point x="130" y="25" type="line"/>
      <point x="158" y="1"/>
      <point x="192" y="-12"/>
      <point x="232" y="-12" type="curve" smooth="yes"/>
      <point x="348" y="-12"/>
      <point x="415" y="88"/>
      <point x="415" y="263" type="curve" smooth="yes"/>
      <point x="415" y="341"/>
      <point x="401" y="406"/>
      <point x="375" y="451" type="curve"/>
      <point x="418" y="525" type="line"/>
      <point x="366" y="558" type="line"/>
      <point x="333" y="500" type="line"/>
      <point x="306" y="525"/>
      <point x="272" y="538"/>
      <point x="232" y="538" type="curve" smooth="yes"/>
      <point x="115" y="538"/>
      <point x="48" y="437"/>
      <point x="48" y="263" type="curve" smooth="yes"/>
      <point x="48" y="184"/>
      <point x="62" y="120"/>
      <point x="87" y="75" type="curve"/>
      <point x="46" y="2" type="line"/>
    </contour>
    <contour>
      <point x="232" y="58" type="curve" smooth="yes"/>
      <point x="204" y="58"/>
      <point x="182" y="71"/>
      <point x="166" y="95" type="curve"/>
      <point x="317" y="359" type="line"/>
      <point x="326" y="333"/>
      <point x="330" y="301"/>
      <point x="330" y="263" type="curve" smooth="yes"/>
      <point x="330" y="125"/>
      <point x="297" y="58"/>
    </contour>
    <contour>
      <point x="146" y="169" type="line"/>
      <point x="138" y="193"/>
      <point x="133" y="225"/>
      <point x="133" y="263" type="curve" smooth="yes"/>
      <point x="133" y="399"/>
      <point x="167" y="467"/>
      <point x="232" y="467" type="curve" smooth="yes"/>
      <point x="259" y="467"/>
      <point x="281" y="455"/>
      <point x="297" y="431" type="curve"/>
    </contour>
  </outline>
</glyph>
<glyph name="thorn" format="2">
  <advance width="469"/>
  <unicode hex="00FE"/>
  <anchor x="235" y="522" name="top"/>
  <anchor x="235" y="0" name="bottom"/>
  <outline>
    <contour>
      <point x="76" y="-185" type="line"/>
      <point x="162" y="-185" type="line"/>
      <point x="162" y="10" type="line"/>
      <point x="180" y="-1"/>
      <point x="209" y="-10"/>
      <point x="239" y="-10" type="curve" smooth="yes"/>
      <point x="348" y="-10"/>
      <point x="418" y="72"/>
      <point x="418" y="265" type="curve" smooth="yes"/>
      <point x="418" y="434"/>
      <point x="358" y="535"/>
      <point x="220" y="535" type="curve" smooth="yes"/>
      <point x="198" y="535"/>
      <point x="180" y="533"/>
      <point x="162" y="528" type="curve"/>
      <point x="162" y="776" type="line"/>
      <point x="76" y="761" type="line"/>
    </contour>
    <contour>
      <point x="226" y="64" type="curve" smooth="yes"/>
      <point x="200" y="64"/>
      <point x="176" y="72"/>
      <point x="162" y="83" type="curve"/>
      <point x="162" y="451" type="line"/>
      <point x="177" y="457"/>
      <point x="196" y="461"/>
      <point x="218" y="461" type="curve" smooth="yes"/>
      <point x="289" y="461"/>
      <point x="328" y="420"/>
      <point x="328" y="265" type="curve" smooth="yes"/>
      <point x="328" y="96"/>
      <point x="277" y="64"/>
    </contour>
  </outline>
</glyph>
<glyph name="Aogonek" format="2">
  <advance width="490"/>
  <unicode hex="0104"/>
  <outline>
    <contour>
      <point x="420" y="-197" type="curve" smooth="yes"/>
      <point x="442" y="-197"/>
      <point x="466" y="-194"/>
      <point x="486" y="-186" type="curve"/>
      <point x="480" y="-126" type="line"/>
      <point x="464" y="-132"/>
      <point x="452" y="-133"/>
      <point x="441" y="-133" type="curve" smooth="yes"/>
      <point x="414" y="-133"/>
      <point x="402" y="-119"/>
      <point x="402" y="-92" type="curve" smooth="yes"/>
      <point x="402" y="-65"/>
      <point x="424" y="-35"/>
      <point x="473" y="0" type="curve"/>
      <point x="435" y="217"/>
      <point x="371" y="448"/>
      <point x="291" y="693" type="curve"/>
      <point x="198" y="693" type="line"/>
      <point x="119" y="448"/>
      <point x="55" y="217"/>
      <point x="18" y="0" type="curve"/>
      <point x="107" y="0" type="line"/>
      <point x="115" y="54"/>
      <point x="125" y="112"/>
      <point x="138" y="173" type="curve"/>
      <point x="350" y="173" type="line"/>
      <point x="362" y="111"/>
      <point x="372" y="53"/>
      <point x="380" y="0" type="curve"/>
      <point x="399" y="0" type="line"/>
      <point x="356" y="-35"/>
      <point x="328" y="-73"/>
      <point x="328" y="-114" type="curve" smooth="yes"/>
      <point x="328" y="-165"/>
      <point x="364" y="-197"/>
    </contour>
    <contour>
      <point x="152" y="247" type="line"/>
      <point x="177" y="362"/>
      <point x="208" y="482"/>
      <point x="244" y="598" type="curve"/>
      <point x="280" y="481"/>
      <point x="310" y="361"/>
      <point x="335" y="247" type="curve"/>
    </contour>
  </outline>
</glyph>
<glyph name="aogonek" format="2">
  <advance width="431"/>
  <unicode hex="0105"/>
  <outline>
    <contour>
      <point x="298" y="-197" type="curve" smooth="yes"/>
      <point x="319" y="-197"/>
      <point x="344" y="-194"/>
      <point x="364" y="-186" type="curve"/>
      <point x="358" y="-126" type="line"/>
      <point x="342" y="-132"/>
      <point x="330" y="-133"/>
      <point x="319" y="-133" type="curve" smooth="yes"/>
      <point x="292" y="-133"/>
      <point x="280" y="-119"/>
      <point x="280" y="-92" type="curve" smooth="yes"/>
      <point x="280" y="-62"/>
      <point x="304" y="-25"/>
      <point x="360" y="14" type="curve"/>
      <point x="360" y="360" type="line" smooth="yes"/>
      <point x="360" y="483"/>
      <point x="293" y="538"/>
      <point x="192" y="538" type="curve" smooth="yes"/>
      <point x="155" y="538"/>
      <point x="112" y="530"/>
      <point x="78" y="518" type="curve"/>
      <point x="91" y="447" type="line"/>
      <point x="122" y="458"/>
      <point x="152" y="463"/>
      <point x="179" y="463" type="curve" smooth="yes"/>
      <point x="242" y="463"/>
      <point x="276" y="433"/>
      <point x="276" y="360" type="curve" smooth="yes"/>
      <point x="276" y="306" type="line"/>
      <point x="252" y="311"/>
      <point x="227" y="314"/>
      <point x="203" y="314" type="curve" smooth="yes"/>
      <point x="102" y="314"/>
      <point x="40" y="257"/>
      <point x="40" y="154" type="curve" smooth="yes"/>
      <point x="40" y="51"/>
      <point x="101" y="-8"/>
      <point x="211" y="-8" type="curve" smooth="yes"/>
      <point x="229" y="-8"/>
      <point x="249" y="-7"/>
      <point x="268" y="-4" type="curve"/>
      <point x="228" y="-37"/>
      <point x="205" y="-74"/>
      <point x="205" y="-114" type="curve" smooth="yes"/>
      <point x="205" y="-165"/>
      <point x="242" y="-197"/>
    </contour>
    <contour>
      <point x="216" y="59" type="curve" smooth="yes"/>
      <point x="157" y="59"/>
      <point x="124" y="92"/>
      <point x="124" y="156" type="curve" smooth="yes"/>
      <point x="124" y="219"/>
      <point x="155" y="251"/>
      <point x="216" y="251" type="curve" smooth="yes"/>
      <point x="236" y="251"/>
      <point x="257" y="248"/>
      <point x="276" y="242" type="curve"/>
      <point x="276" y="67" type="line"/>
      <point x="257" y="62"/>
      <point x="236" y="59"/>
    </contour>
  </outline>
</glyph>
<glyph name="dcroat" format="2">
  <advance width="467"/>
  <unicode hex="0111"/>
  <outline>
    <contour>
      <point x="247" y="-10" type="curve" smooth="yes"/>
      <point x="299" y="-10"/>
      <point x="342" y="-2"/>
      <point x="391" y="14" type="curve"/>
      <point x="391" y="620" type="line"/>
      <point x="461" y="620" type="line"/>
      <point x="461" y="682" type="line"/>
      <point x="391" y="682" type="line"/>
      <point x="391" y="776" type="line"/>
      <point x="305" y="761" type="line"/>
      <point x="305" y="682" type="line"/>
      <point x="193" y="682" type="line"/>
      <point x="193" y="620" type="line"/>
      <point x="305" y="620" type="line"/>
      <point x="305" y="505" type="line"/>
      <point x="286" y="517"/>
      <point x="257" y="525"/>
      <point x="227" y="525" type="curve" smooth="yes"/>
      <point x="118" y="525"/>
      <point x="48" y="445"/>
      <point x="48" y="256" type="curve" smooth="yes"/>
      <point x="48" y="90"/>
      <point x="109" y="-10"/>
    </contour>
    <contour>
      <point x="248" y="64" type="curve" smooth="yes"/>
      <point x="177" y="64"/>
      <point x="138" y="105"/>
      <point x="138" y="256" type="curve" smooth="yes"/>
      <point x="138" y="421"/>
      <point x="189" y="451"/>
      <point x="240" y="451" type="curve" smooth="yes"/>
      <point x="266" y="451"/>
      <point x="290" y="444"/>
      <point x="305" y="432" type="curve"/>
      <point x="305" y="75" type="line"/>
      <point x="290" y="69"/>
      <point x="271" y="64"/>
    </contour>
  </outline>
</glyph>
<glyph name="Eogonek" format="2">
  <advance width="457"/>
  <unicode hex="0118"/>
  <anchor x="229" y="693" name="top"/>
  <outline>
    <contour>
      <point x="357" y="-197" type="curve" smooth="yes"/>
      <point x="379" y="-197"/>
      <point x="404" y="-194"/>
      <point x="423" y="-186" type="curve"/>
      <point x="418" y="-126" type="line"/>
      <point x="401" y="-132"/>
      <point x="390" y="-133"/>
      <point x="378" y="-133" type="curve" smooth="yes"/>
      <point x="352" y="-133"/>
      <point x="340" y="-119"/>
      <point x="340" y="-92" type="curve" smooth="yes"/>
      <point x="340" y="-65"/>
      <point x="360" y="-35"/>
      <point x="410" y="0" type="curve"/>
      <point x="410" y="76" type="line"/>
      <point x="172" y="76" type="line"/>
      <point x="172" y="327" type="line"/>
      <point x="373" y="327" type="line"/>
      <point x="373" y="400" type="line"/>
      <point x="172" y="400" type="line"/>
      <point x="172" y="617" type="line"/>
      <point x="394" y="617" type="line"/>
      <point x="394" y="693" type="line"/>
      <point x="83" y="693" type="line"/>
      <point x="83" y="0" type="line"/>
      <point x="335" y="0" type="line"/>
      <point x="290" y="-35"/>
      <point x="265" y="-73"/>
      <point x="265" y="-114" type="curve" smooth="yes"/>
      <point x="265" y="-165"/>
      <point x="301" y="-197"/>
    </contour>
  </outline>
</glyph>
<glyph name="eogonek" format="2">
	<unicode hex="0119"/>
	<advance width="436"/>
	<outline>
		<contour>
			<point x="364" y="-176" type="line"/>
			<point x="336" y="-187"/>
			<point x="302" y="-187" type="qcurve"/>
			<point x="258" y="-187"/>
			<point x="202" y="-141"/>
			<point x="202" y="-100" type="qcurve"/>
			<point x="202" y="-75"/>
			<point x="222" y="-33"/>
			<point x="240" y="-13" type="qcurve"/>
			<point x="187" y="-12"/>
			<point x="114" y="29"/>
			<point x="69" y="100"/>
			<point x="49" y="199"/>
			<point x="49" y="259" type="qcurve"/>
			<point x="49" y="404"/>
			<point x="145" y="538"/>
			<point x="224" y="538" type="qcurve"/>
			<point x="313" y="538"/>
			<point x="387" y="404"/>
			<point x="387" y="283" type="qcurve"/>
			<point x="387" y="272"/>
			<point x="387" y="249"/>
			<point x="386" y="237" type="qcurve"/>
			<point x="137" y="237" type="line"/>
			<point x="138" y="199"/>
			<point x="150" y="136"/>
			<point x="177" y="89"/>
			<point x="222" y="63"/>
			<point x="257" y="63" type="qcurve"/>
			<point x="286" y="63"/>
			<point x="335" y="80"/>
			<point x="346" y="86" type="qcurve"/>
			<point x="362" y="17" type="line"/>
			<point x="353" y="11" type="line"/>
			<point x="318" y="-11"/>
			<point x="280" y="-56"/>
			<point x="280" y="-79" type="qcurve"/>
			<point x="280" y="-101"/>
			<point x="305" y="-120"/>
			<point x="323" y="-120" type="qcurve"/>
			<point x="342" y="-120"/>
			<point x="359" y="-113" type="qcurve"/>
		</contour>
		<contour>
			<point x="224" y="465" type="qcurve"/>
			<point x="181" y="465"/>
			<point x="142" y="379"/>
			<point x="138" y="307" type="qcurve"/>
			<point x="297" y="307" type="line"/>
			<point x="297" y="380"/>
			<point x="267" y="465"/>
		</contour>
	</outline>
</glyph>
<glyph name="Hbar" format="2">
  <advance width="585"/>
  <unicode hex="0126"/>
  <outline>
    <contour>
      <point x="88" y="0" type="line"/>
      <point x="178" y="0" type="line"/>
      <point x="178" y="317" type="line"/>
      <point x="407" y="317" type="line"/>
      <point x="407" y="0" type="line"/>
      <point x="496" y="0" type="line"/>
      <point x="496" y="521" type="line"/>
      <point x="563" y="521" type="line"/>
      <point x="563" y="586" type="line"/>
      <point x="496" y="586" type="line"/>
      <point x="496" y="693" type="line"/>
      <point x="407" y="693" type="line"/>
      <point x="407" y="586" type="line"/>
      <point x="178" y="586" type="line"/>
      <point x="178" y="693" type="line"/>
      <point x="88" y="693" type="line"/>
      <point x="88" y="586" type="line"/>
      <point x="21" y="586" type="line"/>
      <point x="21" y="521" type="line"/>
      <point x="88" y="521" type="line"/>
    </contour>
    <contour>
      <point x="178" y="395" type="line"/>
      <point x="178" y="521" type="line"/>
      <point x="407" y="521" type="line"/>
      <point x="407" y="395" type="line"/>
    </contour>
  </outline>
</glyph>
<glyph name="hbar" format="2">
  <advance width="482"/>
  <unicode hex="0127"/>
  <outline>
    <contour>
      <point x="78" y="0" type="line"/>
      <point x="164" y="0" type="line"/>
      <point x="164" y="447" type="line"/>
      <point x="186" y="456"/>
      <point x="210" y="460"/>
      <point x="232" y="460" type="curve" smooth="yes"/>
      <point x="300" y="460"/>
      <point x="325" y="419"/>
      <point x="325" y="314" type="curve" smooth="yes"/>
      <point x="325" y="0" type="line"/>
      <point x="411" y="0" type="line"/>
      <point x="411" y="320" type="line" smooth="yes"/>
      <point x="411" y="457"/>
      <point x="355" y="535"/>
      <point x="249" y="535" type="curve" smooth="yes"/>
      <point x="218" y="535"/>
      <point x="190" y="529"/>
      <point x="164" y="520" type="curve"/>
      <point x="164" y="622" type="line"/>
      <point x="285" y="622" type="line"/>
      <point x="285" y="682" type="line"/>
      <point x="164" y="682" type="line"/>
      <point x="164" y="776" type="line"/>
      <point x="78" y="761" type="line"/>
      <point x="78" y="682" type="line"/>
      <point x="13" y="682" type="line"/>
      <point x="13" y="622" type="line"/>
      <point x="78" y="622" type="line"/>
    </contour>
  </outline>
</glyph>
<glyph name="Iogonek" format="2">
  <advance width="255"/>
  <unicode hex="012E"/>
  <outline>
    <contour>
      <point x="119" y="-197" type="curve" smooth="yes"/>
      <point x="142" y="-197"/>
      <point x="165" y="-194"/>
      <point x="186" y="-186" type="curve"/>
      <point x="180" y="-126" type="line"/>
      <point x="164" y="-132"/>
      <point x="151" y="-133"/>
      <point x="141" y="-133" type="curve" smooth="yes"/>
      <point x="114" y="-133"/>
      <point x="102" y="-119"/>
      <point x="102" y="-92" type="curve" smooth="yes"/>
      <point x="102" y="-64"/>
      <point x="122" y="-36"/>
      <point x="172" y="0" type="curve"/>
      <point x="172" y="693" type="line"/>
      <point x="83" y="693" type="line"/>
      <point x="83" y="0" type="line"/>
      <point x="98" y="0" type="line"/>
      <point x="53" y="-37"/>
      <point x="27" y="-72"/>
      <point x="27" y="-114" type="curve" smooth="yes"/>
      <point x="27" y="-165"/>
      <point x="63" y="-197"/>
    </contour>
  </outline>
</glyph>
<glyph name="iogonek" format="2">
  <advance width="237"/>
  <unicode hex="012F"/>
  <outline>
    <contour>
      <point x="112" y="-197" type="curve" smooth="yes"/>
      <point x="134" y="-197"/>
      <point x="159" y="-194"/>
      <point x="178" y="-186" type="curve"/>
      <point x="173" y="-126" type="line"/>
      <point x="156" y="-132"/>
      <point x="145" y="-133"/>
      <point x="133" y="-133" type="curve" smooth="yes"/>
      <point x="107" y="-133"/>
      <point x="95" y="-119"/>
      <point x="95" y="-92" type="curve" smooth="yes"/>
      <point x="95" y="-64"/>
      <point x="113" y="-35"/>
      <point x="162" y="0" type="curve"/>
      <point x="162" y="525" type="line"/>
      <point x="76" y="525" type="line"/>
      <point x="76" y="1" type="line"/>
      <point x="88" y="1" type="line"/>
      <point x="44" y="-35"/>
      <point x="20" y="-72"/>
      <point x="20" y="-114" type="curve" smooth="yes"/>
      <point x="20" y="-165"/>
      <point x="56" y="-197"/>
    </contour>
    <contour>
      <point x="119" y="617" type="curve" smooth="yes"/>
      <point x="150" y="617"/>
      <point x="175" y="640"/>
      <point x="175" y="674" type="curve" smooth="yes"/>
      <point x="175" y="708"/>
      <point x="150" y="732"/>
      <point x="119" y="732" type="curve" smooth="yes"/>
      <point x="87" y="732"/>
      <point x="63" y="708"/>
      <point x="63" y="674" type="curve" smooth="yes"/>
      <point x="63" y="640"/>
      <point x="87" y="617"/>
    </contour>
  </outline>
</glyph>
<glyph name="dotlessi" format="2">
  <advance width="237"/>
  <unicode hex="0131"/>
  <anchor x="119" y="522" name="top"/>
  <anchor x="217" y="10" name="ogonek"/>
  <anchor x="119" y="0" name="bottom"/>
  <outline>
    <contour>
      <point x="76" y="0" type="line"/>
      <point x="162" y="0" type="line"/>
      <point x="162" y="525" type="line"/>
      <point x="76" y="525" type="line"/>
    </contour>
  </outline>
</glyph>
<glyph name="kgreenlandic" format="2">
  <advance width="413"/>
  <unicode hex="0138"/>
  <anchor x="208" y="520" name="top"/>
  <anchor x="208" y="0" name="bottom"/>
  <outline>
    <contour>
      <point x="76" y="0" type="line"/>
      <point x="162" y="0" type="line"/>
      <point x="162" y="246" type="line"/>
      <point x="228" y="176"/>
      <point x="281" y="86"/>
      <point x="316" y="0" type="curve"/>
      <point x="408" y="0" type="line"/>
      <point x="372" y="95"/>
      <point x="305" y="201"/>
      <point x="233" y="278" type="curve"/>
      <point x="292" y="358"/>
      <point x="348" y="440"/>
      <point x="394" y="525" type="curve"/>
      <point x="303" y="525" type="line"/>
      <point x="266" y="458"/>
      <point x="217" y="378"/>
      <point x="162" y="299" type="curve"/>
      <point x="162" y="525" type="line"/>
      <point x="76" y="525" type="line"/>
    </contour>
  </outline>
</glyph>
<glyph name="ldot" format="2">
  <advance width="331"/>
  <unicode hex="0140"/>
  <outline>
    <contour>
      <point x="236" y="68" type="line"/>
      <point x="177" y="76"/>
      <point x="158" y="89"/>
      <point x="158" y="151" type="curve" smooth="yes"/>
      <point x="158" y="776" type="line"/>
      <point x="65" y="760" type="line"/>
      <point x="65" y="136" type="line" smooth="yes"/>
      <point x="65" y="37"/>
      <point x="108" y="-7"/>
      <point x="223" y="-10" type="curve"/>
    </contour>
    <contour>
      <point x="298" y="302" type="curve" smooth="yes"/>
      <point x="331" y="302"/>
      <point x="358" y="326"/>
      <point x="358" y="363" type="curve" smooth="yes"/>
      <point x="358" y="400"/>
      <point x="331" y="424"/>
      <point x="298" y="424" type="curve" smooth="yes"/>
      <point x="265" y="424"/>
      <point x="238" y="400"/>
      <point x="238" y="363" type="curve" smooth="yes"/>
      <point x="238" y="326"/>
      <point x="265" y="302"/>
    </contour>
  </outline>
</glyph>
<glyph name="Lslash" format="2">
  <advance width="433"/>
  <unicode hex="0141"/>
  <outline>
    <contour>
      <point x="94" y="0" type="line"/>
      <point x="403" y="0" type="line"/>
      <point x="403" y="76" type="line"/>
      <point x="184" y="76" type="line"/>
      <point x="184" y="336" type="line"/>
      <point x="322" y="419" type="line"/>
      <point x="290" y="476" type="line"/>
      <point x="184" y="412" type="line"/>
      <point x="184" y="693" type="line"/>
      <point x="94" y="693" type="line"/>
      <point x="94" y="360" type="line"/>
      <point x="6" y="307" type="line"/>
      <point x="40" y="250" type="line"/>
      <point x="94" y="284" type="line"/>
    </contour>
  </outline>
</glyph>
<glyph name="lslash" format="2">
  <advance width="269"/>
  <unicode hex="0142"/>
  <outline>
    <contour>
      <point x="225" y="-8" type="curve"/>
      <point x="235" y="63" type="line"/>
      <point x="189" y="69"/>
      <point x="171" y="91"/>
      <point x="171" y="139" type="curve" smooth="yes"/>
      <point x="171" y="392" type="line"/>
      <point x="262" y="444" type="line"/>
      <point x="232" y="502" type="line"/>
      <point x="171" y="467" type="line"/>
      <point x="171" y="776" type="line"/>
      <point x="84" y="761" type="line"/>
      <point x="84" y="419" type="line"/>
      <point x="2" y="372" type="line"/>
      <point x="33" y="314" type="line"/>
      <point x="84" y="344" type="line"/>
      <point x="84" y="139" type="line" smooth="yes"/>
      <point x="84" y="47"/>
      <point x="131" y="-2"/>
    </contour>
  </outline>
</glyph>
<glyph name="Eng" format="2">
  <advance width="582"/>
  <unicode hex="014A"/>
  <anchor x="291" y="693" name="top"/>
  <anchor x="291" y="0" name="bottom"/>
  <outline>
    <contour>
      <point x="376" y="-187" type="curve" smooth="yes"/>
      <point x="480" y="-187"/>
      <point x="500" y="-116"/>
      <point x="500" y="-35" type="curve" smooth="yes"/>
      <point x="500" y="693" type="line"/>
      <point x="416" y="693" type="line"/>
      <point x="416" y="196" type="line"/>
      <point x="344" y="361"/>
      <point x="248" y="545"/>
      <point x="159" y="693" type="curve"/>
      <point x="83" y="693" type="line"/>
      <point x="83" y="0" type="line"/>
      <point x="166" y="0" type="line"/>
      <point x="166" y="532" type="line"/>
      <point x="256" y="374"/>
      <point x="346" y="192"/>
      <point x="415" y="25" type="curve"/>
      <point x="415" y="-37" type="line" smooth="yes"/>
      <point x="415" y="-89"/>
      <point x="409" y="-111"/>
      <point x="367" y="-111" type="curve" smooth="yes"/>
      <point x="355" y="-111"/>
      <point x="339" y="-109"/>
      <point x="328" y="-106" type="curve"/>
      <point x="316" y="-177" type="line"/>
      <point x="333" y="-184"/>
      <point x="356" y="-187"/>
    </contour>
  </outline>
</glyph>
<glyph name="eng" format="2">
  <advance width="480"/>
  <unicode hex="014B"/>
  <anchor x="240" y="522" name="top"/>
  <anchor x="240" y="0" name="bottom"/>
  <outline>
    <contour>
      <point x="278" y="-188" type="curve" smooth="yes"/>
      <point x="373" y="-188"/>
      <point x="409" y="-127"/>
      <point x="409" y="-33" type="curve" smooth="yes"/>
      <point x="409" y="320" type="line" smooth="yes"/>
      <point x="409" y="466"/>
      <point x="354" y="535"/>
      <point x="230" y="535" type="curve" smooth="yes"/>
      <point x="176" y="535"/>
      <point x="125" y="525"/>
      <point x="76" y="510" type="curve"/>
      <point x="76" y="0" type="line"/>
      <point x="162" y="0" type="line"/>
      <point x="162" y="449" type="line"/>
      <point x="182" y="457"/>
      <point x="207" y="460"/>
      <point x="227" y="460" type="curve" smooth="yes"/>
      <point x="297" y="460"/>
      <point x="323" y="421"/>
      <point x="323" y="314" type="curve" smooth="yes"/>
      <point x="323" y="-46" type="line" smooth="yes"/>
      <point x="323" y="-94"/>
      <point x="310" y="-118"/>
      <point x="268" y="-118" type="curve" smooth="yes"/>
      <point x="258" y="-118"/>
      <point x="245" y="-116"/>
      <point x="234" y="-112" type="curve"/>
      <point x="223" y="-178" type="line"/>
      <point x="241" y="-184"/>
      <point x="259" y="-188"/>
    </contour>
  </outline>
</glyph>
<glyph name="OE" format="2">
  <advance width="766"/>
  <unicode hex="0152"/>
  <anchor x="382" y="693" name="top"/>
  <anchor x="382" y="0" name="bottom"/>
  <outline>
    <contour>
      <point x="325" y="-7" type="curve" smooth="yes"/>
      <point x="351" y="-7"/>
      <point x="378" y="-4"/>
      <point x="402" y="0" type="curve"/>
      <point x="719" y="0" type="line"/>
      <point x="719" y="76" type="line"/>
      <point x="488" y="76" type="line"/>
      <point x="488" y="327" type="line"/>
      <point x="682" y="327" type="line"/>
      <point x="682" y="400" type="line"/>
      <point x="488" y="400" type="line"/>
      <point x="488" y="617" type="line"/>
      <point x="703" y="617" type="line"/>
      <point x="703" y="693" type="line"/>
      <point x="404" y="693" type="line"/>
      <point x="379" y="697"/>
      <point x="352" y="701"/>
      <point x="325" y="701" type="curve" smooth="yes"/>
      <point x="154" y="701"/>
      <point x="56" y="571"/>
      <point x="56" y="347" type="curve" smooth="yes"/>
      <point x="56" y="123"/>
      <point x="154" y="-7"/>
    </contour>
    <contour>
      <point x="326" y="72" type="curve" smooth="yes"/>
      <point x="208" y="72"/>
      <point x="150" y="166"/>
      <point x="150" y="347" type="curve" smooth="yes"/>
      <point x="150" y="529"/>
      <point x="208" y="622"/>
      <point x="326" y="622" type="curve" smooth="yes"/>
      <point x="351" y="622"/>
      <point x="373" y="619"/>
      <point x="398" y="612" type="curve"/>
      <point x="398" y="81" type="line"/>
      <point x="374" y="75"/>
      <point x="351" y="72"/>
    </contour>
  </outline>
</glyph>
<glyph name="oe" format="2">
  <advance width="710"/>
  <unicode hex="0153"/>
  <anchor x="355" y="522" name="top"/>
  <anchor x="355" y="0" name="bottom"/>
  <outline>
    <contour>
      <point x="232" y="-12" type="curve" smooth="yes"/>
      <point x="295" y="-12"/>
      <point x="341" y="23"/>
      <point x="369" y="88" type="curve"/>
      <point x="400" y="23"/>
      <point x="452" y="-12"/>
      <point x="524" y="-12" type="curve" smooth="yes"/>
      <point x="566" y="-12"/>
      <point x="605" y="-4"/>
      <point x="643" y="14" type="curve"/>
      <point x="631" y="82" type="line"/>
      <point x="606" y="70"/>
      <point x="571" y="64"/>
      <point x="538" y="64" type="curve" smooth="yes"/>
      <point x="452" y="64"/>
      <point x="410" y="128"/>
      <point x="409" y="236" type="curve"/>
      <point x="661" y="236" type="line"/>
      <point x="662" y="253"/>
      <point x="663" y="272"/>
      <point x="663" y="287" type="curve" smooth="yes"/>
      <point x="663" y="446"/>
      <point x="602" y="538"/>
      <point x="499" y="538" type="curve" smooth="yes"/>
      <point x="440" y="538"/>
      <point x="395" y="504"/>
      <point x="368" y="442" type="curve"/>
      <point x="340" y="504"/>
      <point x="293" y="538"/>
      <point x="232" y="538" type="curve" smooth="yes"/>
      <point x="115" y="538"/>
      <point x="48" y="437"/>
      <point x="48" y="263" type="curve" smooth="yes"/>
      <point x="48" y="88"/>
      <point x="115" y="-12"/>
    </contour>
    <contour>
      <point x="232" y="64" type="curve" smooth="yes"/>
      <point x="171" y="64"/>
      <point x="138" y="129"/>
      <point x="138" y="263" type="curve" smooth="yes"/>
      <point x="138" y="396"/>
      <point x="171" y="462"/>
      <point x="232" y="462" type="curve" smooth="yes"/>
      <point x="293" y="462"/>
      <point x="326" y="396"/>
      <point x="326" y="263" type="curve" smooth="yes"/>
      <point x="326" y="129"/>
      <point x="293" y="64"/>
    </contour>
    <contour>
      <point x="409" y="299" type="line"/>
      <point x="410" y="407"/>
      <point x="440" y="466"/>
      <point x="496" y="466" type="curve" smooth="yes"/>
      <point x="551" y="466"/>
      <point x="581" y="414"/>
      <point x="579" y="299" type="curve"/>
    </contour>
  </outline>
</glyph>
<glyph name="Scedilla" format="2">
  <advance width="400"/>
  <unicode hex="015E"/>
  <outline>
    <contour>
      <point x="164" y="-198" type="curve" smooth="yes"/>
      <point x="226" y="-198"/>
      <point x="268" y="-165"/>
      <point x="268" y="-115" type="curve" smooth="yes"/>
      <point x="268" y="-80"/>
      <point x="253" y="-56"/>
      <point x="214" y="-40" type="curve"/>
      <point x="218" y="-29"/>
      <point x="224" y="-15"/>
      <point x="230" y="-4" type="curve"/>
      <point x="318" y="19"/>
      <point x="369" y="94"/>
      <point x="369" y="190" type="curve" smooth="yes"/>
      <point x="369" y="278"/>
      <point x="320" y="336"/>
      <point x="241" y="388" type="curve" smooth="yes"/>
      <point x="165" y="439"/>
      <point x="127" y="467"/>
      <point x="127" y="529" type="curve" smooth="yes"/>
      <point x="127" y="593"/>
      <point x="168" y="628"/>
      <point x="231" y="628" type="curve" smooth="yes"/>
      <point x="265" y="628"/>
      <point x="302" y="618"/>
      <point x="333" y="601" type="curve"/>
      <point x="359" y="673" type="line"/>
      <point x="320" y="693"/>
      <point x="274" y="705"/>
      <point x="226" y="705" type="curve" smooth="yes"/>
      <point x="109" y="705"/>
      <point x="36" y="627"/>
      <point x="36" y="520" type="curve" smooth="yes"/>
      <point x="36" y="432"/>
      <point x="88" y="381"/>
      <point x="162" y="332" type="curve" smooth="yes"/>
      <point x="234" y="285"/>
      <point x="278" y="248"/>
      <point x="278" y="175" type="curve" smooth="yes"/>
      <point x="278" y="106"/>
      <point x="236" y="65"/>
      <point x="166" y="65" type="curve" smooth="yes"/>
      <point x="125" y="65"/>
      <point x="82" y="80"/>
      <point x="48" y="103" type="curve"/>
      <point x="21" y="27" type="line"/>
      <point x="60" y="4"/>
      <point x="113" y="-10"/>
      <point x="163" y="-12" type="curve"/>
      <point x="157" y="-27"/>
      <point x="148" y="-46"/>
      <point x="143" y="-62" type="curve"/>
      <point x="185" y="-71"/>
      <point x="201" y="-86"/>
      <point x="201" y="-108" type="curve" smooth="yes"/>
      <point x="201" y="-129"/>
      <point x="184" y="-141"/>
      <point x="157" y="-141" type="curve" smooth="yes"/>
      <point x="141" y="-141"/>
      <point x="122" y="-138"/>
      <point x="106" y="-133" type="curve"/>
      <point x="96" y="-187" type="line"/>
      <point x="119" y="-194"/>
      <point x="142" y="-198"/>
    </contour>
  </outline>
</glyph>
<glyph name="scedilla" format="2">
  <advance width="347"/>
  <unicode hex="015F"/>
  <outline>
    <contour>
      <point x="143" y="-198" type="curve" smooth="yes"/>
      <point x="206" y="-198"/>
      <point x="248" y="-165"/>
      <point x="248" y="-115" type="curve" smooth="yes"/>
      <point x="248" y="-80"/>
      <point x="232" y="-56"/>
      <point x="193" y="-40" type="curve"/>
      <point x="198" y="-29"/>
      <point x="204" y="-16"/>
      <point x="209" y="-4" type="curve"/>
      <point x="274" y="15"/>
      <point x="314" y="71"/>
      <point x="314" y="142" type="curve" smooth="yes"/>
      <point x="314" y="208"/>
      <point x="282" y="252"/>
      <point x="215" y="293" type="curve" smooth="yes"/>
      <point x="154" y="330"/>
      <point x="130" y="355"/>
      <point x="130" y="398" type="curve" smooth="yes"/>
      <point x="130" y="441"/>
      <point x="156" y="466"/>
      <point x="201" y="466" type="curve" smooth="yes"/>
      <point x="227" y="466"/>
      <point x="255" y="460"/>
      <point x="283" y="449" type="curve"/>
      <point x="297" y="518" type="line"/>
      <point x="275" y="528"/>
      <point x="236" y="538"/>
      <point x="196" y="538" type="curve" smooth="yes"/>
      <point x="104" y="538"/>
      <point x="46" y="476"/>
      <point x="46" y="390" type="curve" smooth="yes"/>
      <point x="46" y="325"/>
      <point x="75" y="281"/>
      <point x="143" y="241" type="curve" smooth="yes"/>
      <point x="210" y="201"/>
      <point x="227" y="177"/>
      <point x="227" y="134" type="curve" smooth="yes"/>
      <point x="227" y="91"/>
      <point x="197" y="60"/>
      <point x="148" y="60" type="curve" smooth="yes"/>
      <point x="119" y="60"/>
      <point x="81" y="69"/>
      <point x="51" y="84" type="curve"/>
      <point x="35" y="14" type="line"/>
      <point x="62" y="2"/>
      <point x="102" y="-10"/>
      <point x="143" y="-12" type="curve"/>
      <point x="136" y="-27"/>
      <point x="128" y="-46"/>
      <point x="122" y="-62" type="curve"/>
      <point x="164" y="-71"/>
      <point x="180" y="-86"/>
      <point x="180" y="-108" type="curve" smooth="yes"/>
      <point x="180" y="-129"/>
      <point x="164" y="-141"/>
      <point x="136" y="-141" type="curve" smooth="yes"/>
      <point x="121" y="-141"/>
      <point x="101" y="-138"/>
      <point x="86" y="-133" type="curve"/>
      <point x="76" y="-187" type="line"/>
      <point x="98" y="-194"/>
      <point x="121" y="-198"/>
    </contour>
  </outline>
</glyph>
<glyph name="uni0162" format="2">
  <advance width="432"/>
  <unicode hex="0162"/>
  <outline>
    <contour>
      <point x="179" y="-198" type="curve" smooth="yes"/>
      <point x="242" y="-198"/>
      <point x="284" y="-165"/>
      <point x="284" y="-115" type="curve" smooth="yes"/>
      <point x="284" y="-80"/>
      <point x="268" y="-56"/>
      <point x="229" y="-40" type="curve"/>
      <point x="235" y="-28"/>
      <point x="243" y="-12"/>
      <point x="249" y="0" type="curve"/>
      <point x="260" y="0" type="line"/>
      <point x="260" y="617" type="line"/>
      <point x="414" y="617" type="line"/>
      <point x="414" y="693" type="line"/>
      <point x="18" y="693" type="line"/>
      <point x="18" y="617" type="line"/>
      <point x="171" y="617" type="line"/>
      <point x="171" y="0" type="line"/>
      <point x="187" y="0" type="line"/>
      <point x="178" y="-18"/>
      <point x="166" y="-42"/>
      <point x="158" y="-62" type="curve"/>
      <point x="200" y="-71"/>
      <point x="217" y="-86"/>
      <point x="217" y="-108" type="curve" smooth="yes"/>
      <point x="217" y="-129"/>
      <point x="200" y="-141"/>
      <point x="172" y="-141" type="curve" smooth="yes"/>
      <point x="157" y="-141"/>
      <point x="137" y="-138"/>
      <point x="122" y="-133" type="curve"/>
      <point x="112" y="-187" type="line"/>
      <point x="134" y="-194"/>
      <point x="157" y="-198"/>
    </contour>
  </outline>
</glyph>
<glyph name="uni0163" format="2">
  <advance width="320"/>
  <unicode hex="0163"/>
  <outline>
    <contour>
      <point x="162" y="-198" type="curve" smooth="yes"/>
      <point x="224" y="-198"/>
      <point x="266" y="-165"/>
      <point x="266" y="-115" type="curve" smooth="yes"/>
      <point x="266" y="-80"/>
      <point x="250" y="-56"/>
      <point x="212" y="-40" type="curve"/>
      <point x="216" y="-30"/>
      <point x="221" y="-19"/>
      <point x="226" y="-7" type="curve"/>
      <point x="255" y="-6"/>
      <point x="285" y="1"/>
      <point x="305" y="12" type="curve"/>
      <point x="292" y="80" type="line"/>
      <point x="271" y="71"/>
      <point x="252" y="67"/>
      <point x="230" y="67" type="curve" smooth="yes"/>
      <point x="182" y="67"/>
      <point x="158" y="97"/>
      <point x="158" y="165" type="curve" smooth="yes"/>
      <point x="158" y="452" type="line"/>
      <point x="291" y="452" type="line"/>
      <point x="291" y="525" type="line"/>
      <point x="158" y="525" type="line"/>
      <point x="158" y="681" type="line"/>
      <point x="71" y="666" type="line"/>
      <point x="71" y="169" type="line" smooth="yes"/>
      <point x="71" y="69"/>
      <point x="105" y="15"/>
      <point x="166" y="-2" type="curve"/>
      <point x="158" y="-20"/>
      <point x="148" y="-43"/>
      <point x="141" y="-62" type="curve"/>
      <point x="182" y="-71"/>
      <point x="199" y="-86"/>
      <point x="199" y="-108" type="curve" smooth="yes"/>
      <point x="199" y="-129"/>
      <point x="182" y="-141"/>
      <point x="155" y="-141" type="curve" smooth="yes"/>
      <point x="139" y="-141"/>
      <point x="120" y="-138"/>
      <point x="104" y="-133" type="curve"/>
      <point x="94" y="-187" type="line"/>
      <point x="117" y="-194"/>
      <point x="140" y="-198"/>
    </contour>
  </outline>
</glyph>
<glyph name="Tbar" format="2">
  <advance width="432"/>
  <unicode hex="0166"/>
  <outline>
    <contour>
      <point x="171" y="0" type="line"/>
      <point x="260" y="0" type="line"/>
      <point x="260" y="315" type="line"/>
      <point x="346" y="315" type="line"/>
      <point x="346" y="382" type="line"/>
      <point x="260" y="382" type="line"/>
      <point x="260" y="617" type="line"/>
      <point x="414" y="617" type="line"/>
      <point x="414" y="693" type="line"/>
      <point x="18" y="693" type="line"/>
      <point x="18" y="617" type="line"/>
      <point x="171" y="617" type="line"/>
      <point x="171" y="382" type="line"/>
      <point x="86" y="382" type="line"/>
      <point x="86" y="315" type="line"/>
      <point x="171" y="315" type="line"/>
    </contour>
  </outline>
</glyph>
<glyph name="tbar" format="2">
  <advance width="320"/>
  <unicode hex="0167"/>
  <outline>
    <contour>
      <point x="216" y="-9" type="curve" smooth="yes"/>
      <point x="247" y="-9"/>
      <point x="283" y="-1"/>
      <point x="305" y="13" type="curve"/>
      <point x="292" y="80" type="line"/>
      <point x="271" y="71"/>
      <point x="252" y="67"/>
      <point x="230" y="67" type="curve" smooth="yes"/>
      <point x="182" y="67"/>
      <point x="158" y="97"/>
      <point x="158" y="165" type="curve" smooth="yes"/>
      <point x="158" y="243" type="line"/>
      <point x="287" y="243" type="line"/>
      <point x="287" y="303" type="line"/>
      <point x="158" y="303" type="line"/>
      <point x="158" y="452" type="line"/>
      <point x="291" y="452" type="line"/>
      <point x="291" y="525" type="line"/>
      <point x="158" y="525" type="line"/>
      <point x="158" y="681" type="line"/>
      <point x="71" y="666" type="line"/>
      <point x="71" y="169" type="line" smooth="yes"/>
      <point x="71" y="44"/>
      <point x="124" y="-9"/>
    </contour>
  </outline>
</glyph>
<glyph name="Uogonek" format="2">
  <advance width="549"/>
  <unicode hex="0172"/>
  <outline>
    <contour>
      <point x="390" y="-113" type="line"/>
      <point x="378" y="-118"/>
      <point x="366" y="-120"/>
      <point x="354" y="-120" type="curve" smooth="yes"/>
      <point x="330" y="-120"/>
      <point x="311" y="-108"/>
      <point x="311" y="-79" type="curve" smooth="yes"/>
      <point x="311" y="-44"/>
      <point x="345" y="-19"/>
      <point x="371" y="0" type="curve" smooth="yes"/>
      <point x="429" y="43"/>
      <point x="471" y="88"/>
      <point x="471" y="214" type="curve" smooth="yes"/>
      <point x="471" y="693" type="line"/>
      <point x="381" y="693" type="line"/>
      <point x="381" y="222" type="line" smooth="yes"/>
      <point x="381" y="120"/>
      <point x="357" y="64"/>
      <point x="274" y="64" type="curve" smooth="yes"/>
      <point x="195" y="64"/>
      <point x="168" y="117"/>
      <point x="168" y="222" type="curve" smooth="yes"/>
      <point x="168" y="693" type="line"/>
      <point x="78" y="693" type="line"/>
      <point x="78" y="214" type="line" smooth="yes"/>
      <point x="78" y="57"/>
      <point x="143" y="-14"/>
      <point x="269" y="-15" type="curve"/>
      <point x="246" y="-40"/>
      <point x="233" y="-67"/>
      <point x="233" y="-100" type="curve" smooth="yes"/>
      <point x="233" y="-154"/>
      <point x="275" y="-187"/>
      <point x="333" y="-187" type="curve" smooth="yes"/>
      <point x="355" y="-187"/>
      <point x="377" y="-183"/>
      <point x="395" y="-176" type="curve"/>
    </contour>
  </outline>
</glyph>
<glyph name="uogonek" format="2">
  <advance width="480"/>
  <unicode hex="0173"/>
  <outline>
    <contour>
      <point x="403" y="525" type="line"/>
      <point x="317" y="525" type="line"/>
      <point x="317" y="73" type="line"/>
      <point x="294" y="67"/>
      <point x="273" y="65"/>
      <point x="252" y="65" type="curve" smooth="yes"/>
      <point x="188" y="65"/>
      <point x="157" y="102"/>
      <point x="157" y="205" type="curve" smooth="yes"/>
      <point x="157" y="525" type="line"/>
      <point x="71" y="525" type="line"/>
      <point x="71" y="202" type="line" smooth="yes"/>
      <point x="71" y="33"/>
      <point x="144" y="-11"/>
      <point x="254" y="-11" type="curve" smooth="yes"/>
      <point x="264" y="-11"/>
      <point x="275" y="-10"/>
      <point x="286" y="-9" type="curve"/>
      <point x="259" y="-36"/>
      <point x="243" y="-65"/>
      <point x="243" y="-100" type="curve" smooth="yes"/>
      <point x="243" y="-154"/>
      <point x="285" y="-187"/>
      <point x="343" y="-187" type="curve" smooth="yes"/>
      <point x="365" y="-187"/>
      <point x="387" y="-183"/>
      <point x="405" y="-176" type="curve"/>
      <point x="400" y="-113" type="line"/>
      <point x="388" y="-118"/>
      <point x="376" y="-120"/>
      <point x="364" y="-120" type="curve" smooth="yes"/>
      <point x="340" y="-120"/>
      <point x="321" y="-108"/>
      <point x="321" y="-79" type="curve" smooth="yes"/>
      <point x="321" y="-47"/>
      <point x="351" y="-17"/>
      <point x="403" y="15" type="curve"/>
    </contour>
  </outline>
</glyph>
<glyph name="longs" format="2">
  <advance width="241"/>
  <unicode hex="017F"/>
  <anchor x="121" y="522" name="top"/>
  <anchor x="121" y="0" name="bottom"/>
  <outline>
    <contour>
      <point x="76" y="0" type="line"/>
      <point x="162" y="0" type="line"/>
      <point x="162" y="607" type="line" smooth="yes"/>
      <point x="162" y="673"/>
      <point x="185" y="702"/>
      <point x="237" y="702" type="curve" smooth="yes"/>
      <point x="250" y="702"/>
      <point x="267" y="699"/>
      <point x="279" y="694" type="curve"/>
      <point x="295" y="765" type="line"/>
      <point x="278" y="771"/>
      <point x="253" y="776"/>
      <point x="226" y="776" type="curve" smooth="yes"/>
      <point x="128" y="776"/>
      <point x="76" y="719"/>
      <point x="76" y="603" type="curve" smooth="yes"/>
    </contour>
  </outline>
</glyph>
<glyph name="uni0180" format="2">
  <advance width="466"/>
  <unicode hex="0180"/>
  <outline>
    <contour>
      <point x="220" y="-10" type="curve" smooth="yes"/>
      <point x="358" y="-10"/>
      <point x="418" y="90"/>
      <point x="418" y="256" type="curve" smooth="yes"/>
      <point x="418" y="445"/>
      <point x="348" y="525"/>
      <point x="239" y="525" type="curve" smooth="yes"/>
      <point x="209" y="525"/>
      <point x="180" y="517"/>
      <point x="162" y="505" type="curve"/>
      <point x="162" y="620" type="line"/>
      <point x="279" y="620" type="line"/>
      <point x="279" y="680" type="line"/>
      <point x="162" y="680" type="line"/>
      <point x="162" y="776" type="line"/>
      <point x="76" y="761" type="line"/>
      <point x="76" y="680" type="line"/>
      <point x="8" y="680" type="line"/>
      <point x="8" y="620" type="line"/>
      <point x="76" y="620" type="line"/>
      <point x="76" y="14" type="line"/>
      <point x="123" y="-2"/>
      <point x="167" y="-10"/>
    </contour>
    <contour>
      <point x="218" y="64" type="curve" smooth="yes"/>
      <point x="196" y="64"/>
      <point x="176" y="69"/>
      <point x="162" y="75" type="curve"/>
      <point x="162" y="432" type="line"/>
      <point x="176" y="444"/>
      <point x="200" y="451"/>
      <point x="226" y="451" type="curve" smooth="yes"/>
      <point x="277" y="451"/>
      <point x="328" y="421"/>
      <point x="328" y="256" type="curve" smooth="yes"/>
      <point x="328" y="105"/>
      <point x="289" y="64"/>
    </contour>
  </outline>
</glyph>
<glyph name="uni0181" format="2">
  <advance width="589"/>
  <unicode hex="0181"/>
  <outline>
    <contour>
      <point x="298" y="-6" type="curve" smooth="yes"/>
      <point x="456" y="-6"/>
      <point x="541" y="62"/>
      <point x="541" y="190" type="curve" smooth="yes"/>
      <point x="541" y="273"/>
      <point x="493" y="339"/>
      <point x="412" y="364" type="curve"/>
      <point x="481" y="389"/>
      <point x="519" y="446"/>
      <point x="519" y="521" type="curve" smooth="yes"/>
      <point x="519" y="638"/>
      <point x="439" y="700"/>
      <point x="276" y="700" type="curve" smooth="yes"/>
      <point x="64" y="700"/>
      <point x="4" y="628"/>
      <point x="4" y="540" type="curve" smooth="yes"/>
      <point x="4" y="520"/>
      <point x="7" y="498"/>
      <point x="11" y="482" type="curve"/>
      <point x="81" y="491" type="line"/>
      <point x="78" y="504"/>
      <point x="76" y="518"/>
      <point x="76" y="532" type="curve" smooth="yes"/>
      <point x="76" y="574"/>
      <point x="98" y="603"/>
      <point x="150" y="616" type="curve"/>
      <point x="150" y="10" type="line"/>
      <point x="198" y="-1"/>
      <point x="252" y="-6"/>
    </contour>
    <contour>
      <point x="304" y="68" type="curve" smooth="yes"/>
      <point x="284" y="68"/>
      <point x="256" y="71"/>
      <point x="239" y="74" type="curve"/>
      <point x="239" y="323" type="line"/>
      <point x="309" y="323" type="line" smooth="yes"/>
      <point x="395" y="323"/>
      <point x="447" y="273"/>
      <point x="447" y="191" type="curve" smooth="yes"/>
      <point x="447" y="108"/>
      <point x="400" y="68"/>
    </contour>
    <contour>
      <point x="239" y="396" type="line"/>
      <point x="239" y="622" type="line"/>
      <point x="256" y="624"/>
      <point x="275" y="626"/>
      <point x="296" y="626" type="curve"/>
      <point x="388" y="626"/>
      <point x="425" y="593"/>
      <point x="425" y="513" type="curve" smooth="yes"/>
      <point x="425" y="436"/>
      <point x="381" y="396"/>
      <point x="299" y="396" type="curve" smooth="yes"/>
    </contour>
  </outline>
</glyph>
<glyph name="uni0182" format="2">
  <advance width="505"/>
  <unicode hex="0182"/>
  <outline>
    <contour>
      <point x="221" y="-6" type="curve" smooth="yes"/>
      <point x="373" y="-6"/>
      <point x="464" y="71"/>
      <point x="464" y="213" type="curve" smooth="yes"/>
      <point x="464" y="368"/>
      <point x="372" y="431"/>
      <point x="224" y="431" type="curve" smooth="yes"/>
      <point x="172" y="431" type="line"/>
      <point x="172" y="617" type="line"/>
      <point x="400" y="617" type="line"/>
      <point x="400" y="693" type="line"/>
      <point x="83" y="693" type="line"/>
      <point x="83" y="12" type="line"/>
      <point x="123" y="1"/>
      <point x="177" y="-6"/>
    </contour>
    <contour>
      <point x="224" y="72" type="curve" smooth="yes"/>
      <point x="209" y="72"/>
      <point x="189" y="74"/>
      <point x="172" y="78" type="curve"/>
      <point x="172" y="355" type="line"/>
      <point x="226" y="355" type="line" smooth="yes"/>
      <point x="326" y="355"/>
      <point x="371" y="309"/>
      <point x="371" y="213" type="curve" smooth="yes"/>
      <point x="371" y="116"/>
      <point x="323" y="72"/>
    </contour>
  </outline>
</glyph>
<glyph name="uni0183" format="2">
  <advance width="467"/>
  <unicode hex="0183"/>
  <outline>
    <contour>
      <point x="220" y="-10" type="curve" smooth="yes"/>
      <point x="358" y="-10"/>
      <point x="419" y="92"/>
      <point x="419" y="261" type="curve" smooth="yes"/>
      <point x="419" y="453"/>
      <point x="349" y="535"/>
      <point x="240" y="535" type="curve" smooth="yes"/>
      <point x="210" y="535"/>
      <point x="181" y="527"/>
      <point x="162" y="515" type="curve"/>
      <point x="162" y="700" type="line"/>
      <point x="356" y="700" type="line"/>
      <point x="356" y="773" type="line"/>
      <point x="76" y="773" type="line"/>
      <point x="76" y="14" type="line"/>
      <point x="125" y="-2"/>
      <point x="168" y="-10"/>
    </contour>
    <contour>
      <point x="219" y="64" type="curve" smooth="yes"/>
      <point x="196" y="64"/>
      <point x="177" y="69"/>
      <point x="162" y="75" type="curve"/>
      <point x="162" y="443" type="line"/>
      <point x="177" y="454"/>
      <point x="201" y="461"/>
      <point x="227" y="461" type="curve" smooth="yes"/>
      <point x="278" y="461"/>
      <point x="329" y="429"/>
      <point x="329" y="261" type="curve" smooth="yes"/>
      <point x="329" y="106"/>
      <point x="290" y="64"/>
    </contour>
  </outline>
</glyph>
<glyph name="uni0184" format="2">
  <advance width="468"/>
  <unicode hex="0184"/>
  <outline>
    <contour>
      <point x="222" y="-10" type="curve"/>
      <point x="360" y="-10"/>
      <point x="420" y="92"/>
      <point x="420" y="261" type="curve" smooth="yes"/>
      <point x="420" y="453"/>
      <point x="350" y="535"/>
      <point x="241" y="535" type="curve" smooth="yes"/>
      <point x="211" y="535"/>
      <point x="182" y="527"/>
      <point x="164" y="515" type="curve"/>
      <point x="164" y="776" type="line"/>
      <point x="109" y="761"/>
      <point x="66" y="740"/>
      <point x="20" y="711" type="curve"/>
      <point x="77" y="633" type="line"/>
      <point x="77" y="14" type="line"/>
      <point x="125" y="-2"/>
      <point x="169" y="-10"/>
    </contour>
    <contour>
      <point x="220" y="64" type="curve"/>
      <point x="198" y="64"/>
      <point x="178" y="69"/>
      <point x="164" y="75" type="curve"/>
      <point x="164" y="443" type="line"/>
      <point x="178" y="454"/>
      <point x="202" y="461"/>
      <point x="228" y="461" type="curve" smooth="yes"/>
      <point x="279" y="461"/>
      <point x="330" y="429"/>
      <point x="330" y="261" type="curve" smooth="yes"/>
      <point x="330" y="106"/>
      <point x="291" y="64"/>
    </contour>
  </outline>
</glyph>
<glyph name="uni0185" format="2">
  <advance width="490"/>
  <unicode hex="0185"/>
  <outline>
    <contour>
      <point x="223" y="-6" type="curve" smooth="yes"/>
      <point x="376" y="-6"/>
      <point x="457" y="71"/>
      <point x="457" y="213" type="curve" smooth="yes"/>
      <point x="457" y="345"/>
      <point x="393" y="434"/>
      <point x="234" y="434" type="curve" smooth="yes"/>
      <point x="212" y="434"/>
      <point x="189" y="433"/>
      <point x="168" y="431" type="curve"/>
      <point x="168" y="699" type="line"/>
      <point x="121" y="687"/>
      <point x="71" y="663"/>
      <point x="24" y="635" type="curve"/>
      <point x="81" y="555" type="line"/>
      <point x="81" y="10" type="line"/>
      <point x="128" y="-1"/>
      <point x="176" y="-6"/>
    </contour>
    <contour>
      <point x="223" y="70" type="curve" smooth="yes"/>
      <point x="206" y="70"/>
      <point x="184" y="73"/>
      <point x="168" y="76" type="curve"/>
      <point x="168" y="355" type="line"/>
      <point x="187" y="357"/>
      <point x="207" y="358"/>
      <point x="226" y="358" type="curve"/>
      <point x="336" y="358"/>
      <point x="367" y="304"/>
      <point x="367" y="210" type="curve" smooth="yes"/>
      <point x="367" y="111"/>
      <point x="320" y="70"/>
    </contour>
  </outline>
</glyph>
<glyph name="uni0186" format="2">
  <advance width="464"/>
  <unicode hex="0186"/>
  <anchor x="234" y="693" name="top"/>
  <anchor x="234" y="0" name="bottom"/>
  <outline>
    <contour>
      <point x="162" y="-11" type="curve" smooth="yes"/>
      <point x="324" y="-11"/>
      <point x="409" y="112"/>
      <point x="409" y="342" type="curve" smooth="yes"/>
      <point x="409" y="579"/>
      <point x="325" y="704"/>
      <point x="162" y="704" type="curve" smooth="yes"/>
      <point x="107" y="704"/>
      <point x="61" y="692"/>
      <point x="25" y="672" type="curve"/>
      <point x="48" y="599" type="line"/>
      <point x="77" y="615"/>
      <point x="113" y="626"/>
      <point x="153" y="626" type="curve" smooth="yes"/>
      <point x="265" y="626"/>
      <point x="315" y="539"/>
      <point x="315" y="342" type="curve" smooth="yes"/>
      <point x="315" y="155"/>
      <point x="267" y="67"/>
      <point x="161" y="67" type="curve" smooth="yes"/>
      <point x="120" y="67"/>
      <point x="84" y="77"/>
      <point x="50" y="97" type="curve"/>
      <point x="24" y="21" type="line"/>
      <point x="61" y="0"/>
      <point x="111" y="-11"/>
    </contour>
  </outline>
</glyph>
